<?xml version="1.0" encoding="UTF-8" standalone="no"?>
<svg
   version="1.1"
   id="svg248"
   width="45"
   height="49"
   xmlns="http://www.w3.org/2000/svg"
   xmlns:svg="http://www.w3.org/2000/svg">
  <defs
     id="defs1" />
  <g
     id="g286"
     transform="translate(-808,-151)">
    <path
       stroke="none"
       fill="#d9cdaf"
       d="M 808,190.25 V 157 q 0,-6 6,-6 h 33 q 6,0 6,6 v 33.25 q -0.15,5.75 -6,5.75 h -33 q -5.85,0 -6,-5.75 m 2.1,-34.2 -0.1,0.95 v 33 q 0,4 4,4 h 33 q 4,0 4,-4 v -33 l -0.05,-0.95 Q 850.5,153 847,153 h -33 q -3.5,0 -3.9,3.05"
       id="path107" />
    <path
       stroke="none"
       fill="#b1a077"
       d="M 810.1,156.05 Q 810.5,153 814,153 h 33 q 3.5,0 3.95,3.05 L 851,157 v 33 q 0,4 -4,4 h -33 q -4,0 -4,-4 v -33 l 0.1,-0.95 m 2,0.25 -0.05,0.2 -0.05,0.5 v 23.9 l 2.75,2.75 -2.75,2.75 v 3.6 q 0,2 2,2 h 33 q 2,0 2,-2 v -22.9 l -2.4,-2.4 2.4,-2.4 V 157 l -0.05,-0.7 0.05,0.05 Q 848.65,155 847,155 h -33 q -1.65,0 -1.9,1.3"
       id="path108" />
    <path
       stroke="none"
       fill="#d3bf8f"
       d="m 812.1,156.3 q 0.25,-1.3 1.9,-1.3 h 33 q 1.65,0 2,1.35 l -0.05,-0.05 0.05,0.7 v 5.3 l -2.4,2.4 2.4,2.4 V 190 q 0,2 -2,2 h -33 q -2,0 -2,-2 v -3.6 l 2.75,-2.75 L 812,180.9 V 157 l 0.05,-0.5 0.05,-0.2"
       id="path109" />
    <path
       stroke="none"
       fill="#a3997f"
       d="M 853,190.25 V 194 q 0,6 -6,6 h -33 q -6,0 -6,-6 v -3.75 q 0.15,5.75 6,5.75 h 33 q 5.85,0 6,-5.75"
       id="path110" />
  </g>
</svg>
