<?xml version="1.0" encoding="UTF-8" standalone="no"?>
<svg
   version="1.1"
   id="svg248"
   width="45"
   height="45"
   xmlns="http://www.w3.org/2000/svg"
   xmlns:svg="http://www.w3.org/2000/svg">
  <defs
     id="defs1" />
  <g
     id="g285"
     transform="translate(-868,-155)">
    <path
       stroke="none"
       fill="#d3bf8f"
       d="m 872,161 0.05,-0.5 0.05,-0.2 q 0.25,-1.3 1.9,-1.3 h 33 q 1.65,0 2,1.35 l -0.05,-0.05 0.05,0.7 v 5.3 l -2.4,2.4 2.4,2.4 V 194 q 0,1.95 -1.85,2 H 873.9 q -1.9,-0.05 -1.9,-2 v -3.6 l 2.75,-2.75 L 872,184.9 V 161"
       id="path133" />
    <path
       stroke="none"
       fill="#b1a077"
       d="m 872,161 v 23.9 l 2.75,2.75 -2.75,2.75 v 3.6 q 0,1.95 1.9,2 h 33.25 q 1.85,-0.05 1.85,-2 v -22.9 l -2.4,-2.4 2.4,-2.4 V 161 l -0.05,-0.7 0.05,0.05 Q 908.65,159 907,159 h -33 q -1.65,0 -1.9,1.3 l -0.05,0.2 -0.05,0.5 m -1.9,-0.95 Q 870.5,157 874,157 h 33 q 3.5,0 3.95,3.05 L 911,161 v 33 l -0.05,1 q -0.45,3 -3.95,3 h -33 q -3.5,0 -3.9,-3 l -0.1,-1 v -33 l 0.1,-0.95"
       id="path134" />
    <path
       stroke="none"
       fill="#d9cdaf"
       d="M 870.1,160.05 870,161 v 33 l 0.1,1 q 0.4,3 3.9,3 h 33 q 3.5,0 3.95,-3 l 0.05,-1 v -33 l -0.05,-0.95 Q 910.5,157 907,157 h -33 q -3.5,0 -3.9,3.05 M 874,155 h 33 q 6,0 6,6 v 33.25 q -0.15,5.75 -6,5.75 h -33 -0.25 -0.15 -0.2 -0.1 -0.1 -0.1 q -4.7,-0.4 -5.05,-5.15 L 868,194.25 V 161 q 0,-6 6,-6"
       id="path135" />
  </g>
</svg>
