<?xml version="1.0" encoding="UTF-8" standalone="no"?>
<svg
   version="1.1"
   id="svg248"
   width="100"
   height="100"
   xmlns="http://www.w3.org/2000/svg"
   xmlns:svg="http://www.w3.org/2000/svg">
  <defs
     id="defs1" />
  <g
     id="g264"
     transform="translate(-140,-310)">
    <path
       stroke="none"
       fill="#b1a077"
       d="m 144,378.25 1.75,1.75 -1.75,1.7 v 4.95 l 2.8,2.8 -2.8,2.8 v 10.7 q 0,3.05 3.05,3.05 h 8.8 l 2.2,-2.2 2.2,2.2 h 72.65 q 3.1,0 3.1,-3.05 v -5.7 l -4.1,-4.1 4.1,-4.15 v -55.15 l -3.1,-3.1 3.1,-3.15 V 317.05 Q 236,314 232.9,314 h -38.55 l -2.85,2.9 -2.9,-2.9 h -41.55 q -3.05,0 -3.05,3.05 v 61.2 m -2,24.7 v -85.9 q 0,-5.05 5.05,-5.05 h 85.85 q 5.1,0 5.1,5.05 v 85.9 q 0,5.05 -5.1,5.05 H 147.05 Q 142,408 142,402.95"
       id="path139" />
    <path
       stroke="none"
       fill="#d3bf8f"
       d="m 144,378.25 v -61.2 q 0,-3.05 3.05,-3.05 h 41.55 l 2.9,2.9 2.85,-2.9 h 38.55 q 3.1,0 3.1,3.05 v 10.55 l -3.1,3.15 3.1,3.1 V 389 l -4.1,4.15 4.1,4.1 v 5.7 q 0,3.05 -3.1,3.05 h -72.65 l -2.2,-2.2 -2.2,2.2 h -8.8 Q 144,406 144,402.95 v -10.7 l 2.8,-2.8 -2.8,-2.8 v -4.95 l 1.75,-1.7 -1.75,-1.75"
       id="path140" />
    <path
       stroke="none"
       fill="#d9cdaf"
       d="m 142,402.95 q 0,5.05 5.05,5.05 h 85.85 q 5.1,0 5.1,-5.05 v -85.9 Q 238,312 232.9,312 h -85.85 q -5.05,0 -5.05,5.05 v 85.9 m -2,0 v -85.9 q 0,-7.05 7.05,-7.05 h 85.85 q 3.55,0 5.25,1.85 1.85,1.7 1.85,5.2 v 85.9 q 0,3.5 -1.85,5.2 -1.7,1.85 -5.25,1.85 H 147.05 Q 140,410 140,402.95"
       id="path141" />
  </g>
</svg>
