<?xml version="1.0" encoding="UTF-8" standalone="no"?>
<svg
   version="1.1"
   id="svg248"
   width="92"
   height="94"
   xmlns="http://www.w3.org/2000/svg"
   xmlns:svg="http://www.w3.org/2000/svg">
  <defs
     id="defs1" />
  <g
     id="g266"
     transform="translate(-144,-532)">
    <path
       stroke="none"
       fill="#000000"
       fill-opacity="0.101961"
       d="M 236,536.95 Q 235.95,534 232.9,534 h -38.55 l -2.85,2.9 -2.9,-2.9 h -41.55 q -3,0 -3.05,2.95 v -1.9 q 0,-3.05 3.05,-3.05 h 41.55 l 2.9,2.9 2.85,-2.9 h 38.55 q 3.1,0 3.1,3.05 v 1.9 m -91.25,62.05 1,1 -1.75,1.7 v -2 l 0.75,-0.7 m 1.05,9.45 1,1 -2.8,2.8 v -2 l 1.8,-1.8 m 90.2,8.8 -4.1,-4.1 1,-1 3.1,3.1 v 2 m 0,-63.4 -3.1,-3.1 1,-1 2.1,2.1 v 2"
       id="path153" />
    <path
       stroke="none"
       fill="#d3bf8f"
       d="M 236,553.85 V 609 l -3.1,3.15 -1,1 4.1,4.1 v 5.7 q 0,3.05 -3.1,3.05 h -72.65 l -2.2,-2.2 -2.2,2.2 h -8.8 Q 144,626 144,622.95 v -10.7 l 2.8,-2.8 -1,-1 -1.8,-1.8 v -4.95 l 1.75,-1.7 -1,-1 -0.75,-0.75 v -61.3 q 0.05,-2.95 3.05,-2.95 h 41.55 l 2.9,2.9 2.85,-2.9 h 38.55 q 3.05,0 3.1,2.95 v 10.65 l -2.1,2.15 -1,1 3.1,3.1"
       id="path154" />
  </g>
</svg>
