<?xml version="1.0" encoding="UTF-8" standalone="no"?>
<svg
   version="1.1"
   id="svg248"
   width="186"
   height="41"
   xmlns="http://www.w3.org/2000/svg"
   xmlns:svg="http://www.w3.org/2000/svg">
  <defs
     id="defs1" />
  <g
     id="g281"
     transform="translate(-600,-157)">
    <path
       stroke="none"
       fill="#d3bf8f"
       d="m 784,160.35 -0.05,-0.05 0.05,0.7 v 5.3 l -2.4,2.4 2.4,2.4 V 194 q 0,1.95 -1.85,2 h -35.1 l -1.55,-1.55 -1.55,1.55 H 701.4 l -2.75,-2.75 -2.75,2.75 h -92 q -1.9,-0.05 -1.9,-2 v -3.6 l 2.75,-2.75 L 602,184.9 V 161 l 0.05,-0.5 0.05,-0.2 q 0.25,-1.3 1.9,-1.3 h 17.05 l 2.25,2.25 2.25,-2.25 h 9.35 l 2.8,2.8 2.8,-2.8 H 782 q 1.65,0 2,1.35"
       id="path121" />
    <path
       stroke="none"
       fill="#b1a077"
       d="M 784,160.35 Q 783.65,159 782,159 H 640.5 l -2.8,2.8 -2.8,-2.8 h -9.35 l -2.25,2.25 -2.25,-2.25 H 604 q -1.65,0 -1.9,1.3 l -0.05,0.2 -0.05,0.5 v 23.9 l 2.75,2.75 -2.75,2.75 v 3.6 q 0,1.95 1.9,2 h 92 l 2.75,-2.75 2.75,2.75 h 42.55 l 1.55,-1.55 1.55,1.55 h 35.1 q 1.85,-0.05 1.85,-2 v -22.9 l -2.4,-2.4 2.4,-2.4 V 161 l -0.05,-0.7 0.05,0.05 M 782,157 q 3.5,0 3.95,3.05 L 786,161 v 33 l -0.05,1 q -0.45,3 -3.95,3 H 604 q -3.5,0 -3.9,-3 l -0.1,-1 v -33 l 0.1,-0.95 Q 600.5,157 604,157 h 178"
       id="path122" />
  </g>
  <path
     stroke="none"
     fill="#d9cdaf"
     d="M 182,0 H 4 Q 0.5,0 0.1,3.05 L 0,4 v 33 l 0.1,1 q 0.4,3 3.9,3 h 178 q 3.5,0 3.95,-3 L 186,37 V 4 L 185.95,3.05 Q 185.5,0 182,0 m 6,4 V 37.25 Q 187.85,43 182,43 H 4 3.75 3.6 3.4 3.3 3.2 3.1 Q -1.6,42.6 -1.95,37.85 L -2,37.25 V 4 q 0,-6 6,-6 h 178 q 6,0 6,6"
     id="path123" />
</svg>
