<?xml version="1.0" encoding="UTF-8" standalone="no"?>
<svg
   version="1.1"
   id="svg248"
   width="9"
   height="18"
   xmlns="http://www.w3.org/2000/svg"
   xmlns:svg="http://www.w3.org/2000/svg">
  <defs
     id="defs1" />
  <g
     id="g252"
     transform="translate(-30,-70)">
    <path
       stroke="none"
       fill="#1989b8"
       d="m 39,86 v 2 H 38.85 38.7 Q 35.2,87.95 32.65,85.35 H 32.6 Q 30,82.7 30,79 l 0.05,-1 q 0.3,-3 2.5,-5.3 L 32.7,72.55 Q 35.25,70.1 38.7,70 H 38.85 39 v 2 H 38.85 38.7 q -2.65,0.1 -4.65,2 L 34,74.05 Q 32.35,75.75 32.1,78 L 32,79 q 0,2.9 2.05,4.95 2,1.95 4.65,2.05 H 38.85 39"
       id="path10" />
    <path
       stroke="none"
       fill="#35baf3"
       d="M 39,86 H 38.85 38.7 Q 36.05,85.9 34.05,83.95 32,81.9 32,79 l 0.1,-1 Q 32.35,75.75 34,74.05 L 34.05,74 q 2,-1.9 4.65,-2 H 38.85 39 v 6 H 34.1 L 34,79 q 0,2.05 1.45,3.5 1.4,1.4 3.25,1.5 H 38.85 39 v 2"
       id="path11" />
    <path
       stroke="none"
       fill="#1ea7e1"
       d="m 39,78 v 6 H 38.85 38.7 Q 36.85,83.9 35.45,82.5 34,81.05 34,79 l 0.1,-1 H 39"
       id="path12" />
  </g>
</svg>
