<?xml version="1.0" encoding="UTF-8" standalone="no"?>
<svg
   version="1.1"
   id="svg248"
   width="9"
   height="18"
   xmlns="http://www.w3.org/2000/svg"
   xmlns:svg="http://www.w3.org/2000/svg">
  <defs
     id="defs1" />
  <g
     id="g254"
     transform="translate(-117,-70)">
    <path
       stroke="none"
       fill="#35baf3"
       d="m 117,84 h 0.15 0.15 q 1.85,-0.1 3.25,-1.5 Q 122,81.05 122,79 l -0.1,-1 H 117 v -6 h 0.15 0.15 q 2.65,0.1 4.65,2 l 0.05,0.05 q 1.65,1.7 1.9,3.95 l 0.1,1 q 0,2.9 -2.05,4.95 -2,1.95 -4.65,2.05 H 117.15 117 v -2"
       id="path16" />
    <path
       stroke="none"
       fill="#1ea7e1"
       d="m 117,84 v -6 h 4.9 l 0.1,1 q 0,2.05 -1.45,3.5 -1.4,1.4 -3.25,1.5 H 117.15 117"
       id="path17" />
    <path
       stroke="none"
       fill="#1989b8"
       d="m 117,86 h 0.15 0.15 q 2.65,-0.1 4.65,-2.05 Q 124,81.9 124,79 l -0.1,-1 Q 123.65,75.75 122,74.05 L 121.95,74 q -2,-1.9 -4.65,-2 H 117.15 117 v -2 h 0.15 0.15 q 3.45,0.1 6,2.55 l 0.15,0.15 q 2.2,2.3 2.5,5.3 l 0.05,1 q 0,3.7 -2.6,6.35 h -0.05 Q 120.8,87.95 117.3,88 H 117.15 117 v -2"
       id="path18" />
  </g>
</svg>
