<?xml version="1.0" encoding="UTF-8" standalone="no"?>
<svg
   version="1.1"
   id="svg248"
   width="45"
   height="45"
   xmlns="http://www.w3.org/2000/svg"
   xmlns:svg="http://www.w3.org/2000/svg">
  <defs
     id="defs1" />
  <g
     id="g290"
     transform="translate(-868,-95)">
    <path
       stroke="none"
       fill="#886644"
       d="m 874,97 q -3.5,0 -3.9,3.05 L 870,101 v 33 l 0.1,1 q 0.4,3 3.9,3 h 33 q 3.5,0 3.95,-3 l 0.05,-1 v -33 l -0.05,-0.95 Q 910.5,97 907,97 h -33 m 33,-2 q 6,0 6,6 v 33 0.25 q -0.15,5.75 -6,5.75 h -33 -0.25 -0.15 -0.2 -0.1 -0.1 -0.1 q -4.7,-0.4 -5.05,-5.15 L 868,134.25 V 134 101 q 0,-6 6,-6 h 33"
       id="path130" />
    <path
       stroke="none"
       fill="#b7916a"
       d="m 874,97 h 33 q 3.5,0 3.95,3.05 L 911,101 v 33 l -0.05,1 q -0.45,3 -3.95,3 h -33 q -3.5,0 -3.9,-3 l -0.1,-1 v -33 l 0.1,-0.95 Q 870.5,97 874,97 m 35,9.3 V 101 l -0.05,-0.7 0.05,0.05 Q 908.65,99 907,99 h -33 q -1.65,0 -1.9,1.3 l -0.05,0.2 -0.05,0.5 v 23.9 l 2.75,2.75 -2.75,2.75 v 3.6 q 0,1.95 1.9,2 h 33.25 q 1.85,-0.05 1.85,-2 v -22.9 l -2.4,-2.4 2.4,-2.4"
       id="path131" />
    <path
       stroke="none"
       fill="#97714a"
       d="m 909,106.3 -2.4,2.4 2.4,2.4 V 134 q 0,1.95 -1.85,2 H 873.9 q -1.9,-0.05 -1.9,-2 v -3.6 l 2.75,-2.75 L 872,124.9 V 101 l 0.05,-0.5 0.05,-0.2 Q 872.35,99 874,99 h 33 q 1.65,0 2,1.35 l -0.05,-0.05 0.05,0.7 v 5.3"
       id="path132" />
  </g>
</svg>
