<?xml version="1.0" encoding="UTF-8" standalone="no"?>
<svg
   version="1.1"
   id="svg248"
   width="100"
   height="100"
   xmlns="http://www.w3.org/2000/svg"
   xmlns:svg="http://www.w3.org/2000/svg">
  <defs
     id="defs1" />
  <g
     id="g262"
     transform="translate(-30,-310)">
    <path
       stroke="none"
       fill="#b7916a"
       d="M 84.35,314 81.5,316.9 78.6,314 H 37.05 Q 34,314 34,317.05 v 61.2 L 35.75,380 34,381.7 v 4.95 l 2.8,2.8 -2.8,2.8 v 10.7 q 0,3.05 3.05,3.05 h 8.8 l 2.2,-2.2 2.2,2.2 h 72.65 q 3.1,0 3.1,-3.05 v -5.7 l -4.1,-4.1 4.1,-4.15 v -55.15 l -3.1,-3.1 3.1,-3.15 V 317.05 Q 126,314 122.9,314 H 84.35 M 32,402.95 v -85.9 Q 32,312 37.05,312 h 85.85 q 5.1,0 5.1,5.05 v 85.9 q 0,5.05 -5.1,5.05 H 37.05 Q 32,408 32,402.95"
       id="path142" />
    <path
       stroke="none"
       fill="#97714a"
       d="m 84.35,314 h 38.55 q 3.1,0 3.1,3.05 v 10.55 l -3.1,3.15 3.1,3.1 V 389 l -4.1,4.15 4.1,4.1 v 5.7 q 0,3.05 -3.1,3.05 H 50.25 l -2.2,-2.2 -2.2,2.2 h -8.8 Q 34,406 34,402.95 v -10.7 l 2.8,-2.8 -2.8,-2.8 V 381.7 L 35.75,380 34,378.25 v -61.2 Q 34,314 37.05,314 H 78.6 l 2.9,2.9 2.85,-2.9"
       id="path143" />
    <path
       stroke="none"
       fill="#886644"
       d="m 128.15,311.85 q 1.85,1.7 1.85,5.2 v 85.9 q 0,3.5 -1.85,5.2 -1.7,1.85 -5.25,1.85 H 37.05 Q 30,410 30,402.95 v -85.9 Q 30,310 37.05,310 h 85.85 q 3.55,0 5.25,1.85 M 32,402.95 q 0,5.05 5.05,5.05 h 85.85 q 5.1,0 5.1,-5.05 v -85.9 Q 128,312 122.9,312 H 37.05 Q 32,312 32,317.05 v 85.9"
       id="path144" />
  </g>
</svg>
