<?xml version="1.0" encoding="UTF-8" standalone="no"?>
<svg
   version="1.1"
   id="svg248"
   width="35"
   height="38"
   xmlns="http://www.w3.org/2000/svg"
   xmlns:svg="http://www.w3.org/2000/svg">
  <defs
     id="defs1" />
  <g
     id="g292"
     transform="translate(-308,-428)">
    <path
       stroke="none"
       fill="#886644"
       d="m 308,446 v -0.5 q 0,-7.25 5.05,-12.4 l 0.05,-0.05 q 5.15,-5.05 12.4,-5.05 7.25,0 12.35,5.05 v 0.05 q 5.15,5.15 5.15,12.4 v 0.5 q -0.2,6.95 -5.15,11.85 -5.1,5.15 -12.35,5.15 -7.25,0 -12.4,-5.15 h -0.05 Q 308.2,452.95 308,446 m 1.95,-0.5 q 0,6.45 4.55,11 4.55,4.5 11,4.5 6.4,0 10.95,-4.5 l 0.05,-0.05 q 4.5,-4.55 4.5,-10.95 0,-6.45 -4.5,-11 -4.55,-4.55 -11,-4.55 -6.4,0 -11,4.55 -4.55,4.6 -4.55,11"
       id="path225" />
    <path
       stroke="none"
       fill="#000000"
       fill-opacity="0.101961"
       d="m 343,446 v 0.5 0.5 0.5 0.5 0.5 q 0,7.25 -5.15,12.35 -5.1,5.15 -12.35,5.15 -7.25,0 -12.4,-5.15 h -0.05 Q 308,455.75 308,448.5 V 448 447.5 447 446.5 446 q 0.2,6.95 5.05,11.85 h 0.05 q 5.15,5.15 12.4,5.15 7.25,0 12.35,-5.15 4.95,-4.9 5.15,-11.85"
       id="path226" />
    <path
       stroke="none"
       fill="#b7916a"
       d="m 311.95,445.5 q 0,5.6 3.9,9.55 4,4 9.65,4 5.6,0 9.55,-4 4,-3.95 4,-9.55 0,-5.65 -4,-9.65 -3.95,-3.9 -9.55,-3.9 -5.65,0 -9.65,3.9 -3.9,4 -3.9,9.65 m -2,0 q 0,-6.4 4.55,-11 4.6,-4.55 11,-4.55 6.45,0 11,4.55 4.5,4.55 4.5,11 0,6.4 -4.5,10.95 l -0.05,0.05 q -4.55,4.5 -10.95,4.5 -6.45,0 -11,-4.5 -4.55,-4.55 -4.55,-11"
       id="path227" />
    <path
       stroke="none"
       fill="#97714a"
       d="m 311.95,445.5 q 0,-5.65 3.9,-9.65 4,-3.9 9.65,-3.9 5.6,0 9.55,3.9 4,4 4,9.65 0,5.6 -4,9.55 -3.95,4 -9.55,4 -5.65,0 -9.65,-4 -3.9,-3.95 -3.9,-9.55"
       id="path228" />
  </g>
</svg>
