<?xml version="1.0" encoding="UTF-8" standalone="no"?>
<svg
   version="1.1"
   id="svg248"
   width="92"
   height="94"
   xmlns="http://www.w3.org/2000/svg"
   xmlns:svg="http://www.w3.org/2000/svg">
  <defs
     id="defs1" />
  <g
     id="g270"
     transform="translate(-34,-532)">
    <path
       stroke="none"
       fill="#000000"
       fill-opacity="0.101961"
       d="M 126,536.95 Q 125.95,534 122.9,534 H 84.35 L 81.5,536.9 78.6,534 H 37.05 q -3,0 -3.05,2.95 v -1.9 Q 34,532 37.05,532 H 78.6 l 2.9,2.9 2.85,-2.9 h 38.55 q 3.1,0 3.1,3.05 v 1.9 M 34.75,599 l 1,1 -1.75,1.7 v -2 l 0.75,-0.7 m 1.05,9.45 1,1 -2.8,2.8 v -2 l 1.8,-1.8 m 90.2,8.8 -4.1,-4.1 1,-1 3.1,3.1 v 2 m 0,-63.4 -3.1,-3.1 1,-1 2.1,2.1 v 2"
       id="path151" />
    <path
       stroke="none"
       fill="#97714a"
       d="M 126,553.85 V 609 l -3.1,3.15 -1,1 4.1,4.1 v 5.7 q 0,3.05 -3.1,3.05 H 50.25 l -2.2,-2.2 -2.2,2.2 h -8.8 Q 34,626 34,622.95 v -10.7 l 2.8,-2.8 -1,-1 -1.8,-1.8 v -4.95 l 1.75,-1.7 -1,-1 -0.75,-0.75 v -61.3 Q 34.05,534 37.05,534 H 78.6 l 2.9,2.9 2.85,-2.9 h 38.55 q 3.05,0 3.1,2.95 v 10.65 l -2.1,2.15 -1,1 3.1,3.1"
       id="path152" />
  </g>
</svg>
