<?xml version="1.0" encoding="UTF-8" standalone="no"?>
<svg
   version="1.1"
   id="svg248"
   width="34.104187"
   height="37"
   xmlns="http://www.w3.org/2000/svg"
   xmlns:svg="http://www.w3.org/2000/svg">
  <defs
     id="defs1" />
  <g
     id="g272"
     transform="translate(-257.99582,-370.10001)">
    <path
       stroke="none"
       fill="#87623f"
       d="m 258.45,373.8 -0.35,-1.25 q -0.25,-0.75 0.1,-1.4 0.3,-0.65 0.95,-0.95 l 1.4,-0.1 11.25,3 q 0.75,0.15 1.15,0.85 l 8.55,13.45 -1.45,1.45 -8.8,-13.85 -11.25,-3 3.05,11.25 13.85,8.75 -1.45,1.45 -13.45,-8.5 q -0.7,-0.4 -0.85,-1.15 l -2.7,-10"
       id="path159" />
    <path
       stroke="none"
       fill="#000000"
       fill-opacity="0.101961"
       d="m 258.45,373.8 2.7,10 q 0.15,0.75 0.85,1.15 l 13.45,8.5 -1.6,1.65 -0.2,0.2 -11.65,-7.35 q -0.7,-0.4 -0.85,-1.15 l -3.05,-11.25 q -0.25,-0.75 0.1,-1.4 l 0.25,-0.35 m 29.4,16.95 0.1,0.1 q 0.55,0.55 0.55,1.4 0,0.8 -0.55,1.4 l -0.05,0.1 -1.5,-1.5 1.45,-1.5 m 3.6,8.25 0.1,0.1 q 0.55,0.55 0.55,1.4 0,0.85 -0.55,1.45 l -4.6,4.6 q -0.6,0.55 -1.45,0.55 -0.85,0 -1.4,-0.55 l -1.3,-1.3 q -0.6,-0.6 -0.6,-1.45 l 0.05,-0.4 -2,-2 -1.6,1.55 q -0.6,0.55 -1.4,0.55 -0.85,0 -1.4,-0.55 l -2,-2 q -0.6,-0.6 -0.6,-1.45 0,-0.85 0.6,-1.4 l 0.1,-0.05 1.9,1.9 q 0.55,0.55 1.4,0.55 0.8,0 1.4,-0.55 l 1.6,-1.55 2,2 -0.05,0.4 q 0,0.85 0.6,1.45 l 1.3,1.3 q 0.55,0.55 1.4,0.55 0.85,0 1.45,-0.55 l 4.5,-4.55"
       id="path160" />
    <path
       stroke="none"
       fill="#bd8a5a"
       d="M 276.9,392 263.05,383.25 260,372 l 19.9,19.9 -1.25,1.2 -1.75,-1.1"
       id="path161" />
    <path
       stroke="none"
       fill="#6b6b6b"
       d="m 276.9,392 1.75,1.1 -3.4,3.4 2,2 3,-2.95 4.6,4.6 -0.65,0.65 1.3,1.3 4.6,-4.6 -1.3,-1.3 -0.65,0.65 -4.6,-4.6 2.95,-3 -2,-2 -3.35,3.35 -1.1,-1.75 1.45,-1.45 1.6,-1.55 0.35,-0.3 q 0.45,-0.3 1.05,-0.3 l 1.1,0.3 0.35,0.3 2,2 q 0.55,0.55 0.55,1.4 0,0.8 -0.55,1.4 l -0.1,0.1 -1.45,1.5 1.5,1.5 0.5,0.5 0.4,-0.05 q 0.85,0 1.45,0.6 l 1.3,1.3 q 0.55,0.55 0.55,1.4 0,0.85 -0.55,1.45 l -0.1,0.05 -4.5,4.55 q -0.6,0.55 -1.45,0.55 -0.85,0 -1.4,-0.55 l -1.3,-1.3 q -0.6,-0.6 -0.6,-1.45 l 0.05,-0.4 -2,-2 -1.6,1.55 q -0.6,0.55 -1.4,0.55 -0.85,0 -1.4,-0.55 l -1.9,-1.9 -0.1,-0.1 q -0.6,-0.6 -0.6,-1.45 0,-0.7 0.4,-1.2 l 0.2,-0.2 1.6,-1.65 1.45,-1.45"
       id="path162" />
    <path
       stroke="none"
       fill="#a8a8a8"
       d="m 278.65,393.1 1.25,-1.2 1.25,-1.3 3.35,-3.35 2,2 -2.95,3 -3.3,3.3 -3,2.95 -2,-2 3.4,-3.4 m 9.5,3.75 0.65,-0.65 1.3,1.3 -4.6,4.6 -1.3,-1.3 0.65,-0.65 3.3,-3.3"
       id="path163" />
    <path
       stroke="none"
       fill="#c99869"
       d="m 260,372 11.25,3 8.8,13.85 1.1,1.75 -1.25,1.3 L 260,372"
       id="path164" />
    <path
       stroke="none"
       fill="#666666"
       d="m 280.25,395.55 3.3,-3.3 4.6,4.6 -3.3,3.3 -4.6,-4.6"
       id="path165" />
  </g>
</svg>
