<?xml version="1.0" encoding="UTF-8" standalone="no"?>
<svg
   version="1.1"
   id="svg248"
   width="45"
   height="49"
   xmlns="http://www.w3.org/2000/svg"
   xmlns:svg="http://www.w3.org/2000/svg">
  <defs
     id="defs1" />
  <g
     id="g287"
     transform="translate(-808,-91)">
    <path
       stroke="none"
       fill="#97714a"
       d="m 812.05,96.5 0.05,-0.2 Q 812.35,95 814,95 h 33 q 1.65,0 2,1.35 L 848.95,96.3 849,97 v 5.3 l -2.4,2.4 2.4,2.4 V 130 q 0,2 -2,2 h -33 q -2,0 -2,-2 v -3.6 l 2.75,-2.75 L 812,120.9 V 97 l 0.05,-0.5"
       id="path103" />
    <path
       stroke="none"
       fill="#b7916a"
       d="M 812.05,96.5 812,97 v 23.9 l 2.75,2.75 -2.75,2.75 v 3.6 q 0,2 2,2 h 33 q 2,0 2,-2 v -22.9 l -2.4,-2.4 2.4,-2.4 V 97 l -0.05,-0.7 0.05,0.05 Q 848.65,95 847,95 h -33 q -1.65,0 -1.9,1.3 l -0.05,0.2 M 810,97 810.1,96.05 Q 810.5,93 814,93 h 33 q 3.5,0 3.95,3.05 L 851,97 v 33 q 0,4 -4,4 h -33 q -4,0 -4,-4 V 97"
       id="path104" />
    <path
       stroke="none"
       fill="#886644"
       d="m 810,97 v 33 q 0,4 4,4 h 33 q 4,0 4,-4 V 97 l -0.05,-0.95 Q 850.5,93 847,93 h -33 q -3.5,0 -3.9,3.05 L 810,97 m -2,33.25 V 97 q 0,-6 6,-6 h 33 q 6,0 6,6 v 33.25 q -0.15,5.75 -6,5.75 h -33 q -5.85,0 -6,-5.75"
       id="path105" />
    <path
       stroke="none"
       fill="#6d543a"
       d="m 808,130.25 q 0.15,5.75 6,5.75 h 33 q 5.85,0 6,-5.75 V 134 q 0,6 -6,6 h -33 q -6,0 -6,-6 v -3.75"
       id="path106" />
  </g>
</svg>
