<?xml version="1.0" encoding="UTF-8" standalone="no"?>
<svg
   version="1.1"
   id="svg248"
   width="9"
   height="18"
   xmlns="http://www.w3.org/2000/svg"
   xmlns:svg="http://www.w3.org/2000/svg">
  <defs
     id="defs1" />
  <g
     id="g258"
     transform="translate(-30,-150)">
    <path
       stroke="none"
       fill="#5fb13a"
       d="m 39,166 v 2 H 38.85 38.7 q -3.5,-0.05 -6.05,-2.65 H 32.6 Q 30,162.7 30,159 l 0.05,-1 q 0.3,-3 2.5,-5.3 l 0.15,-0.15 q 2.55,-2.45 6,-2.55 H 38.85 39 v 2 H 38.85 38.7 q -2.65,0.1 -4.65,2 L 34,154.05 q -1.65,1.7 -1.9,3.95 l -0.1,1 q 0,2.9 2.05,4.95 2,1.95 4.65,2.05 H 38.85 39"
       id="path28" />
    <path
       stroke="none"
       fill="#88e060"
       d="M 39,166 H 38.85 38.7 Q 36.05,165.9 34.05,163.95 32,161.9 32,159 l 0.1,-1 q 0.25,-2.25 1.9,-3.95 L 34.05,154 q 2,-1.9 4.65,-2 H 38.85 39 v 6 h -4.9 l -0.1,1 q 0,2.05 1.45,3.5 1.4,1.4 3.25,1.5 H 38.85 39 v 2"
       id="path29" />
    <path
       stroke="none"
       fill="#73cd4b"
       d="m 39,158 v 6 H 38.85 38.7 Q 36.85,163.9 35.45,162.5 34,161.05 34,159 l 0.1,-1 H 39"
       id="path30" />
  </g>
</svg>
