<?xml version="1.0" encoding="UTF-8" standalone="no"?>
<svg
   version="1.1"
   id="svg248"
   width="9"
   height="18"
   xmlns="http://www.w3.org/2000/svg"
   xmlns:svg="http://www.w3.org/2000/svg">
  <defs
     id="defs1" />
  <g
     id="g260"
     transform="translate(-117,-150)">
    <path
       stroke="none"
       fill="#88e060"
       d="m 117,152 h 0.15 0.15 q 2.65,0.1 4.65,2 l 0.05,0.05 q 1.65,1.7 1.9,3.95 l 0.1,1 q 0,2.9 -2.05,4.95 -2,1.95 -4.65,2.05 H 117.15 117 v -2 h 0.15 0.15 q 1.85,-0.1 3.25,-1.5 1.45,-1.45 1.45,-3.5 l -0.1,-1 H 117 v -6"
       id="path34" />
    <path
       stroke="none"
       fill="#5fb13a"
       d="m 117,152 v -2 h 0.15 0.15 q 3.45,0.1 6,2.55 l 0.15,0.15 q 2.2,2.3 2.5,5.3 l 0.05,1 q 0,3.7 -2.6,6.35 h -0.05 q -2.55,2.6 -6.05,2.65 H 117.15 117 v -2 h 0.15 0.15 q 2.65,-0.1 4.65,-2.05 Q 124,161.9 124,159 l -0.1,-1 q -0.25,-2.25 -1.9,-3.95 L 121.95,154 q -2,-1.9 -4.65,-2 H 117.15 117"
       id="path35" />
    <path
       stroke="none"
       fill="#73cd4b"
       d="m 117,158 h 4.9 l 0.1,1 q 0,2.05 -1.45,3.5 -1.4,1.4 -3.25,1.5 H 117.15 117 v -6"
       id="path36" />
  </g>
</svg>
