<?xml version="1.0" encoding="UTF-8" standalone="no"?>
<svg
   version="1.1"
   id="svg248"
   width="9"
   height="18"
   xmlns="http://www.w3.org/2000/svg"
   xmlns:svg="http://www.w3.org/2000/svg">
  <defs
     id="defs1" />
  <g
     id="g267"
     transform="translate(-30,-760)">
    <path
       stroke="none"
       fill="#000000"
       fill-opacity="0.2"
       d="M 39,762 H 38.85 38.7 q -3.45,0.1 -6,2.55 l -0.15,0.15 q -2.2,2.3 -2.5,5.3 l -0.05,-1 0.05,-1 q 0.3,-3 2.5,-5.3 l 0.15,-0.15 q 2.55,-2.45 6,-2.55 H 38.85 39 v 2"
       id="path41" />
    <path
       stroke="none"
       fill="#000000"
       fill-opacity="0.101961"
       d="m 39,762 v 16 H 38.85 38.7 q -3.5,-0.05 -6.05,-2.65 H 32.6 q -2.25,-2.3 -2.55,-5.35 0.3,-3 2.5,-5.3 l 0.15,-0.15 q 2.55,-2.45 6,-2.55 H 38.85 39"
       id="path42" />
  </g>
</svg>
