<?xml version="1.0" encoding="UTF-8" standalone="no"?>
<svg
   version="1.1"
   id="svg248"
   width="100"
   height="100"
   xmlns="http://www.w3.org/2000/svg"
   xmlns:svg="http://www.w3.org/2000/svg">
  <defs
     id="defs1" />
  <g
     id="g263"
     transform="translate(-140,-200)">
    <path
       stroke="none"
       fill="#9b9dad"
       d="m 191.5,206.9 -2.9,-2.9 h -41.55 q -3.05,0 -3.05,3.05 v 61.2 l 1.75,1.75 -1.75,1.7 v 4.95 l 2.8,2.8 -2.8,2.8 v 10.7 q 0,3.05 3.05,3.05 h 8.8 l 2.2,-2.2 2.2,2.2 h 72.65 q 3.1,0 3.1,-3.05 v -5.7 l -4.1,-4.1 4.1,-4.15 v -55.15 l -3.1,-3.1 3.1,-3.15 V 207.05 Q 236,204 232.9,204 h -38.55 l -2.85,2.9 m 46.5,0.15 v 85.9 q 0,5.05 -5.1,5.05 H 147.05 Q 142,298 142,292.95 v -85.9 q 0,-5.05 5.05,-5.05 h 85.85 q 5.1,0 5.1,5.05"
       id="path145" />
    <path
       stroke="none"
       fill="#838796"
       d="m 191.5,206.9 2.85,-2.9 h 38.55 q 3.1,0 3.1,3.05 v 10.55 l -3.1,3.15 3.1,3.1 V 279 l -4.1,4.15 4.1,4.1 v 5.7 q 0,3.05 -3.1,3.05 h -72.65 l -2.2,-2.2 -2.2,2.2 h -8.8 Q 144,296 144,292.95 v -10.7 l 2.8,-2.8 -2.8,-2.8 v -4.95 l 1.75,-1.7 -1.75,-1.75 v -61.2 q 0,-3.05 3.05,-3.05 h 41.55 l 2.9,2.9"
       id="path146" />
    <path
       stroke="none"
       fill="#616374"
       d="m 240,207.05 v 85.9 q 0,3.5 -1.85,5.2 -1.7,1.85 -5.25,1.85 H 147.05 Q 140,300 140,292.95 v -85.9 q 0,-7.05 7.05,-7.05 h 85.85 q 3.55,0 5.25,1.85 1.85,1.7 1.85,5.2 m -2,0 Q 238,202 232.9,202 h -85.85 q -5.05,0 -5.05,5.05 v 85.9 q 0,5.05 5.05,5.05 h 85.85 q 5.1,0 5.1,-5.05 v -85.9"
       id="path147" />
  </g>
</svg>
