<?xml version="1.0" encoding="UTF-8" standalone="no"?>
<svg
   version="1.1"
   id="svg248"
   width="45"
   height="45"
   xmlns="http://www.w3.org/2000/svg"
   xmlns:svg="http://www.w3.org/2000/svg">
  <defs
     id="defs1" />
  <g
     id="g289"
     transform="translate(-868,-35)">
    <path
       stroke="none"
       fill="#838796"
       d="M 909,40.35 908.95,40.3 909,41 v 5.3 l -2.4,2.4 2.4,2.4 V 74 q 0,1.95 -1.85,2 H 873.9 Q 872,75.95 872,74 V 70.4 L 874.75,67.65 872,64.9 V 41 l 0.05,-0.5 0.05,-0.2 Q 872.35,39 874,39 h 33 q 1.65,0 2,1.35"
       id="path127" />
    <path
       stroke="none"
       fill="#727685"
       d="M 909,40.35 Q 908.65,39 907,39 h -33 q -1.65,0 -1.9,1.3 L 872.05,40.5 872,41 v 23.9 l 2.75,2.75 L 872,70.4 V 74 q 0,1.95 1.9,2 h 33.25 Q 909,75.95 909,74 V 51.1 l -2.4,-2.4 2.4,-2.4 V 41 l -0.05,-0.7 0.05,0.05 M 907,37 q 3.5,0 3.95,3.05 L 911,41 v 33 l -0.05,1 q -0.45,3 -3.95,3 h -33 q -3.5,0 -3.9,-3 L 870,74 V 41 l 0.1,-0.95 Q 870.5,37 874,37 h 33"
       id="path128" />
    <path
       stroke="none"
       fill="#9b9dad"
       d="m 907,37 h -33 q -3.5,0 -3.9,3.05 L 870,41 v 33 l 0.1,1 q 0.4,3 3.9,3 h 33 q 3.5,0 3.95,-3 L 911,74 V 41 l -0.05,-0.95 Q 910.5,37 907,37 m 6,4 v 33 0.25 Q 912.85,80 907,80 h -33 -0.25 -0.15 -0.2 -0.1 -0.1 -0.1 q -4.7,-0.4 -5.05,-5.15 L 868,74.25 V 74 41 q 0,-6 6,-6 h 33 q 6,0 6,6"
       id="path129" />
  </g>
</svg>
