<?xml version="1.0" encoding="UTF-8" standalone="no"?>
<svg
   version="1.1"
   id="svg248"
   width="9"
   height="18"
   xmlns="http://www.w3.org/2000/svg"
   xmlns:svg="http://www.w3.org/2000/svg">
  <defs
     id="defs1" />
  <g
     id="g269"
     transform="translate(-77,-760)">
    <path
       stroke="none"
       fill="#000000"
       fill-opacity="0.2"
       d="m 77,762 v -2 h 0.15 0.15 q 3.45,0.1 6,2.55 l 0.15,0.15 q 2.2,2.3 2.5,5.3 l 0.05,1 -0.05,1 q -0.3,-3 -2.5,-5.3 L 83.3,764.55 Q 80.75,762.1 77.3,762 H 77.15 77"
       id="path37" />
    <path
       stroke="none"
       fill="#000000"
       fill-opacity="0.101961"
       d="m 77,762 h 0.15 0.15 q 3.45,0.1 6,2.55 l 0.15,0.15 q 2.2,2.3 2.5,5.3 -0.3,3.05 -2.55,5.35 H 83.35 Q 80.8,777.95 77.3,778 H 77.15 77 v -16"
       id="path38" />
  </g>
</svg>
