<?xml version="1.0" encoding="UTF-8" standalone="no"?>
<svg
   version="1.1"
   id="svg248"
   width="100"
   height="100"
   xmlns="http://www.w3.org/2000/svg"
   xmlns:svg="http://www.w3.org/2000/svg">
  <defs
     id="defs1" />
  <g
     id="g261"
     transform="translate(-30,-200)">
    <path
       stroke="none"
       fill="#faf2e1"
       d="m 37.05,202 h 85.85 q 5.1,0 5.1,5.05 v 85.9 q 0,5.05 -5.1,5.05 H 37.05 Q 32,298 32,292.95 v -85.9 Q 32,202 37.05,202 m 0,2 Q 34,204 34,207.05 v 61.2 L 35.75,270 34,271.7 v 4.95 l 2.8,2.8 -2.8,2.8 v 10.7 q 0,3.05 3.05,3.05 h 8.8 l 2.2,-2.2 2.2,2.2 h 72.65 q 3.1,0 3.1,-3.05 v -5.7 l -4.1,-4.1 4.1,-4.15 v -55.15 l -3.1,-3.1 3.1,-3.15 V 207.05 Q 126,204 122.9,204 H 84.35 L 81.5,206.9 78.6,204 H 37.05"
       id="path148" />
    <path
       stroke="none"
       fill="#ece3ce"
       d="M 37.05,204 H 78.6 l 2.9,2.9 2.85,-2.9 h 38.55 q 3.1,0 3.1,3.05 v 10.55 l -3.1,3.15 3.1,3.1 V 279 l -4.1,4.15 4.1,4.1 v 5.7 q 0,3.05 -3.1,3.05 H 50.25 l -2.2,-2.2 -2.2,2.2 h -8.8 Q 34,296 34,292.95 v -10.7 l 2.8,-2.8 -2.8,-2.8 V 271.7 L 35.75,270 34,268.25 v -61.2 Q 34,204 37.05,204"
       id="path149" />
    <path
       stroke="none"
       fill="#d3bf8f"
       d="m 37.05,200 h 85.85 q 3.55,0 5.25,1.85 1.85,1.7 1.85,5.2 v 85.9 q 0,3.5 -1.85,5.2 -1.7,1.85 -5.25,1.85 H 37.05 Q 30,300 30,292.95 v -85.9 Q 30,200 37.05,200 m 0,2 Q 32,202 32,207.05 v 85.9 q 0,5.05 5.05,5.05 h 85.85 q 5.1,0 5.1,-5.05 v -85.9 Q 128,202 122.9,202 H 37.05"
       id="path150" />
  </g>
</svg>
