<?xml version="1.0" encoding="UTF-8" standalone="no"?>
<svg
   version="1.1"
   id="svg248"
   width="9"
   height="18"
   xmlns="http://www.w3.org/2000/svg"
   xmlns:svg="http://www.w3.org/2000/svg">
  <defs
     id="defs1" />
  <g
     id="g251"
     transform="translate(-117,-30)">
    <path
       stroke="none"
       fill="#cd5d12"
       d="m 117,46 h 0.15 0.15 q 2.65,-0.1 4.65,-2.05 Q 124,41.9 124,39 l -0.1,-1 Q 123.65,35.75 122,34.05 L 121.95,34 q -2,-1.9 -4.65,-2 H 117.15 117 v -2 h 0.15 0.15 q 3.45,0.1 6,2.55 l 0.15,0.15 q 2.2,2.3 2.5,5.3 l 0.05,1 q 0,3.7 -2.6,6.35 h -0.05 Q 120.8,47.95 117.3,48 H 117.15 117 v -2"
       id="path1" />
    <path
       stroke="none"
       fill="#fa8132"
       d="m 117,46 v -2 h 0.15 0.15 q 1.85,-0.1 3.25,-1.5 Q 122,41.05 122,39 l -0.1,-1 H 117 v -6 h 0.15 0.15 q 2.65,0.1 4.65,2 l 0.05,0.05 q 1.65,1.7 1.9,3.95 l 0.1,1 q 0,2.9 -2.05,4.95 -2,1.95 -4.65,2.05 H 117.15 117"
       id="path2" />
    <path
       stroke="none"
       fill="#e86a17"
       d="m 117,38 h 4.9 l 0.1,1 q 0,2.05 -1.45,3.5 -1.4,1.4 -3.25,1.5 H 117.15 117 v -6"
       id="path3" />
  </g>
</svg>
