<?xml version="1.0" encoding="UTF-8" standalone="no"?>
<svg
   version="1.1"
   id="svg248"
   sodipodi:docname="uipack_rpg_vector.svg"
   inkscape:version="1.4 (e7c3feb1, 2024-10-09)"
   xmlns:inkscape="http://www.inkscape.org/namespaces/inkscape"
   xmlns:sodipodi="http://sodipodi.sourceforge.net/DTD/sodipodi-0.dtd"
   xmlns="http://www.w3.org/2000/svg"
   xmlns:svg="http://www.w3.org/2000/svg">
  <sodipodi:namedview
     id="namedview248"
     pagecolor="#ffffff"
     bordercolor="#000000"
     borderopacity="0.25"
     inkscape:showpageshadow="2"
     inkscape:pageopacity="0.0"
     inkscape:pagecheckerboard="0"
     inkscape:deskcolor="#d1d1d1"
     inkscape:zoom="0.62225397"
     inkscape:cx="246.68384"
     inkscape:cy="232.22029"
     inkscape:window-width="1920"
     inkscape:window-height="1080"
     inkscape:window-x="0"
     inkscape:window-y="0"
     inkscape:window-maximized="0"
     inkscape:current-layer="svg248" />
  <defs
     id="defs1" />
  <g
     id="g251"
     inkscape:export-filename="red_bar_right.svg"
     inkscape:export-xdpi="96"
     inkscape:export-ydpi="96">
    <path
       stroke="none"
       fill="#cd5d12"
       d="m 117,46 h 0.15 0.15 q 2.65,-0.1 4.65,-2.05 Q 124,41.9 124,39 l -0.1,-1 Q 123.65,35.75 122,34.05 L 121.95,34 q -2,-1.9 -4.65,-2 H 117.15 117 v -2 h 0.15 0.15 q 3.45,0.1 6,2.55 l 0.15,0.15 q 2.2,2.3 2.5,5.3 l 0.05,1 q 0,3.7 -2.6,6.35 h -0.05 Q 120.8,47.95 117.3,48 H 117.15 117 v -2"
       id="path1" />
    <path
       stroke="none"
       fill="#fa8132"
       d="m 117,46 v -2 h 0.15 0.15 q 1.85,-0.1 3.25,-1.5 Q 122,41.05 122,39 l -0.1,-1 H 117 v -6 h 0.15 0.15 q 2.65,0.1 4.65,2 l 0.05,0.05 q 1.65,1.7 1.9,3.95 l 0.1,1 q 0,2.9 -2.05,4.95 -2,1.95 -4.65,2.05 H 117.15 117"
       id="path2" />
    <path
       stroke="none"
       fill="#e86a17"
       d="m 117,38 h 4.9 l 0.1,1 q 0,2.05 -1.45,3.5 -1.4,1.4 -3.25,1.5 H 117.15 117 v -6"
       id="path3" />
  </g>
  <g
     id="g250"
     inkscape:export-filename="red_bar_middle.svg"
     inkscape:export-xdpi="96"
     inkscape:export-ydpi="96">
    <path
       stroke="none"
       fill="#e86a17"
       d="m 69,44 v -6 h 18 v 6 H 69"
       id="path4" />
    <path
       stroke="none"
       fill="#cd5d12"
       d="m 69,32 v -2 h 18 v 2 H 69 m 18,14 v 2 H 69 v -2 h 18"
       id="path5" />
    <path
       stroke="none"
       fill="#fa8132"
       d="M 87,46 H 69 v -2 h 18 v 2 m 0,-8 H 69 v -6 h 18 v 6"
       id="path6" />
  </g>
  <g
     id="g249"
     transform="translate(-7.005781,-1.7828332)"
     inkscape:export-filename="red_bar_left.svg"
     inkscape:export-xdpi="96"
     inkscape:export-ydpi="96">
    <path
       stroke="none"
       fill="#cd5d12"
       d="m 39,46 v 2 H 38.85 38.7 Q 35.2,47.95 32.65,45.35 H 32.6 Q 30,42.7 30,39 l 0.05,-1 q 0.3,-3 2.5,-5.3 L 32.7,32.55 Q 35.25,30.1 38.7,30 H 38.85 39 v 2 H 38.85 38.7 q -2.65,0.1 -4.65,2 L 34,34.05 Q 32.35,35.75 32.1,38 L 32,39 q 0,2.9 2.05,4.95 2,1.95 4.65,2.05 H 38.85 39"
       id="path7" />
    <path
       stroke="none"
       fill="#fa8132"
       d="M 39,46 H 38.85 38.7 Q 36.05,45.9 34.05,43.95 32,41.9 32,39 l 0.1,-1 Q 32.35,35.75 34,34.05 L 34.05,34 q 2,-1.9 4.65,-2 H 38.85 39 v 6 H 34.1 L 34,39 q 0,2.05 1.45,3.5 1.4,1.4 3.25,1.5 H 38.85 39 v 2"
       id="path8" />
    <path
       stroke="none"
       fill="#e86a17"
       d="m 39,38 v 6 H 38.85 38.7 Q 36.85,43.9 35.45,42.5 34,41.05 34,39 l 0.1,-1 H 39"
       id="path9" />
  </g>
  <g
     id="g252"
     inkscape:export-filename="blue_bar_left.svg"
     inkscape:export-xdpi="96"
     inkscape:export-ydpi="96">
    <path
       stroke="none"
       fill="#1989b8"
       d="m 39,86 v 2 H 38.85 38.7 Q 35.2,87.95 32.65,85.35 H 32.6 Q 30,82.7 30,79 l 0.05,-1 q 0.3,-3 2.5,-5.3 L 32.7,72.55 Q 35.25,70.1 38.7,70 H 38.85 39 v 2 H 38.85 38.7 q -2.65,0.1 -4.65,2 L 34,74.05 Q 32.35,75.75 32.1,78 L 32,79 q 0,2.9 2.05,4.95 2,1.95 4.65,2.05 H 38.85 39"
       id="path10" />
    <path
       stroke="none"
       fill="#35baf3"
       d="M 39,86 H 38.85 38.7 Q 36.05,85.9 34.05,83.95 32,81.9 32,79 l 0.1,-1 Q 32.35,75.75 34,74.05 L 34.05,74 q 2,-1.9 4.65,-2 H 38.85 39 v 6 H 34.1 L 34,79 q 0,2.05 1.45,3.5 1.4,1.4 3.25,1.5 H 38.85 39 v 2"
       id="path11" />
    <path
       stroke="none"
       fill="#1ea7e1"
       d="m 39,78 v 6 H 38.85 38.7 Q 36.85,83.9 35.45,82.5 34,81.05 34,79 l 0.1,-1 H 39"
       id="path12" />
  </g>
  <g
     id="g253"
     inkscape:export-filename="blue_bar_middle.svg"
     inkscape:export-xdpi="96"
     inkscape:export-ydpi="96">
    <path
       stroke="none"
       fill="#35baf3"
       d="m 87,72 v 6 H 69 v -6 h 18 m 0,12 v 2 H 69 v -2 h 18"
       id="path13" />
    <path
       stroke="none"
       fill="#1989b8"
       d="M 87,72 H 69 v -2 h 18 v 2 m 0,14 v 2 H 69 v -2 h 18"
       id="path14" />
    <path
       stroke="none"
       fill="#1ea7e1"
       d="m 69,78 h 18 v 6 H 69 v -6"
       id="path15" />
  </g>
  <g
     id="g254"
     inkscape:export-filename="blue_bar_right.svg"
     inkscape:export-xdpi="96"
     inkscape:export-ydpi="96">
    <path
       stroke="none"
       fill="#35baf3"
       d="m 117,84 h 0.15 0.15 q 1.85,-0.1 3.25,-1.5 Q 122,81.05 122,79 l -0.1,-1 H 117 v -6 h 0.15 0.15 q 2.65,0.1 4.65,2 l 0.05,0.05 q 1.65,1.7 1.9,3.95 l 0.1,1 q 0,2.9 -2.05,4.95 -2,1.95 -4.65,2.05 H 117.15 117 v -2"
       id="path16" />
    <path
       stroke="none"
       fill="#1ea7e1"
       d="m 117,84 v -6 h 4.9 l 0.1,1 q 0,2.05 -1.45,3.5 -1.4,1.4 -3.25,1.5 H 117.15 117"
       id="path17" />
    <path
       stroke="none"
       fill="#1989b8"
       d="m 117,86 h 0.15 0.15 q 2.65,-0.1 4.65,-2.05 Q 124,81.9 124,79 l -0.1,-1 Q 123.65,75.75 122,74.05 L 121.95,74 q -2,-1.9 -4.65,-2 H 117.15 117 v -2 h 0.15 0.15 q 3.45,0.1 6,2.55 l 0.15,0.15 q 2.2,2.3 2.5,5.3 l 0.05,1 q 0,3.7 -2.6,6.35 h -0.05 Q 120.8,87.95 117.3,88 H 117.15 117 v -2"
       id="path18" />
  </g>
  <g
     id="g257"
     inkscape:export-filename="../yellow_bar_right.svg"
     inkscape:export-xdpi="96"
     inkscape:export-ydpi="96">
    <path
       stroke="none"
       fill="#cda400"
       d="m 117,126 h 0.15 0.15 q 2.65,-0.1 4.65,-2.05 Q 124,121.9 124,119 l -0.1,-1 q -0.25,-2.25 -1.9,-3.95 L 121.95,114 q -2,-1.9 -4.65,-2 H 117.15 117 v -2 h 0.15 0.15 q 3.45,0.1 6,2.55 l 0.15,0.15 q 2.2,2.3 2.5,5.3 l 0.05,1 q 0,3.7 -2.6,6.35 h -0.05 q -2.55,2.6 -6.05,2.65 H 117.15 117 v -2"
       id="path19" />
    <path
       stroke="none"
       fill="#ffd948"
       d="m 117,126 v -2 h 0.15 0.15 q 1.85,-0.1 3.25,-1.5 1.45,-1.45 1.45,-3.5 l -0.1,-1 H 117 v -6 h 0.15 0.15 q 2.65,0.1 4.65,2 l 0.05,0.05 q 1.65,1.7 1.9,3.95 l 0.1,1 q 0,2.9 -2.05,4.95 -2,1.95 -4.65,2.05 H 117.15 117"
       id="path20" />
    <path
       stroke="none"
       fill="#ffcc00"
       d="m 117,118 h 4.9 l 0.1,1 q 0,2.05 -1.45,3.5 -1.4,1.4 -3.25,1.5 H 117.15 117 v -6"
       id="path21" />
  </g>
  <g
     id="g256"
     inkscape:export-filename="../yellow_bar_middle.svg"
     inkscape:export-xdpi="96"
     inkscape:export-ydpi="96">
    <path
       stroke="none"
       fill="#ffd948"
       d="m 69,112 h 18 v 6 H 69 v -6 m 18,12 v 2 H 69 v -2 h 18"
       id="path22" />
    <path
       stroke="none"
       fill="#ffcc00"
       d="M 87,124 H 69 v -6 h 18 v 6"
       id="path23" />
    <path
       stroke="none"
       fill="#cda400"
       d="m 69,112 v -2 h 18 v 2 H 69 m 18,14 v 2 H 69 v -2 h 18"
       id="path24" />
  </g>
  <g
     id="g255"
     inkscape:export-filename="../Vectoryellow_bar_left.svg"
     inkscape:export-xdpi="96"
     inkscape:export-ydpi="96">
    <path
       stroke="none"
       fill="#cda400"
       d="M 39,112 H 38.85 38.7 q -2.65,0.1 -4.65,2 L 34,114.05 q -1.65,1.7 -1.9,3.95 l -0.1,1 q 0,2.9 2.05,4.95 2,1.95 4.65,2.05 H 38.85 39 v 2 H 38.85 38.7 q -3.5,-0.05 -6.05,-2.65 H 32.6 Q 30,122.7 30,119 l 0.05,-1 q 0.3,-3 2.5,-5.3 l 0.15,-0.15 q 2.55,-2.45 6,-2.55 H 38.85 39 v 2"
       id="path25" />
    <path
       stroke="none"
       fill="#ffd948"
       d="m 39,112 v 6 h -4.9 l -0.1,1 q 0,2.05 1.45,3.5 1.4,1.4 3.25,1.5 H 38.85 39 v 2 H 38.85 38.7 Q 36.05,125.9 34.05,123.95 32,121.9 32,119 l 0.1,-1 q 0.25,-2.25 1.9,-3.95 L 34.05,114 q 2,-1.9 4.65,-2 H 38.85 39"
       id="path26" />
    <path
       stroke="none"
       fill="#ffcc00"
       d="M 39,124 H 38.85 38.7 Q 36.85,123.9 35.45,122.5 34,121.05 34,119 l 0.1,-1 H 39 v 6"
       id="path27" />
  </g>
  <g
     id="g258"
     inkscape:export-filename="../green_bar_left.svg"
     inkscape:export-xdpi="96"
     inkscape:export-ydpi="96">
    <path
       stroke="none"
       fill="#5fb13a"
       d="m 39,166 v 2 H 38.85 38.7 q -3.5,-0.05 -6.05,-2.65 H 32.6 Q 30,162.7 30,159 l 0.05,-1 q 0.3,-3 2.5,-5.3 l 0.15,-0.15 q 2.55,-2.45 6,-2.55 H 38.85 39 v 2 H 38.85 38.7 q -2.65,0.1 -4.65,2 L 34,154.05 q -1.65,1.7 -1.9,3.95 l -0.1,1 q 0,2.9 2.05,4.95 2,1.95 4.65,2.05 H 38.85 39"
       id="path28" />
    <path
       stroke="none"
       fill="#88e060"
       d="M 39,166 H 38.85 38.7 Q 36.05,165.9 34.05,163.95 32,161.9 32,159 l 0.1,-1 q 0.25,-2.25 1.9,-3.95 L 34.05,154 q 2,-1.9 4.65,-2 H 38.85 39 v 6 h -4.9 l -0.1,1 q 0,2.05 1.45,3.5 1.4,1.4 3.25,1.5 H 38.85 39 v 2"
       id="path29" />
    <path
       stroke="none"
       fill="#73cd4b"
       d="m 39,158 v 6 H 38.85 38.7 Q 36.85,163.9 35.45,162.5 34,161.05 34,159 l 0.1,-1 H 39"
       id="path30" />
  </g>
  <g
     id="g259"
     inkscape:export-filename="../green_bar_middle.svg"
     inkscape:export-xdpi="96"
     inkscape:export-ydpi="96">
    <path
       stroke="none"
       fill="#5fb13a"
       d="m 69,152 v -2 h 18 v 2 H 69 m 18,14 v 2 H 69 v -2 h 18"
       id="path31" />
    <path
       stroke="none"
       fill="#73cd4b"
       d="m 87,158 v 6 H 69 v -6 h 18"
       id="path32" />
    <path
       stroke="none"
       fill="#88e060"
       d="M 87,158 H 69 v -6 h 18 v 6 m 0,6 v 2 H 69 v -2 h 18"
       id="path33" />
  </g>
  <g
     id="g260"
     inkscape:export-filename="../green_bar_right.svg"
     inkscape:export-xdpi="96"
     inkscape:export-ydpi="96">
    <path
       stroke="none"
       fill="#88e060"
       d="m 117,152 h 0.15 0.15 q 2.65,0.1 4.65,2 l 0.05,0.05 q 1.65,1.7 1.9,3.95 l 0.1,1 q 0,2.9 -2.05,4.95 -2,1.95 -4.65,2.05 H 117.15 117 v -2 h 0.15 0.15 q 1.85,-0.1 3.25,-1.5 1.45,-1.45 1.45,-3.5 l -0.1,-1 H 117 v -6"
       id="path34" />
    <path
       stroke="none"
       fill="#5fb13a"
       d="m 117,152 v -2 h 0.15 0.15 q 3.45,0.1 6,2.55 l 0.15,0.15 q 2.2,2.3 2.5,5.3 l 0.05,1 q 0,3.7 -2.6,6.35 h -0.05 q -2.55,2.6 -6.05,2.65 H 117.15 117 v -2 h 0.15 0.15 q 2.65,-0.1 4.65,-2.05 Q 124,161.9 124,159 l -0.1,-1 q -0.25,-2.25 -1.9,-3.95 L 121.95,154 q -2,-1.9 -4.65,-2 H 117.15 117"
       id="path35" />
    <path
       stroke="none"
       fill="#73cd4b"
       d="m 117,158 h 4.9 l 0.1,1 q 0,2.05 -1.45,3.5 -1.4,1.4 -3.25,1.5 H 117.15 117 v -6"
       id="path36" />
  </g>
  <g
     id="g269"
     transform="translate(125,-603.40909)"
     inkscape:export-filename="grey_bar_right.svg"
     inkscape:export-xdpi="96"
     inkscape:export-ydpi="96">
    <path
       stroke="none"
       fill="#000000"
       fill-opacity="0.2"
       d="m 77,762 v -2 h 0.15 0.15 q 3.45,0.1 6,2.55 l 0.15,0.15 q 2.2,2.3 2.5,5.3 l 0.05,1 -0.05,1 q -0.3,-3 -2.5,-5.3 L 83.3,764.55 Q 80.75,762.1 77.3,762 H 77.15 77"
       id="path37" />
    <path
       stroke="none"
       fill="#000000"
       fill-opacity="0.101961"
       d="m 77,762 h 0.15 0.15 q 3.45,0.1 6,2.55 l 0.15,0.15 q 2.2,2.3 2.5,5.3 -0.3,3.05 -2.55,5.35 H 83.35 Q 80.8,777.95 77.3,778 H 77.15 77 v -16"
       id="path38" />
  </g>
  <g
     id="g268"
     transform="translate(125,-603.40909)"
     inkscape:export-filename="../grey_bar_middle.svg"
     inkscape:export-xdpi="96"
     inkscape:export-ydpi="96">
    <path
       stroke="none"
       fill="#000000"
       fill-opacity="0.2"
       d="m 49,762 v -2 h 18 v 2 H 49"
       id="path39" />
    <path
       stroke="none"
       fill="#000000"
       fill-opacity="0.101961"
       d="m 49,762 h 18 v 16 H 49 v -16"
       id="path40" />
  </g>
  <g
     id="g267"
     transform="translate(125,-603.40909)"
     inkscape:export-filename="../grey_bar_left.svg"
     inkscape:export-xdpi="96"
     inkscape:export-ydpi="96">
    <path
       stroke="none"
       fill="#000000"
       fill-opacity="0.2"
       d="M 39,762 H 38.85 38.7 q -3.45,0.1 -6,2.55 l -0.15,0.15 q -2.2,2.3 -2.5,5.3 l -0.05,-1 0.05,-1 q 0.3,-3 2.5,-5.3 l 0.15,-0.15 q 2.55,-2.45 6,-2.55 H 38.85 39 v 2"
       id="path41" />
    <path
       stroke="none"
       fill="#000000"
       fill-opacity="0.101961"
       d="m 39,762 v 16 H 38.85 38.7 q -3.5,-0.05 -6.05,-2.65 H 32.6 q -2.25,-2.3 -2.55,-5.35 0.3,-3 2.5,-5.3 l 0.15,-0.15 q 2.55,-2.45 6,-2.55 H 38.85 39"
       id="path42" />
  </g>
  <path
     stroke="none"
     fill="#fa8132"
     d="m 304,118 v 0.15 0.15 q 0.1,1.85 1.5,3.25 1.45,1.45 3.5,1.45 l 1,-0.1 V 118 h 6 v 0.15 0.15 q -0.1,2.65 -2,4.65 l -0.05,0.05 q -1.7,1.65 -3.95,1.9 l -1,0.1 q -2.9,0 -4.95,-2.05 -1.95,-2 -2.05,-4.65 V 118.15 118 h 2"
     id="path43" />
  <path
     stroke="none"
     fill="#e86a17"
     d="m 304,118 h 6 v 4.9 l -1,0.1 q -2.05,0 -3.5,-1.45 -1.4,-1.4 -1.5,-3.25 V 118.15 118"
     id="path44" />
  <path
     stroke="none"
     fill="#cd5d12"
     d="m 302,118 v 0.15 0.15 q 0.1,2.65 2.05,4.65 2.05,2.05 4.95,2.05 l 1,-0.1 q 2.25,-0.25 3.95,-1.9 l 0.05,-0.05 q 1.9,-2 2,-4.65 V 118.15 118 h 2 v 0.15 0.15 q -0.1,3.45 -2.55,6 l -0.15,0.15 q -2.3,2.2 -5.3,2.5 l -1,0.05 q -3.7,0 -6.35,-2.6 v -0.05 Q 300.05,121.8 300,118.3 V 118.15 118 h 2"
     id="path45" />
  <path
     stroke="none"
     fill="#e86a17"
     d="m 304,70 h 6 v 18 h -6 V 70"
     id="path46" />
  <path
     stroke="none"
     fill="#cd5d12"
     d="m 316,70 h 2 v 18 h -2 V 70 m -14,18 h -2 V 70 h 2 v 18"
     id="path47" />
  <path
     stroke="none"
     fill="#fa8132"
     d="M 302,88 V 70 h 2 v 18 h -2 m 8,0 V 70 h 6 v 18 h -6"
     id="path48" />
  <path
     stroke="none"
     fill="#cd5d12"
     d="M 316,40 V 39.85 39.7 q -0.1,-2.65 -2,-4.65 L 313.95,35 Q 312.25,33.35 310,33.1 L 309,33 q -2.9,0 -4.95,2.05 -1.95,2 -2.05,4.65 V 39.85 40 h -2 V 39.85 39.7 q 0.05,-3.5 2.65,-6.05 V 33.6 Q 305.3,31 309,31 l 1,0.05 q 3,0.3 5.3,2.5 l 0.15,0.15 q 2.45,2.55 2.55,6 V 39.85 40 h -2"
     id="path49" />
  <path
     stroke="none"
     fill="#fa8132"
     d="m 316,40 h -6 V 35.1 L 309,35 q -2.05,0 -3.5,1.45 -1.4,1.4 -1.5,3.25 V 39.85 40 h -2 V 39.85 39.7 q 0.1,-2.65 2.05,-4.65 Q 306.1,33 309,33 l 1,0.1 q 2.25,0.25 3.95,1.9 l 0.05,0.05 q 1.9,2 2,4.65 V 39.85 40"
     id="path50" />
  <path
     stroke="none"
     fill="#e86a17"
     d="M 304,40 V 39.85 39.7 q 0.1,-1.85 1.5,-3.25 Q 306.95,35 309,35 l 1,0.1 V 40 h -6"
     id="path51" />
  <path
     stroke="none"
     fill="#1989b8"
     d="M 276,40 V 39.85 39.7 q -0.1,-2.65 -2,-4.65 L 273.95,35 Q 272.25,33.35 270,33.1 L 269,33 q -2.9,0 -4.95,2.05 -1.95,2 -2.05,4.65 V 39.85 40 h -2 V 39.85 39.7 q 0.05,-3.5 2.65,-6.05 V 33.6 Q 265.3,31 269,31 l 1,0.05 q 3,0.3 5.3,2.5 l 0.15,0.15 q 2.45,2.55 2.55,6 V 39.85 40 h -2"
     id="path52" />
  <path
     stroke="none"
     fill="#35baf3"
     d="m 276,40 h -6 V 35.1 L 269,35 q -2.05,0 -3.5,1.45 -1.4,1.4 -1.5,3.25 V 39.85 40 h -2 V 39.85 39.7 q 0.1,-2.65 2.05,-4.65 Q 266.1,33 269,33 l 1,0.1 q 2.25,0.25 3.95,1.9 l 0.05,0.05 q 1.9,2 2,4.65 V 39.85 40"
     id="path53" />
  <path
     stroke="none"
     fill="#1ea7e1"
     d="M 264,40 V 39.85 39.7 q 0.1,-1.85 1.5,-3.25 Q 266.95,35 269,35 l 1,0.1 V 40 h -6"
     id="path54" />
  <path
     stroke="none"
     fill="#1989b8"
     d="m 276,70 h 2 v 18 h -2 V 70 m -14,18 h -2 V 70 h 2 v 18"
     id="path55" />
  <path
     stroke="none"
     fill="#1ea7e1"
     d="m 270,88 h -6 V 70 h 6 v 18"
     id="path56" />
  <path
     stroke="none"
     fill="#35baf3"
     d="M 270,88 V 70 h 6 v 18 h -6 m -6,0 h -2 V 70 h 2 v 18"
     id="path57" />
  <path
     stroke="none"
     fill="#1989b8"
     d="m 276,118 h 2 v 0.15 0.15 q -0.1,3.45 -2.55,6 l -0.15,0.15 q -2.3,2.2 -5.3,2.5 l -1,0.05 q -3.7,0 -6.35,-2.6 v -0.05 Q 260.05,121.8 260,118.3 V 118.15 118 h 2 v 0.15 0.15 q 0.1,2.65 2.05,4.65 2.05,2.05 4.95,2.05 l 1,-0.1 q 2.25,-0.25 3.95,-1.9 l 0.05,-0.05 q 1.9,-2 2,-4.65 V 118.15 118"
     id="path58" />
  <path
     stroke="none"
     fill="#35baf3"
     d="m 276,118 v 0.15 0.15 q -0.1,2.65 -2,4.65 l -0.05,0.05 q -1.7,1.65 -3.95,1.9 l -1,0.1 q -2.9,0 -4.95,-2.05 -1.95,-2 -2.05,-4.65 V 118.15 118 h 2 v 0.15 0.15 q 0.1,1.85 1.5,3.25 1.45,1.45 3.5,1.45 l 1,-0.1 V 118 h 6"
     id="path59" />
  <path
     stroke="none"
     fill="#1ea7e1"
     d="m 264,118 h 6 v 4.9 l -1,0.1 q -2.05,0 -3.5,-1.45 -1.4,-1.4 -1.5,-3.25 V 118.15 118"
     id="path60" />
  <path
     stroke="none"
     fill="#ffd948"
     d="m 214,118 v 0.15 0.15 q 0.1,1.85 1.5,3.25 1.45,1.45 3.5,1.45 l 1,-0.1 V 118 h 6 v 0.15 0.15 q -0.1,2.65 -2,4.65 l -0.05,0.05 q -1.7,1.65 -3.95,1.9 l -1,0.1 q -2.9,0 -4.95,-2.05 -1.95,-2 -2.05,-4.65 V 118.15 118 h 2"
     id="path61" />
  <path
     stroke="none"
     fill="#ffcc00"
     d="m 214,118 h 6 v 4.9 l -1,0.1 q -2.05,0 -3.5,-1.45 -1.4,-1.4 -1.5,-3.25 V 118.15 118"
     id="path62" />
  <path
     stroke="none"
     fill="#cda400"
     d="m 212,118 v 0.15 0.15 q 0.1,2.65 2.05,4.65 2.05,2.05 4.95,2.05 l 1,-0.1 q 2.25,-0.25 3.95,-1.9 l 0.05,-0.05 q 1.9,-2 2,-4.65 V 118.15 118 h 2 v 0.15 0.15 q -0.1,3.45 -2.55,6 l -0.15,0.15 q -2.3,2.2 -5.3,2.5 l -1,0.05 q -3.7,0 -6.35,-2.6 v -0.05 Q 210.05,121.8 210,118.3 V 118.15 118 h 2"
     id="path63" />
  <path
     stroke="none"
     fill="#cda400"
     d="M 226,88 V 70 h 2 v 18 h -2 M 212,70 v 18 h -2 V 70 h 2"
     id="path64" />
  <path
     stroke="none"
     fill="#ffd948"
     d="m 212,70 h 2 v 18 h -2 V 70 m 14,0 v 18 h -6 V 70 h 6"
     id="path65" />
  <path
     stroke="none"
     fill="#ffcc00"
     d="m 220,70 v 18 h -6 V 70 h 6"
     id="path66" />
  <path
     stroke="none"
     fill="#ffcc00"
     d="m 220,40 h -6 V 39.85 39.7 q 0.1,-1.85 1.5,-3.25 Q 216.95,35 219,35 l 1,0.1 V 40"
     id="path67" />
  <path
     stroke="none"
     fill="#ffd948"
     d="M 220,40 V 35.1 L 219,35 q -2.05,0 -3.5,1.45 -1.4,1.4 -1.5,3.25 V 39.85 40 h -2 V 39.85 39.7 q 0.1,-2.65 2.05,-4.65 Q 216.1,33 219,33 l 1,0.1 q 2.25,0.25 3.95,1.9 l 0.05,0.05 q 1.9,2 2,4.65 V 39.85 40 h -6"
     id="path68" />
  <path
     stroke="none"
     fill="#cda400"
     d="m 212,40 h -2 V 39.85 39.7 q 0.05,-3.5 2.65,-6.05 V 33.6 Q 215.3,31 219,31 l 1,0.05 q 3,0.3 5.3,2.5 l 0.15,0.15 q 2.45,2.55 2.55,6 V 39.85 40 h -2 V 39.85 39.7 q -0.1,-2.65 -2,-4.65 L 223.95,35 Q 222.25,33.35 220,33.1 L 219,33 q -2.9,0 -4.95,2.05 -1.95,2 -2.05,4.65 V 39.85 40"
     id="path69" />
  <path
     stroke="none"
     fill="#5fb13a"
     d="m 152,40 h -2 V 39.85 39.7 q 0.05,-3.5 2.65,-6.05 V 33.6 Q 155.3,31 159,31 l 1,0.05 q 3,0.3 5.3,2.5 l 0.15,0.15 q 2.45,2.55 2.55,6 V 39.85 40 h -2 V 39.85 39.7 q -0.1,-2.65 -2,-4.65 L 163.95,35 Q 162.25,33.35 160,33.1 L 159,33 q -2.9,0 -4.95,2.05 -1.95,2 -2.05,4.65 V 39.85 40"
     id="path70" />
  <path
     stroke="none"
     fill="#88e060"
     d="M 152,40 V 39.85 39.7 q 0.1,-2.65 2.05,-4.65 Q 156.1,33 159,33 l 1,0.1 q 2.25,0.25 3.95,1.9 l 0.05,0.05 q 1.9,2 2,4.65 V 39.85 40 h -6 V 35.1 L 159,35 q -2.05,0 -3.5,1.45 -1.4,1.4 -1.5,3.25 V 39.85 40 h -2"
     id="path71" />
  <path
     stroke="none"
     fill="#73cd4b"
     d="m 160,40 h -6 V 39.85 39.7 q 0.1,-1.85 1.5,-3.25 Q 156.95,35 159,35 l 1,0.1 V 40"
     id="path72" />
  <path
     stroke="none"
     fill="#5fb13a"
     d="m 166,70 h 2 v 18 h -2 V 70 m -14,18 h -2 V 70 h 2 v 18"
     id="path73" />
  <path
     stroke="none"
     fill="#73cd4b"
     d="m 160,88 h -6 V 70 h 6 v 18"
     id="path74" />
  <path
     stroke="none"
     fill="#88e060"
     d="M 160,88 V 70 h 6 v 18 h -6 m -6,0 h -2 V 70 h 2 v 18"
     id="path75" />
  <path
     stroke="none"
     fill="#5fb13a"
     d="m 166,118 h 2 v 0.15 0.15 q -0.1,3.45 -2.55,6 l -0.15,0.15 q -2.3,2.2 -5.3,2.5 l -1,0.05 q -3.7,0 -6.35,-2.6 v -0.05 Q 150.05,121.8 150,118.3 V 118.15 118 h 2 v 0.15 0.15 q 0.1,2.65 2.05,4.65 2.05,2.05 4.95,2.05 l 1,-0.1 q 2.25,-0.25 3.95,-1.9 l 0.05,-0.05 q 1.9,-2 2,-4.65 V 118.15 118"
     id="path76" />
  <path
     stroke="none"
     fill="#88e060"
     d="m 166,118 v 0.15 0.15 q -0.1,2.65 -2,4.65 l -0.05,0.05 q -1.7,1.65 -3.95,1.9 l -1,0.1 q -2.9,0 -4.95,-2.05 -1.95,-2 -2.05,-4.65 V 118.15 118 h 2 v 0.15 0.15 q 0.1,1.85 1.5,3.25 1.45,1.45 3.5,1.45 l 1,-0.1 V 118 h 6"
     id="path77" />
  <path
     stroke="none"
     fill="#73cd4b"
     d="m 154,118 h 6 v 4.9 l -1,0.1 q -2.05,0 -3.5,-1.45 -1.4,-1.4 -1.5,-3.25 V 118.15 118"
     id="path78" />
  <path
     stroke="none"
     fill="#000000"
     fill-opacity="0.2"
     d="M 218.2,650 H 218 v -0.15 -0.15 q 0.05,-3.5 2.65,-6.05 v -0.05 q 2.3,-2.25 5.35,-2.55 l 1,-0.05 1,0.05 q 3,0.3 5.3,2.5 l 0.15,0.15 q 2.45,2.55 2.55,6 v 0.15 0.15 h -0.2 q -0.5,-2.4 -2.35,-4.3 l -0.15,-0.15 q -2.3,-2.2 -5.3,-2.5 l -1,-0.05 -1,0.05 q -3.05,0.3 -5.35,2.55 v 0.05 q -1.95,1.9 -2.45,4.35"
     id="path79" />
  <path
     stroke="none"
     fill="#000000"
     fill-opacity="0.101961"
     d="m 218.2,650 q 0.5,-2.45 2.45,-4.35 v -0.05 q 2.3,-2.25 5.35,-2.55 l 1,-0.05 1,0.05 q 3,0.3 5.3,2.5 l 0.15,0.15 q 1.85,1.9 2.35,4.3 h -17.6"
     id="path80" />
  <path
     stroke="none"
     fill="#000000"
     fill-opacity="0.101961"
     d="m 218,660 h 18 v 18 h -18 v -18"
     id="path81" />
  <path
     stroke="none"
     fill="#000000"
     fill-opacity="0.101961"
     d="m 236,688.15 v 0.15 q -0.1,3.45 -2.55,6 l -0.15,0.15 q -2.3,2.2 -5.3,2.5 l -1,0.05 -1,-0.05 q -3.05,-0.3 -5.35,-2.55 v -0.05 Q 218.05,691.8 218,688.3 V 688.15 688 h 18 v 0.15"
     id="path82" />
  <g
     id="g278"
     inkscape:export-filename="grey_button.svg"
     inkscape:export-xdpi="96"
     inkscape:export-ydpi="96">
    <path
       stroke="none"
       fill="#727685"
       d="M 575.95,36.05 576,37 v 33 q 0,4 -4,4 H 394 q -4,0 -4,-4 V 37 l 0.1,-0.95 Q 390.5,33 394,33 h 178 q 3.5,0 3.95,3.05 M 574,37 573.95,36.3 574,36.35 Q 573.65,35 572,35 H 430.5 l -2.8,2.8 -2.8,-2.8 h -9.35 L 413.3,37.25 411.05,35 H 394 q -1.65,0 -1.9,1.3 L 392.05,36.5 392,37 v 23.9 l 2.75,2.75 L 392,66.4 V 70 q 0,2 2,2 h 91.9 l 2.75,-2.75 2.75,2.75 h 42.55 l 1.55,-1.55 1.55,1.55 H 572 q 2,0 2,-2 V 47.1 l -2.4,-2.4 2.4,-2.4 V 37"
       id="path83" />
    <path
       stroke="none"
       fill="#9b9dad"
       d="M 575.95,36.05 Q 575.5,33 572,33 H 394 q -3.5,0 -3.9,3.05 L 390,37 v 33 q 0,4 4,4 h 178 q 4,0 4,-4 V 37 l -0.05,-0.95 M 388,70.25 V 37 q 0,-6 6,-6 h 178 q 6,0 6,6 V 70.25 Q 577.85,76 572,76 H 394 q -5.85,0 -6,-5.75"
       id="path84" />
    <path
       stroke="none"
       fill="#838796"
       d="m 574,37 v 5.3 l -2.4,2.4 2.4,2.4 V 70 q 0,2 -2,2 H 537.05 L 535.5,70.45 533.95,72 H 491.4 L 488.65,69.25 485.9,72 H 394 q -2,0 -2,-2 V 66.4 L 394.75,63.65 392,60.9 V 37 l 0.05,-0.5 0.05,-0.2 Q 392.35,35 394,35 h 17.05 l 2.25,2.25 2.25,-2.25 h 9.35 l 2.8,2.8 2.8,-2.8 H 572 q 1.65,0 2,1.35 L 573.95,36.3 574,37"
       id="path85" />
    <path
       stroke="none"
       fill="#616374"
       d="M 578,70.25 V 74 q 0,6 -6,6 H 394 q -6,0 -6,-6 v -3.75 q 0.15,5.75 6,5.75 h 178 q 5.85,0 6,-5.75"
       id="path86" />
  </g>
  <g
     id="g277"
     inkscape:export-filename="brown_long_button.svg"
     inkscape:export-xdpi="96"
     inkscape:export-ydpi="96">
    <path
       stroke="none"
       fill="#97714a"
       d="M 574,96.35 573.95,96.3 574,97 v 5.3 l -2.4,2.4 2.4,2.4 V 130 q 0,2 -2,2 h -34.95 l -1.55,-1.55 -1.55,1.55 H 491.4 l -2.75,-2.75 -2.75,2.75 H 394 q -2,0 -2,-2 v -3.6 l 2.75,-2.75 L 392,120.9 V 97 l 0.05,-0.5 0.05,-0.2 Q 392.35,95 394,95 h 17.05 l 2.25,2.25 2.25,-2.25 h 9.35 l 2.8,2.8 2.8,-2.8 H 572 q 1.65,0 2,1.35"
       id="path87" />
    <path
       stroke="none"
       fill="#b7916a"
       d="M 574,96.35 Q 573.65,95 572,95 H 430.5 l -2.8,2.8 -2.8,-2.8 h -9.35 L 413.3,97.25 411.05,95 H 394 q -1.65,0 -1.9,1.3 L 392.05,96.5 392,97 v 23.9 l 2.75,2.75 -2.75,2.75 v 3.6 q 0,2 2,2 h 91.9 l 2.75,-2.75 2.75,2.75 h 42.55 l 1.55,-1.55 1.55,1.55 H 572 q 2,0 2,-2 v -22.9 l -2.4,-2.4 2.4,-2.4 V 97 l -0.05,-0.7 0.05,0.05 m 1.95,-0.3 L 576,97 v 33 q 0,4 -4,4 H 394 q -4,0 -4,-4 V 97 l 0.1,-0.95 Q 390.5,93 394,93 h 178 q 3.5,0 3.95,3.05"
       id="path88" />
    <path
       stroke="none"
       fill="#886644"
       d="M 575.95,96.05 Q 575.5,93 572,93 H 394 q -3.5,0 -3.9,3.05 L 390,97 v 33 q 0,4 4,4 h 178 q 4,0 4,-4 V 97 l -0.05,-0.95 M 388,130.25 V 97 q 0,-6 6,-6 h 178 q 6,0 6,6 v 33.25 Q 577.85,136 572,136 H 394 q -5.85,0 -6,-5.75"
       id="path89" />
    <path
       stroke="none"
       fill="#6d543a"
       d="m 388,130.25 q 0.15,5.75 6,5.75 h 178 q 5.85,0 6,-5.75 V 134 q 0,6 -6,6 H 394 q -6,0 -6,-6 v -3.75"
       id="path90" />
  </g>
  <g
     id="g276"
     inkscape:export-filename="biege_long_button.svg"
     inkscape:export-xdpi="96"
     inkscape:export-ydpi="96">
    <path
       stroke="none"
       fill="#d3bf8f"
       d="m 491.4,192 -2.75,-2.75 -2.75,2.75 H 394 q -2,0 -2,-2 v -3.6 l 2.75,-2.75 L 392,180.9 V 157 l 0.05,-0.5 0.05,-0.2 q 0.25,-1.3 1.9,-1.3 h 17.05 l 2.25,2.25 2.25,-2.25 h 9.35 l 2.8,2.8 2.8,-2.8 H 572 q 1.65,0 2,1.35 l -0.05,-0.05 0.05,0.7 v 5.3 l -2.4,2.4 2.4,2.4 V 190 q 0,2 -2,2 h -34.95 l -1.55,-1.55 -1.55,1.55 H 491.4"
       id="path91" />
    <path
       stroke="none"
       fill="#b1a077"
       d="m 491.4,192 h 42.55 l 1.55,-1.55 1.55,1.55 H 572 q 2,0 2,-2 v -22.9 l -2.4,-2.4 2.4,-2.4 V 157 l -0.05,-0.7 0.05,0.05 Q 573.65,155 572,155 H 430.5 l -2.8,2.8 -2.8,-2.8 h -9.35 l -2.25,2.25 -2.25,-2.25 H 394 q -1.65,0 -1.9,1.3 l -0.05,0.2 -0.05,0.5 v 23.9 l 2.75,2.75 -2.75,2.75 v 3.6 q 0,2 2,2 h 91.9 l 2.75,-2.75 2.75,2.75 M 575.95,156.05 576,157 v 33 q 0,4 -4,4 H 394 q -4,0 -4,-4 v -33 l 0.1,-0.95 Q 390.5,153 394,153 h 178 q 3.5,0 3.95,3.05"
       id="path92" />
    <path
       stroke="none"
       fill="#a3997f"
       d="M 578,190.25 V 194 q 0,6 -6,6 H 394 q -6,0 -6,-6 v -3.75 q 0.15,5.75 6,5.75 h 178 q 5.85,0 6,-5.75"
       id="path93" />
    <path
       stroke="none"
       fill="#d9cdaf"
       d="M 578,190.25 Q 577.85,196 572,196 H 394 q -5.85,0 -6,-5.75 V 157 q 0,-6 6,-6 h 178 q 6,0 6,6 v 33.25 m -2.05,-34.2 Q 575.5,153 572,153 H 394 q -3.5,0 -3.9,3.05 L 390,157 v 33 q 0,4 4,4 h 178 q 4,0 4,-4 v -33 l -0.05,-0.95"
       id="path94" />
  </g>
  <g
     id="g275"
     inkscape:export-filename="white_long_button.svg"
     inkscape:export-xdpi="96"
     inkscape:export-ydpi="96">
    <path
       stroke="none"
       fill="#cbcbcb"
       d="M 575.95,216.05 576,217 v 33 q 0,4 -4,4 H 394 q -4,0 -4,-4 v -33 l 0.1,-0.95 Q 390.5,213 394,213 h 178 q 3.5,0 3.95,3.05 m -1.95,0.3 Q 573.65,215 572,215 H 430.5 l -2.8,2.8 -2.8,-2.8 h -9.35 l -2.25,2.25 -2.25,-2.25 H 394 q -1.65,0 -1.9,1.3 l -0.05,0.2 -0.05,0.5 v 23.9 l 2.75,2.75 -2.75,2.75 v 3.6 q 0,2 2,2 h 91.9 l 2.75,-2.75 2.75,2.75 h 42.55 l 1.55,-1.55 1.55,1.55 H 572 q 2,0 2,-2 v -22.9 l -2.4,-2.4 2.4,-2.4 V 217 l -0.05,-0.7 0.05,0.05"
       id="path95" />
    <path
       stroke="none"
       fill="#e9e9e9"
       d="M 575.95,216.05 Q 575.5,213 572,213 H 394 q -3.5,0 -3.9,3.05 L 390,217 v 33 q 0,4 4,4 h 178 q 4,0 4,-4 v -33 l -0.05,-0.95 M 388,250.25 V 217 q 0,-6 6,-6 h 178 q 6,0 6,6 v 33.25 Q 577.85,256 572,256 H 394 q -5.85,0 -6,-5.75"
       id="path96" />
    <path
       stroke="none"
       fill="#e5e5e5"
       d="m 574,216.35 -0.05,-0.05 0.05,0.7 v 5.3 l -2.4,2.4 2.4,2.4 V 250 q 0,2 -2,2 h -34.95 l -1.55,-1.55 -1.55,1.55 H 491.4 l -2.75,-2.75 -2.75,2.75 H 394 q -2,0 -2,-2 v -3.6 l 2.75,-2.75 L 392,240.9 V 217 l 0.05,-0.5 0.05,-0.2 q 0.25,-1.3 1.9,-1.3 h 17.05 l 2.25,2.25 2.25,-2.25 h 9.35 l 2.8,2.8 2.8,-2.8 H 572 q 1.65,0 2,1.35"
       id="path97" />
    <path
       stroke="none"
       fill="#c2c2c2"
       d="M 578,250.25 V 254 q 0,6 -6,6 H 394 q -6,0 -6,-6 v -3.75 q 0.15,5.75 6,5.75 h 178 q 5.85,0 6,-5.75"
       id="path98" />
  </g>
  <path
     stroke="none"
     fill="#9b9dad"
     d="M 850.95,36.05 Q 850.5,33 847,33 h -33 q -3.5,0 -3.9,3.05 L 810,37 v 33 q 0,4 4,4 h 33 q 4,0 4,-4 V 37 l -0.05,-0.95 M 808,70.25 V 37 q 0,-6 6,-6 h 33 q 6,0 6,6 V 70.25 Q 852.85,76 847,76 h -33 q -5.85,0 -6,-5.75"
     id="path101" />
  <g
     id="g288"
     inkscape:export-filename="grey_button.svg"
     inkscape:export-xdpi="96"
     inkscape:export-ydpi="96">
    <path
       stroke="none"
       fill="#838796"
       d="M 849,36.35 848.95,36.3 849,37 v 5.3 l -2.4,2.4 2.4,2.4 V 70 q 0,2 -2,2 h -33 q -2,0 -2,-2 V 66.4 L 814.75,63.65 812,60.9 V 37 l 0.05,-0.5 0.05,-0.2 Q 812.35,35 814,35 h 33 q 1.65,0 2,1.35"
       id="path99" />
    <path
       stroke="none"
       fill="#727685"
       d="M 849,36.35 Q 848.65,35 847,35 h -33 q -1.65,0 -1.9,1.3 L 812.05,36.5 812,37 v 23.9 l 2.75,2.75 L 812,66.4 V 70 q 0,2 2,2 h 33 q 2,0 2,-2 V 47.1 l -2.4,-2.4 2.4,-2.4 V 37 l -0.05,-0.7 0.05,0.05 m 1.95,-0.3 L 851,37 v 33 q 0,4 -4,4 h -33 q -4,0 -4,-4 V 37 l 0.1,-0.95 Q 810.5,33 814,33 h 33 q 3.5,0 3.95,3.05"
       id="path100" />
    <path
       stroke="none"
       fill="#616374"
       d="m 808,70.25 q 0.15,5.75 6,5.75 h 33 q 5.85,0 6,-5.75 V 74 q 0,6 -6,6 h -33 q -6,0 -6,-6 v -3.75"
       id="path102" />
  </g>
  <g
     id="g287"
     inkscape:export-filename="brown_button.svg"
     inkscape:export-xdpi="96"
     inkscape:export-ydpi="96">
    <path
       stroke="none"
       fill="#97714a"
       d="m 812.05,96.5 0.05,-0.2 Q 812.35,95 814,95 h 33 q 1.65,0 2,1.35 L 848.95,96.3 849,97 v 5.3 l -2.4,2.4 2.4,2.4 V 130 q 0,2 -2,2 h -33 q -2,0 -2,-2 v -3.6 l 2.75,-2.75 L 812,120.9 V 97 l 0.05,-0.5"
       id="path103" />
    <path
       stroke="none"
       fill="#b7916a"
       d="M 812.05,96.5 812,97 v 23.9 l 2.75,2.75 -2.75,2.75 v 3.6 q 0,2 2,2 h 33 q 2,0 2,-2 v -22.9 l -2.4,-2.4 2.4,-2.4 V 97 l -0.05,-0.7 0.05,0.05 Q 848.65,95 847,95 h -33 q -1.65,0 -1.9,1.3 l -0.05,0.2 M 810,97 810.1,96.05 Q 810.5,93 814,93 h 33 q 3.5,0 3.95,3.05 L 851,97 v 33 q 0,4 -4,4 h -33 q -4,0 -4,-4 V 97"
       id="path104" />
    <path
       stroke="none"
       fill="#886644"
       d="m 810,97 v 33 q 0,4 4,4 h 33 q 4,0 4,-4 V 97 l -0.05,-0.95 Q 850.5,93 847,93 h -33 q -3.5,0 -3.9,3.05 L 810,97 m -2,33.25 V 97 q 0,-6 6,-6 h 33 q 6,0 6,6 v 33.25 q -0.15,5.75 -6,5.75 h -33 q -5.85,0 -6,-5.75"
       id="path105" />
    <path
       stroke="none"
       fill="#6d543a"
       d="m 808,130.25 q 0.15,5.75 6,5.75 h 33 q 5.85,0 6,-5.75 V 134 q 0,6 -6,6 h -33 q -6,0 -6,-6 v -3.75"
       id="path106" />
  </g>
  <g
     id="g286"
     inkscape:export-filename="biege_button.svg"
     inkscape:export-xdpi="96"
     inkscape:export-ydpi="96">
    <path
       stroke="none"
       fill="#d9cdaf"
       d="M 808,190.25 V 157 q 0,-6 6,-6 h 33 q 6,0 6,6 v 33.25 q -0.15,5.75 -6,5.75 h -33 q -5.85,0 -6,-5.75 m 2.1,-34.2 -0.1,0.95 v 33 q 0,4 4,4 h 33 q 4,0 4,-4 v -33 l -0.05,-0.95 Q 850.5,153 847,153 h -33 q -3.5,0 -3.9,3.05"
       id="path107" />
    <path
       stroke="none"
       fill="#b1a077"
       d="M 810.1,156.05 Q 810.5,153 814,153 h 33 q 3.5,0 3.95,3.05 L 851,157 v 33 q 0,4 -4,4 h -33 q -4,0 -4,-4 v -33 l 0.1,-0.95 m 2,0.25 -0.05,0.2 -0.05,0.5 v 23.9 l 2.75,2.75 -2.75,2.75 v 3.6 q 0,2 2,2 h 33 q 2,0 2,-2 v -22.9 l -2.4,-2.4 2.4,-2.4 V 157 l -0.05,-0.7 0.05,0.05 Q 848.65,155 847,155 h -33 q -1.65,0 -1.9,1.3"
       id="path108" />
    <path
       stroke="none"
       fill="#d3bf8f"
       d="m 812.1,156.3 q 0.25,-1.3 1.9,-1.3 h 33 q 1.65,0 2,1.35 l -0.05,-0.05 0.05,0.7 v 5.3 l -2.4,2.4 2.4,2.4 V 190 q 0,2 -2,2 h -33 q -2,0 -2,-2 v -3.6 l 2.75,-2.75 L 812,180.9 V 157 l 0.05,-0.5 0.05,-0.2"
       id="path109" />
    <path
       stroke="none"
       fill="#a3997f"
       d="M 853,190.25 V 194 q 0,6 -6,6 h -33 q -6,0 -6,-6 v -3.75 q 0.15,5.75 6,5.75 h 33 q 5.85,0 6,-5.75"
       id="path110" />
  </g>
  <g
     id="g283"
     inkscape:export-filename="white_button.svg"
     inkscape:export-xdpi="96"
     inkscape:export-ydpi="96">
    <path
       stroke="none"
       fill="#e9e9e9"
       d="M 808,250.25 V 217 q 0,-6 6,-6 h 33 q 6,0 6,6 v 33.25 q -0.15,5.75 -6,5.75 h -33 q -5.85,0 -6,-5.75 m 42.95,-34.2 Q 850.5,213 847,213 h -33 q -3.5,0 -3.9,3.05 L 810,217 v 33 q 0,4 4,4 h 33 q 4,0 4,-4 v -33 l -0.05,-0.95"
       id="path111" />
    <path
       stroke="none"
       fill="#e5e5e5"
       d="m 849,217 v 5.3 l -2.4,2.4 2.4,2.4 V 250 q 0,2 -2,2 h -33 q -2,0 -2,-2 v -3.6 l 2.75,-2.75 L 812,240.9 V 217 l 0.05,-0.5 0.05,-0.2 q 0.25,-1.3 1.9,-1.3 h 33 q 1.65,0 2,1.35 l -0.05,-0.05 0.05,0.7"
       id="path112" />
    <path
       stroke="none"
       fill="#cbcbcb"
       d="m 849,217 -0.05,-0.7 0.05,0.05 Q 848.65,215 847,215 h -33 q -1.65,0 -1.9,1.3 l -0.05,0.2 -0.05,0.5 v 23.9 l 2.75,2.75 -2.75,2.75 v 3.6 q 0,2 2,2 h 33 q 2,0 2,-2 v -22.9 l -2.4,-2.4 2.4,-2.4 V 217 m 1.95,-0.95 0.05,0.95 v 33 q 0,4 -4,4 h -33 q -4,0 -4,-4 v -33 l 0.1,-0.95 Q 810.5,213 814,213 h 33 q 3.5,0 3.95,3.05"
       id="path113" />
    <path
       stroke="none"
       fill="#c2c2c2"
       d="M 853,250.25 V 254 q 0,6 -6,6 h -33 q -6,0 -6,-6 v -3.75 q 0.15,5.75 6,5.75 h 33 q 5.85,0 6,-5.75"
       id="path114" />
  </g>
  <g
     id="g279"
     inkscape:export-filename="grey_long_button_pressed.svg"
     inkscape:export-xdpi="96"
     inkscape:export-ydpi="96">
    <path
       stroke="none"
       fill="#838796"
       d="M 784,40.35 783.95,40.3 784,41 v 5.3 l -2.4,2.4 2.4,2.4 V 74 q 0,1.95 -1.85,2 h -35.1 L 745.5,74.45 743.95,76 H 701.4 L 698.65,73.25 695.9,76 h -92 Q 602,75.95 602,74 V 70.4 L 604.75,67.65 602,64.9 V 41 l 0.05,-0.5 0.05,-0.2 Q 602.35,39 604,39 h 17.05 l 2.25,2.25 2.25,-2.25 h 9.35 l 2.8,2.8 2.8,-2.8 H 782 q 1.65,0 2,1.35"
       id="path115" />
    <path
       stroke="none"
       fill="#727685"
       d="M 784,40.35 Q 783.65,39 782,39 H 640.5 l -2.8,2.8 -2.8,-2.8 h -9.35 L 623.3,41.25 621.05,39 H 604 q -1.65,0 -1.9,1.3 L 602.05,40.5 602,41 v 23.9 l 2.75,2.75 L 602,70.4 V 74 q 0,1.95 1.9,2 h 92 l 2.75,-2.75 2.75,2.75 h 42.55 l 1.55,-1.55 1.55,1.55 h 35.1 Q 784,75.95 784,74 V 51.1 l -2.4,-2.4 2.4,-2.4 V 41 l -0.05,-0.7 0.05,0.05 M 782,37 q 3.5,0 3.95,3.05 L 786,41 v 33 l -0.05,1 Q 785.5,78 782,78 H 604 q -3.5,0 -3.9,-3 L 600,74 V 41 l 0.1,-0.95 Q 600.5,37 604,37 h 178"
       id="path116" />
    <path
       stroke="none"
       fill="#9b9dad"
       d="M 782,37 H 604 q -3.5,0 -3.9,3.05 L 600,41 v 33 l 0.1,1 q 0.4,3 3.9,3 h 178 q 3.5,0 3.95,-3 L 786,74 V 41 l -0.05,-0.95 Q 785.5,37 782,37 m 6,4 v 33 0.25 Q 787.85,80 782,80 h -178 -0.25 -0.15 -0.2 -0.1 -0.1 -0.1 q -4.7,-0.4 -5.05,-5.15 L 598,74.25 V 74 41 q 0,-6 6,-6 h 178 q 6,0 6,6"
       id="path117" />
  </g>
  <g
     id="g280"
     inkscape:export-filename="brown_long_button_pressed.svg"
     inkscape:export-xdpi="96"
     inkscape:export-ydpi="96">
    <path
       stroke="none"
       fill="#97714a"
       d="m 784,101 v 5.3 l -2.4,2.4 2.4,2.4 V 134 q 0,1.95 -1.85,2 h -35.1 l -1.55,-1.55 -1.55,1.55 H 701.4 l -2.75,-2.75 -2.75,2.75 h -92 q -1.9,-0.05 -1.9,-2 v -3.6 l 2.75,-2.75 L 602,124.9 V 101 l 0.05,-0.5 0.05,-0.2 Q 602.35,99 604,99 h 17.05 l 2.25,2.25 2.25,-2.25 h 9.35 l 2.8,2.8 2.8,-2.8 H 782 q 1.65,0 2,1.35 l -0.05,-0.05 0.05,0.7"
       id="path118" />
    <path
       stroke="none"
       fill="#b7916a"
       d="m 784,101 -0.05,-0.7 0.05,0.05 Q 783.65,99 782,99 H 640.5 l -2.8,2.8 -2.8,-2.8 h -9.35 L 623.3,101.25 621.05,99 H 604 q -1.65,0 -1.9,1.3 l -0.05,0.2 -0.05,0.5 v 23.9 l 2.75,2.75 -2.75,2.75 v 3.6 q 0,1.95 1.9,2 h 92 l 2.75,-2.75 2.75,2.75 h 42.55 l 1.55,-1.55 1.55,1.55 h 35.1 q 1.85,-0.05 1.85,-2 v -22.9 l -2.4,-2.4 2.4,-2.4 V 101 m 1.95,-0.95 0.05,0.95 v 33 l -0.05,1 q -0.45,3 -3.95,3 H 604 q -3.5,0 -3.9,-3 l -0.1,-1 v -33 l 0.1,-0.95 Q 600.5,97 604,97 h 178 q 3.5,0 3.95,3.05"
       id="path119" />
    <path
       stroke="none"
       fill="#886644"
       d="M 785.95,100.05 Q 785.5,97 782,97 H 604 q -3.5,0 -3.9,3.05 L 600,101 v 33 l 0.1,1 q 0.4,3 3.9,3 h 178 q 3.5,0 3.95,-3 l 0.05,-1 v -33 l -0.05,-0.95 m 2.05,34.2 q -0.15,5.75 -6,5.75 h -178 -0.25 -0.15 -0.2 -0.1 -0.1 -0.1 q -4.7,-0.4 -5.05,-5.15 L 598,134.25 V 101 q 0,-6 6,-6 h 178 q 6,0 6,6 v 33 0.25"
       id="path120" />
  </g>
  <g
     id="g281"
     inkscape:export-filename="biege_long_button_pressed.svg"
     inkscape:export-xdpi="96"
     inkscape:export-ydpi="96">
    <path
       stroke="none"
       fill="#d3bf8f"
       d="m 784,160.35 -0.05,-0.05 0.05,0.7 v 5.3 l -2.4,2.4 2.4,2.4 V 194 q 0,1.95 -1.85,2 h -35.1 l -1.55,-1.55 -1.55,1.55 H 701.4 l -2.75,-2.75 -2.75,2.75 h -92 q -1.9,-0.05 -1.9,-2 v -3.6 l 2.75,-2.75 L 602,184.9 V 161 l 0.05,-0.5 0.05,-0.2 q 0.25,-1.3 1.9,-1.3 h 17.05 l 2.25,2.25 2.25,-2.25 h 9.35 l 2.8,2.8 2.8,-2.8 H 782 q 1.65,0 2,1.35"
       id="path121" />
    <path
       stroke="none"
       fill="#b1a077"
       d="M 784,160.35 Q 783.65,159 782,159 H 640.5 l -2.8,2.8 -2.8,-2.8 h -9.35 l -2.25,2.25 -2.25,-2.25 H 604 q -1.65,0 -1.9,1.3 l -0.05,0.2 -0.05,0.5 v 23.9 l 2.75,2.75 -2.75,2.75 v 3.6 q 0,1.95 1.9,2 h 92 l 2.75,-2.75 2.75,2.75 h 42.55 l 1.55,-1.55 1.55,1.55 h 35.1 q 1.85,-0.05 1.85,-2 v -22.9 l -2.4,-2.4 2.4,-2.4 V 161 l -0.05,-0.7 0.05,0.05 M 782,157 q 3.5,0 3.95,3.05 L 786,161 v 33 l -0.05,1 q -0.45,3 -3.95,3 H 604 q -3.5,0 -3.9,-3 l -0.1,-1 v -33 l 0.1,-0.95 Q 600.5,157 604,157 h 178"
       id="path122" />
  </g>
  <path
     stroke="none"
     fill="#d9cdaf"
     d="M 782,157 H 604 q -3.5,0 -3.9,3.05 L 600,161 v 33 l 0.1,1 q 0.4,3 3.9,3 h 178 q 3.5,0 3.95,-3 l 0.05,-1 v -33 l -0.05,-0.95 Q 785.5,157 782,157 m 6,4 v 33.25 q -0.15,5.75 -6,5.75 h -178 -0.25 -0.15 -0.2 -0.1 -0.1 -0.1 q -4.7,-0.4 -5.05,-5.15 L 598,194.25 V 161 q 0,-6 6,-6 h 178 q 6,0 6,6"
     id="path123" />
  <g
     id="g282"
     inkscape:export-filename="white_long_button_pressed.svg"
     inkscape:export-xdpi="96"
     inkscape:export-ydpi="96">
    <path
       stroke="none"
       fill="#e9e9e9"
       d="m 788,221 v 33 0.25 q -0.15,5.75 -6,5.75 h -178 -0.25 -0.15 -0.2 -0.1 -0.1 -0.1 q -4.7,-0.4 -5.05,-5.15 L 598,254.25 V 254 221 q 0,-6 6,-6 h 178 q 6,0 6,6 m -6,-4 H 604 q -3.5,0 -3.9,3.05 L 600,221 v 33 l 0.1,1 q 0.4,3 3.9,3 h 178 q 3.5,0 3.95,-3 l 0.05,-1 v -33 l -0.05,-0.95 Q 785.5,217 782,217"
       id="path124" />
    <path
       stroke="none"
       fill="#cbcbcb"
       d="m 782,217 q 3.5,0 3.95,3.05 L 786,221 v 33 l -0.05,1 q -0.45,3 -3.95,3 H 604 q -3.5,0 -3.9,-3 l -0.1,-1 v -33 l 0.1,-0.95 Q 600.5,217 604,217 h 178 m 2,3.35 Q 783.65,219 782,219 H 640.5 l -2.8,2.8 -2.8,-2.8 h -9.35 l -2.25,2.25 -2.25,-2.25 H 604 q -1.65,0 -1.9,1.3 l -0.05,0.2 -0.05,0.5 v 23.9 l 2.75,2.75 -2.75,2.75 v 3.6 q 0,1.95 1.9,2 h 92 l 2.75,-2.75 2.75,2.75 h 42.55 l 1.55,-1.55 1.55,1.55 h 35.1 q 1.85,-0.05 1.85,-2 v -22.9 l -2.4,-2.4 2.4,-2.4 V 221 l -0.05,-0.7 0.05,0.05"
       id="path125" />
    <path
       stroke="none"
       fill="#e5e5e5"
       d="m 784,220.35 -0.05,-0.05 0.05,0.7 v 5.3 l -2.4,2.4 2.4,2.4 V 254 q 0,1.95 -1.85,2 h -35.1 l -1.55,-1.55 -1.55,1.55 H 701.4 l -2.75,-2.75 -2.75,2.75 h -92 q -1.9,-0.05 -1.9,-2 v -3.6 l 2.75,-2.75 L 602,244.9 V 221 l 0.05,-0.5 0.05,-0.2 q 0.25,-1.3 1.9,-1.3 h 17.05 l 2.25,2.25 2.25,-2.25 h 9.35 l 2.8,2.8 2.8,-2.8 H 782 q 1.65,0 2,1.35"
       id="path126" />
  </g>
  <g
     id="g289"
     inkscape:export-filename="grey_button_pressed.svg"
     inkscape:export-xdpi="96"
     inkscape:export-ydpi="96">
    <path
       stroke="none"
       fill="#838796"
       d="M 909,40.35 908.95,40.3 909,41 v 5.3 l -2.4,2.4 2.4,2.4 V 74 q 0,1.95 -1.85,2 H 873.9 Q 872,75.95 872,74 V 70.4 L 874.75,67.65 872,64.9 V 41 l 0.05,-0.5 0.05,-0.2 Q 872.35,39 874,39 h 33 q 1.65,0 2,1.35"
       id="path127" />
    <path
       stroke="none"
       fill="#727685"
       d="M 909,40.35 Q 908.65,39 907,39 h -33 q -1.65,0 -1.9,1.3 L 872.05,40.5 872,41 v 23.9 l 2.75,2.75 L 872,70.4 V 74 q 0,1.95 1.9,2 h 33.25 Q 909,75.95 909,74 V 51.1 l -2.4,-2.4 2.4,-2.4 V 41 l -0.05,-0.7 0.05,0.05 M 907,37 q 3.5,0 3.95,3.05 L 911,41 v 33 l -0.05,1 q -0.45,3 -3.95,3 h -33 q -3.5,0 -3.9,-3 L 870,74 V 41 l 0.1,-0.95 Q 870.5,37 874,37 h 33"
       id="path128" />
    <path
       stroke="none"
       fill="#9b9dad"
       d="m 907,37 h -33 q -3.5,0 -3.9,3.05 L 870,41 v 33 l 0.1,1 q 0.4,3 3.9,3 h 33 q 3.5,0 3.95,-3 L 911,74 V 41 l -0.05,-0.95 Q 910.5,37 907,37 m 6,4 v 33 0.25 Q 912.85,80 907,80 h -33 -0.25 -0.15 -0.2 -0.1 -0.1 -0.1 q -4.7,-0.4 -5.05,-5.15 L 868,74.25 V 74 41 q 0,-6 6,-6 h 33 q 6,0 6,6"
       id="path129" />
  </g>
  <g
     id="g290"
     inkscape:export-filename="brown_button_pressed.svg"
     inkscape:export-xdpi="96"
     inkscape:export-ydpi="96">
    <path
       stroke="none"
       fill="#886644"
       d="m 874,97 q -3.5,0 -3.9,3.05 L 870,101 v 33 l 0.1,1 q 0.4,3 3.9,3 h 33 q 3.5,0 3.95,-3 l 0.05,-1 v -33 l -0.05,-0.95 Q 910.5,97 907,97 h -33 m 33,-2 q 6,0 6,6 v 33 0.25 q -0.15,5.75 -6,5.75 h -33 -0.25 -0.15 -0.2 -0.1 -0.1 -0.1 q -4.7,-0.4 -5.05,-5.15 L 868,134.25 V 134 101 q 0,-6 6,-6 h 33"
       id="path130" />
    <path
       stroke="none"
       fill="#b7916a"
       d="m 874,97 h 33 q 3.5,0 3.95,3.05 L 911,101 v 33 l -0.05,1 q -0.45,3 -3.95,3 h -33 q -3.5,0 -3.9,-3 l -0.1,-1 v -33 l 0.1,-0.95 Q 870.5,97 874,97 m 35,9.3 V 101 l -0.05,-0.7 0.05,0.05 Q 908.65,99 907,99 h -33 q -1.65,0 -1.9,1.3 l -0.05,0.2 -0.05,0.5 v 23.9 l 2.75,2.75 -2.75,2.75 v 3.6 q 0,1.95 1.9,2 h 33.25 q 1.85,-0.05 1.85,-2 v -22.9 l -2.4,-2.4 2.4,-2.4"
       id="path131" />
    <path
       stroke="none"
       fill="#97714a"
       d="m 909,106.3 -2.4,2.4 2.4,2.4 V 134 q 0,1.95 -1.85,2 H 873.9 q -1.9,-0.05 -1.9,-2 v -3.6 l 2.75,-2.75 L 872,124.9 V 101 l 0.05,-0.5 0.05,-0.2 Q 872.35,99 874,99 h 33 q 1.65,0 2,1.35 l -0.05,-0.05 0.05,0.7 v 5.3"
       id="path132" />
  </g>
  <g
     id="g285"
     inkscape:export-filename="biege_button_pressed.svg"
     inkscape:export-xdpi="96"
     inkscape:export-ydpi="96">
    <path
       stroke="none"
       fill="#d3bf8f"
       d="m 872,161 0.05,-0.5 0.05,-0.2 q 0.25,-1.3 1.9,-1.3 h 33 q 1.65,0 2,1.35 l -0.05,-0.05 0.05,0.7 v 5.3 l -2.4,2.4 2.4,2.4 V 194 q 0,1.95 -1.85,2 H 873.9 q -1.9,-0.05 -1.9,-2 v -3.6 l 2.75,-2.75 L 872,184.9 V 161"
       id="path133" />
    <path
       stroke="none"
       fill="#b1a077"
       d="m 872,161 v 23.9 l 2.75,2.75 -2.75,2.75 v 3.6 q 0,1.95 1.9,2 h 33.25 q 1.85,-0.05 1.85,-2 v -22.9 l -2.4,-2.4 2.4,-2.4 V 161 l -0.05,-0.7 0.05,0.05 Q 908.65,159 907,159 h -33 q -1.65,0 -1.9,1.3 l -0.05,0.2 -0.05,0.5 m -1.9,-0.95 Q 870.5,157 874,157 h 33 q 3.5,0 3.95,3.05 L 911,161 v 33 l -0.05,1 q -0.45,3 -3.95,3 h -33 q -3.5,0 -3.9,-3 l -0.1,-1 v -33 l 0.1,-0.95"
       id="path134" />
    <path
       stroke="none"
       fill="#d9cdaf"
       d="M 870.1,160.05 870,161 v 33 l 0.1,1 q 0.4,3 3.9,3 h 33 q 3.5,0 3.95,-3 l 0.05,-1 v -33 l -0.05,-0.95 Q 910.5,157 907,157 h -33 q -3.5,0 -3.9,3.05 M 874,155 h 33 q 6,0 6,6 v 33.25 q -0.15,5.75 -6,5.75 h -33 -0.25 -0.15 -0.2 -0.1 -0.1 -0.1 q -4.7,-0.4 -5.05,-5.15 L 868,194.25 V 161 q 0,-6 6,-6"
       id="path135" />
  </g>
  <g
     id="g284"
     inkscape:export-filename="white_button_pressed.svg"
     inkscape:export-xdpi="96"
     inkscape:export-ydpi="96">
    <path
       stroke="none"
       fill="#cbcbcb"
       d="M 910.95,220.05 911,221 v 33 l -0.05,1 q -0.45,3 -3.95,3 h -33 q -3.5,0 -3.9,-3 l -0.1,-1 v -33 l 0.1,-0.95 Q 870.5,217 874,217 h 33 q 3.5,0 3.95,3.05 M 907,219 h -33 q -1.65,0 -1.9,1.3 l -0.05,0.2 -0.05,0.5 v 23.9 l 2.75,2.75 -2.75,2.75 v 3.6 q 0,1.95 1.9,2 h 33.25 q 1.85,-0.05 1.85,-2 v -22.9 l -2.4,-2.4 2.4,-2.4 V 221 l -0.05,-0.7 0.05,0.05 Q 908.65,219 907,219"
       id="path136" />
    <path
       stroke="none"
       fill="#e9e9e9"
       d="M 910.95,220.05 Q 910.5,217 907,217 h -33 q -3.5,0 -3.9,3.05 L 870,221 v 33 l 0.1,1 q 0.4,3 3.9,3 h 33 q 3.5,0 3.95,-3 l 0.05,-1 v -33 l -0.05,-0.95 M 913,221 v 33 0.25 q -0.15,5.75 -6,5.75 h -33 -0.25 -0.15 -0.2 -0.1 -0.1 -0.1 q -4.7,-0.4 -5.05,-5.15 L 868,254.25 V 254 221 q 0,-6 6,-6 h 33 q 6,0 6,6"
       id="path137" />
    <path
       stroke="none"
       fill="#e5e5e5"
       d="m 907,219 q 1.65,0 2,1.35 l -0.05,-0.05 0.05,0.7 v 5.3 l -2.4,2.4 2.4,2.4 V 254 q 0,1.95 -1.85,2 H 873.9 q -1.9,-0.05 -1.9,-2 v -3.6 l 2.75,-2.75 L 872,244.9 V 221 l 0.05,-0.5 0.05,-0.2 q 0.25,-1.3 1.9,-1.3 h 33"
       id="path138" />
  </g>
  <g
     id="g264"
     inkscape:export-filename="biege_panel.svg"
     inkscape:export-xdpi="96"
     inkscape:export-ydpi="96">
    <path
       stroke="none"
       fill="#b1a077"
       d="m 144,378.25 1.75,1.75 -1.75,1.7 v 4.95 l 2.8,2.8 -2.8,2.8 v 10.7 q 0,3.05 3.05,3.05 h 8.8 l 2.2,-2.2 2.2,2.2 h 72.65 q 3.1,0 3.1,-3.05 v -5.7 l -4.1,-4.1 4.1,-4.15 v -55.15 l -3.1,-3.1 3.1,-3.15 V 317.05 Q 236,314 232.9,314 h -38.55 l -2.85,2.9 -2.9,-2.9 h -41.55 q -3.05,0 -3.05,3.05 v 61.2 m -2,24.7 v -85.9 q 0,-5.05 5.05,-5.05 h 85.85 q 5.1,0 5.1,5.05 v 85.9 q 0,5.05 -5.1,5.05 H 147.05 Q 142,408 142,402.95"
       id="path139" />
    <path
       stroke="none"
       fill="#d3bf8f"
       d="m 144,378.25 v -61.2 q 0,-3.05 3.05,-3.05 h 41.55 l 2.9,2.9 2.85,-2.9 h 38.55 q 3.1,0 3.1,3.05 v 10.55 l -3.1,3.15 3.1,3.1 V 389 l -4.1,4.15 4.1,4.1 v 5.7 q 0,3.05 -3.1,3.05 h -72.65 l -2.2,-2.2 -2.2,2.2 h -8.8 Q 144,406 144,402.95 v -10.7 l 2.8,-2.8 -2.8,-2.8 v -4.95 l 1.75,-1.7 -1.75,-1.75"
       id="path140" />
    <path
       stroke="none"
       fill="#d9cdaf"
       d="m 142,402.95 q 0,5.05 5.05,5.05 h 85.85 q 5.1,0 5.1,-5.05 v -85.9 Q 238,312 232.9,312 h -85.85 q -5.05,0 -5.05,5.05 v 85.9 m -2,0 v -85.9 q 0,-7.05 7.05,-7.05 h 85.85 q 3.55,0 5.25,1.85 1.85,1.7 1.85,5.2 v 85.9 q 0,3.5 -1.85,5.2 -1.7,1.85 -5.25,1.85 H 147.05 Q 140,410 140,402.95"
       id="path141" />
  </g>
  <g
     id="g262"
     inkscape:export-filename="brown_panel.svg"
     inkscape:export-xdpi="96"
     inkscape:export-ydpi="96">
    <path
       stroke="none"
       fill="#b7916a"
       d="M 84.35,314 81.5,316.9 78.6,314 H 37.05 Q 34,314 34,317.05 v 61.2 L 35.75,380 34,381.7 v 4.95 l 2.8,2.8 -2.8,2.8 v 10.7 q 0,3.05 3.05,3.05 h 8.8 l 2.2,-2.2 2.2,2.2 h 72.65 q 3.1,0 3.1,-3.05 v -5.7 l -4.1,-4.1 4.1,-4.15 v -55.15 l -3.1,-3.1 3.1,-3.15 V 317.05 Q 126,314 122.9,314 H 84.35 M 32,402.95 v -85.9 Q 32,312 37.05,312 h 85.85 q 5.1,0 5.1,5.05 v 85.9 q 0,5.05 -5.1,5.05 H 37.05 Q 32,408 32,402.95"
       id="path142" />
    <path
       stroke="none"
       fill="#97714a"
       d="m 84.35,314 h 38.55 q 3.1,0 3.1,3.05 v 10.55 l -3.1,3.15 3.1,3.1 V 389 l -4.1,4.15 4.1,4.1 v 5.7 q 0,3.05 -3.1,3.05 H 50.25 l -2.2,-2.2 -2.2,2.2 h -8.8 Q 34,406 34,402.95 v -10.7 l 2.8,-2.8 -2.8,-2.8 V 381.7 L 35.75,380 34,378.25 v -61.2 Q 34,314 37.05,314 H 78.6 l 2.9,2.9 2.85,-2.9"
       id="path143" />
    <path
       stroke="none"
       fill="#886644"
       d="m 128.15,311.85 q 1.85,1.7 1.85,5.2 v 85.9 q 0,3.5 -1.85,5.2 -1.7,1.85 -5.25,1.85 H 37.05 Q 30,410 30,402.95 v -85.9 Q 30,310 37.05,310 h 85.85 q 3.55,0 5.25,1.85 M 32,402.95 q 0,5.05 5.05,5.05 h 85.85 q 5.1,0 5.1,-5.05 v -85.9 Q 128,312 122.9,312 H 37.05 Q 32,312 32,317.05 v 85.9"
       id="path144" />
  </g>
  <g
     id="g263"
     inkscape:export-filename="grey_panel.svg"
     inkscape:export-xdpi="96"
     inkscape:export-ydpi="96">
    <path
       stroke="none"
       fill="#9b9dad"
       d="m 191.5,206.9 -2.9,-2.9 h -41.55 q -3.05,0 -3.05,3.05 v 61.2 l 1.75,1.75 -1.75,1.7 v 4.95 l 2.8,2.8 -2.8,2.8 v 10.7 q 0,3.05 3.05,3.05 h 8.8 l 2.2,-2.2 2.2,2.2 h 72.65 q 3.1,0 3.1,-3.05 v -5.7 l -4.1,-4.1 4.1,-4.15 v -55.15 l -3.1,-3.1 3.1,-3.15 V 207.05 Q 236,204 232.9,204 h -38.55 l -2.85,2.9 m 46.5,0.15 v 85.9 q 0,5.05 -5.1,5.05 H 147.05 Q 142,298 142,292.95 v -85.9 q 0,-5.05 5.05,-5.05 h 85.85 q 5.1,0 5.1,5.05"
       id="path145" />
    <path
       stroke="none"
       fill="#838796"
       d="m 191.5,206.9 2.85,-2.9 h 38.55 q 3.1,0 3.1,3.05 v 10.55 l -3.1,3.15 3.1,3.1 V 279 l -4.1,4.15 4.1,4.1 v 5.7 q 0,3.05 -3.1,3.05 h -72.65 l -2.2,-2.2 -2.2,2.2 h -8.8 Q 144,296 144,292.95 v -10.7 l 2.8,-2.8 -2.8,-2.8 v -4.95 l 1.75,-1.7 -1.75,-1.75 v -61.2 q 0,-3.05 3.05,-3.05 h 41.55 l 2.9,2.9"
       id="path146" />
    <path
       stroke="none"
       fill="#616374"
       d="m 240,207.05 v 85.9 q 0,3.5 -1.85,5.2 -1.7,1.85 -5.25,1.85 H 147.05 Q 140,300 140,292.95 v -85.9 q 0,-7.05 7.05,-7.05 h 85.85 q 3.55,0 5.25,1.85 1.85,1.7 1.85,5.2 m -2,0 Q 238,202 232.9,202 h -85.85 q -5.05,0 -5.05,5.05 v 85.9 q 0,5.05 5.05,5.05 h 85.85 q 5.1,0 5.1,-5.05 v -85.9"
       id="path147" />
  </g>
  <g
     id="g261"
     inkscape:export-filename="light_biege_panel.svg"
     inkscape:export-xdpi="96"
     inkscape:export-ydpi="96">
    <path
       stroke="none"
       fill="#faf2e1"
       d="m 37.05,202 h 85.85 q 5.1,0 5.1,5.05 v 85.9 q 0,5.05 -5.1,5.05 H 37.05 Q 32,298 32,292.95 v -85.9 Q 32,202 37.05,202 m 0,2 Q 34,204 34,207.05 v 61.2 L 35.75,270 34,271.7 v 4.95 l 2.8,2.8 -2.8,2.8 v 10.7 q 0,3.05 3.05,3.05 h 8.8 l 2.2,-2.2 2.2,2.2 h 72.65 q 3.1,0 3.1,-3.05 v -5.7 l -4.1,-4.1 4.1,-4.15 v -55.15 l -3.1,-3.1 3.1,-3.15 V 207.05 Q 126,204 122.9,204 H 84.35 L 81.5,206.9 78.6,204 H 37.05"
       id="path148" />
    <path
       stroke="none"
       fill="#ece3ce"
       d="M 37.05,204 H 78.6 l 2.9,2.9 2.85,-2.9 h 38.55 q 3.1,0 3.1,3.05 v 10.55 l -3.1,3.15 3.1,3.1 V 279 l -4.1,4.15 4.1,4.1 v 5.7 q 0,3.05 -3.1,3.05 H 50.25 l -2.2,-2.2 -2.2,2.2 h -8.8 Q 34,296 34,292.95 v -10.7 l 2.8,-2.8 -2.8,-2.8 V 271.7 L 35.75,270 34,268.25 v -61.2 Q 34,204 37.05,204"
       id="path149" />
    <path
       stroke="none"
       fill="#d3bf8f"
       d="m 37.05,200 h 85.85 q 3.55,0 5.25,1.85 1.85,1.7 1.85,5.2 v 85.9 q 0,3.5 -1.85,5.2 -1.7,1.85 -5.25,1.85 H 37.05 Q 30,300 30,292.95 v -85.9 Q 30,200 37.05,200 m 0,2 Q 32,202 32,207.05 v 85.9 q 0,5.05 5.05,5.05 h 85.85 q 5.1,0 5.1,-5.05 v -85.9 Q 128,202 122.9,202 H 37.05"
       id="path150" />
  </g>
  <g
     id="g270"
     inkscape:export-filename="brown_paper.svg"
     inkscape:export-xdpi="96"
     inkscape:export-ydpi="96">
    <path
       stroke="none"
       fill="#000000"
       fill-opacity="0.101961"
       d="M 126,536.95 Q 125.95,534 122.9,534 H 84.35 L 81.5,536.9 78.6,534 H 37.05 q -3,0 -3.05,2.95 v -1.9 Q 34,532 37.05,532 H 78.6 l 2.9,2.9 2.85,-2.9 h 38.55 q 3.1,0 3.1,3.05 v 1.9 M 34.75,599 l 1,1 -1.75,1.7 v -2 l 0.75,-0.7 m 1.05,9.45 1,1 -2.8,2.8 v -2 l 1.8,-1.8 m 90.2,8.8 -4.1,-4.1 1,-1 3.1,3.1 v 2 m 0,-63.4 -3.1,-3.1 1,-1 2.1,2.1 v 2"
       id="path151" />
    <path
       stroke="none"
       fill="#97714a"
       d="M 126,553.85 V 609 l -3.1,3.15 -1,1 4.1,4.1 v 5.7 q 0,3.05 -3.1,3.05 H 50.25 l -2.2,-2.2 -2.2,2.2 h -8.8 Q 34,626 34,622.95 v -10.7 l 2.8,-2.8 -1,-1 -1.8,-1.8 v -4.95 l 1.75,-1.7 -1,-1 -0.75,-0.75 v -61.3 Q 34.05,534 37.05,534 H 78.6 l 2.9,2.9 2.85,-2.9 h 38.55 q 3.05,0 3.1,2.95 v 10.65 l -2.1,2.15 -1,1 3.1,3.1"
       id="path152" />
  </g>
  <g
     id="g266"
     inkscape:export-filename="biege_paper.svg"
     inkscape:export-xdpi="96"
     inkscape:export-ydpi="96">
    <path
       stroke="none"
       fill="#000000"
       fill-opacity="0.101961"
       d="M 236,536.95 Q 235.95,534 232.9,534 h -38.55 l -2.85,2.9 -2.9,-2.9 h -41.55 q -3,0 -3.05,2.95 v -1.9 q 0,-3.05 3.05,-3.05 h 41.55 l 2.9,2.9 2.85,-2.9 h 38.55 q 3.1,0 3.1,3.05 v 1.9 m -91.25,62.05 1,1 -1.75,1.7 v -2 l 0.75,-0.7 m 1.05,9.45 1,1 -2.8,2.8 v -2 l 1.8,-1.8 m 90.2,8.8 -4.1,-4.1 1,-1 3.1,3.1 v 2 m 0,-63.4 -3.1,-3.1 1,-1 2.1,2.1 v 2"
       id="path153" />
    <path
       stroke="none"
       fill="#d3bf8f"
       d="M 236,553.85 V 609 l -3.1,3.15 -1,1 4.1,4.1 v 5.7 q 0,3.05 -3.1,3.05 h -72.65 l -2.2,-2.2 -2.2,2.2 h -8.8 Q 144,626 144,622.95 v -10.7 l 2.8,-2.8 -1,-1 -1.8,-1.8 v -4.95 l 1.75,-1.7 -1,-1 -0.75,-0.75 v -61.3 q 0.05,-2.95 3.05,-2.95 h 41.55 l 2.9,2.9 2.85,-2.9 h 38.55 q 3.05,0 3.1,2.95 v 10.65 l -2.1,2.15 -1,1 3.1,3.1"
       id="path154" />
  </g>
  <g
     id="g265"
     inkscape:export-filename="grey_paper.svg"
     inkscape:export-xdpi="96"
     inkscape:export-ydpi="96">
    <path
       stroke="none"
       fill="#000000"
       fill-opacity="0.101961"
       d="m 144,426.95 v -1.9 q 0,-3.05 3.05,-3.05 h 41.55 l 2.9,2.9 2.85,-2.9 h 38.55 q 3.1,0 3.1,3.05 v 1.9 Q 235.95,424 232.9,424 h -38.55 l -2.85,2.9 -2.9,-2.9 h -41.55 q -3,0 -3.05,2.95 m 89.9,12.8 2.1,2.1 v 2 l -3.1,-3.1 1,-1 m -1,62.4 3.1,3.1 v 2 l -4.1,-4.1 1,-1 m -88.9,0.1 v -2 l 1.8,-1.8 1,1 -2.8,2.8 m 0,-10.55 v -2 l 0.75,-0.7 1,1 -1.75,1.7"
       id="path155" />
    <path
       stroke="none"
       fill="#838796"
       d="m 144,491.7 1.75,-1.7 -1,-1 -0.75,-0.75 v -61.3 q 0.05,-2.95 3.05,-2.95 h 41.55 l 2.9,2.9 2.85,-2.9 h 38.55 q 3.05,0 3.1,2.95 v 10.65 l -2.1,2.15 -1,1 3.1,3.1 V 499 l -3.1,3.15 -1,1 4.1,4.1 v 5.7 q 0,3.05 -3.1,3.05 h -72.65 l -2.2,-2.2 -2.2,2.2 h -8.8 Q 144,516 144,512.95 v -10.7 l 2.8,-2.8 -1,-1 -1.8,-1.8 v -4.95"
       id="path156" />
  </g>
  <path
     stroke="none"
     fill="#000000"
     fill-opacity="0.101961"
     d="m 34,426.95 v -1.9 Q 34,422 37.05,422 H 78.6 l 2.9,2.9 2.85,-2.9 h 38.55 q 3.1,0 3.1,3.05 v 1.9 Q 125.95,424 122.9,424 H 84.35 L 81.5,426.9 78.6,424 H 37.05 q -3,0 -3.05,2.95 m 89.9,12.8 2.1,2.1 v 2 l -3.1,-3.1 1,-1 m -1,62.4 3.1,3.1 v 2 l -4.1,-4.1 1,-1 m -88.9,0.1 v -2 l 1.8,-1.8 1,1 -2.8,2.8 m 0,-10.55 v -2 l 0.75,-0.7 1,1 -1.75,1.7"
     id="path157" />
  <path
     stroke="none"
     fill="#ece3ce"
     d="m 34,491.7 1.75,-1.7 -1,-1 -0.75,-0.75 v -61.3 Q 34.05,424 37.05,424 H 78.6 l 2.9,2.9 2.85,-2.9 h 38.55 q 3.05,0 3.1,2.95 v 10.65 l -2.1,2.15 -1,1 3.1,3.1 V 499 l -3.1,3.15 -1,1 4.1,4.1 v 5.7 q 0,3.05 -3.1,3.05 H 50.25 l -2.2,-2.2 -2.2,2.2 h -8.8 Q 34,516 34,512.95 v -10.7 l 2.8,-2.8 -1,-1 -1.8,-1.8 v -4.95"
     id="path158" />
  <g
     id="g272"
     inkscape:export-filename="brown_sword.svg"
     inkscape:export-xdpi="96"
     inkscape:export-ydpi="96">
    <path
       stroke="none"
       fill="#87623f"
       d="m 258.45,373.8 -0.35,-1.25 q -0.25,-0.75 0.1,-1.4 0.3,-0.65 0.95,-0.95 l 1.4,-0.1 11.25,3 q 0.75,0.15 1.15,0.85 l 8.55,13.45 -1.45,1.45 -8.8,-13.85 -11.25,-3 3.05,11.25 13.85,8.75 -1.45,1.45 -13.45,-8.5 q -0.7,-0.4 -0.85,-1.15 l -2.7,-10"
       id="path159" />
    <path
       stroke="none"
       fill="#000000"
       fill-opacity="0.101961"
       d="m 258.45,373.8 2.7,10 q 0.15,0.75 0.85,1.15 l 13.45,8.5 -1.6,1.65 -0.2,0.2 -11.65,-7.35 q -0.7,-0.4 -0.85,-1.15 l -3.05,-11.25 q -0.25,-0.75 0.1,-1.4 l 0.25,-0.35 m 29.4,16.95 0.1,0.1 q 0.55,0.55 0.55,1.4 0,0.8 -0.55,1.4 l -0.05,0.1 -1.5,-1.5 1.45,-1.5 m 3.6,8.25 0.1,0.1 q 0.55,0.55 0.55,1.4 0,0.85 -0.55,1.45 l -4.6,4.6 q -0.6,0.55 -1.45,0.55 -0.85,0 -1.4,-0.55 l -1.3,-1.3 q -0.6,-0.6 -0.6,-1.45 l 0.05,-0.4 -2,-2 -1.6,1.55 q -0.6,0.55 -1.4,0.55 -0.85,0 -1.4,-0.55 l -2,-2 q -0.6,-0.6 -0.6,-1.45 0,-0.85 0.6,-1.4 l 0.1,-0.05 1.9,1.9 q 0.55,0.55 1.4,0.55 0.8,0 1.4,-0.55 l 1.6,-1.55 2,2 -0.05,0.4 q 0,0.85 0.6,1.45 l 1.3,1.3 q 0.55,0.55 1.4,0.55 0.85,0 1.45,-0.55 l 4.5,-4.55"
       id="path160" />
    <path
       stroke="none"
       fill="#bd8a5a"
       d="M 276.9,392 263.05,383.25 260,372 l 19.9,19.9 -1.25,1.2 -1.75,-1.1"
       id="path161" />
    <path
       stroke="none"
       fill="#6b6b6b"
       d="m 276.9,392 1.75,1.1 -3.4,3.4 2,2 3,-2.95 4.6,4.6 -0.65,0.65 1.3,1.3 4.6,-4.6 -1.3,-1.3 -0.65,0.65 -4.6,-4.6 2.95,-3 -2,-2 -3.35,3.35 -1.1,-1.75 1.45,-1.45 1.6,-1.55 0.35,-0.3 q 0.45,-0.3 1.05,-0.3 l 1.1,0.3 0.35,0.3 2,2 q 0.55,0.55 0.55,1.4 0,0.8 -0.55,1.4 l -0.1,0.1 -1.45,1.5 1.5,1.5 0.5,0.5 0.4,-0.05 q 0.85,0 1.45,0.6 l 1.3,1.3 q 0.55,0.55 0.55,1.4 0,0.85 -0.55,1.45 l -0.1,0.05 -4.5,4.55 q -0.6,0.55 -1.45,0.55 -0.85,0 -1.4,-0.55 l -1.3,-1.3 q -0.6,-0.6 -0.6,-1.45 l 0.05,-0.4 -2,-2 -1.6,1.55 q -0.6,0.55 -1.4,0.55 -0.85,0 -1.4,-0.55 l -1.9,-1.9 -0.1,-0.1 q -0.6,-0.6 -0.6,-1.45 0,-0.7 0.4,-1.2 l 0.2,-0.2 1.6,-1.65 1.45,-1.45"
       id="path162" />
    <path
       stroke="none"
       fill="#a8a8a8"
       d="m 278.65,393.1 1.25,-1.2 1.25,-1.3 3.35,-3.35 2,2 -2.95,3 -3.3,3.3 -3,2.95 -2,-2 3.4,-3.4 m 9.5,3.75 0.65,-0.65 1.3,1.3 -4.6,4.6 -1.3,-1.3 0.65,-0.65 3.3,-3.3"
       id="path163" />
    <path
       stroke="none"
       fill="#c99869"
       d="m 260,372 11.25,3 8.8,13.85 1.1,1.75 -1.25,1.3 L 260,372"
       id="path164" />
    <path
       stroke="none"
       fill="#666666"
       d="m 280.25,395.55 3.3,-3.3 4.6,4.6 -3.3,3.3 -4.6,-4.6"
       id="path165" />
  </g>
  <g
     id="g273"
     inkscape:export-filename="white_sword.svg"
     inkscape:export-xdpi="96"
     inkscape:export-ydpi="96">
    <path
       stroke="none"
       fill="#6b6b6b"
       d="m 298.45,373.8 -0.35,-1.25 q -0.25,-0.75 0.1,-1.4 0.3,-0.65 0.95,-0.95 l 1.4,-0.1 11.25,3 q 0.75,0.15 1.15,0.85 l 8.55,13.45 1.6,-1.55 0.35,-0.3 q 0.45,-0.3 1.05,-0.3 0.6,0 1.1,0.3 l 0.35,0.3 2,2 q 0.55,0.55 0.55,1.4 0,0.8 -0.55,1.4 l -0.1,0.1 -1.45,1.5 1.5,1.5 0.5,0.5 0.4,-0.05 q 0.85,0 1.45,0.6 l 1.3,1.3 q 0.55,0.55 0.55,1.4 0,0.85 -0.55,1.45 l -0.1,0.05 -4.5,4.55 q -0.6,0.55 -1.45,0.55 -0.85,0 -1.4,-0.55 l -1.3,-1.3 q -0.6,-0.6 -0.6,-1.45 l 0.05,-0.4 -2,-2 -1.6,1.55 q -0.6,0.55 -1.4,0.55 -0.85,0 -1.4,-0.55 l -1.9,-1.9 -0.1,-0.1 q -0.6,-0.6 -0.6,-1.45 0,-0.7 0.4,-1.2 l 0.2,-0.2 1.6,-1.65 -13.45,-8.5 q -0.7,-0.4 -0.85,-1.15 l -2.7,-10 m 25.1,18.45 2.95,-3 -2,-2 -3.35,3.35 -9.9,-15.6 -11.25,-3 3.05,11.25 15.6,9.85 -3.4,3.4 2,2 3,-2.95 4.6,4.6 -0.65,0.65 1.3,1.3 4.6,-4.6 -1.3,-1.3 -0.65,0.65 -4.6,-4.6"
       id="path166" />
    <path
       stroke="none"
       fill="#a8a8a8"
       d="m 323.55,392.25 -3.3,3.3 -3,2.95 -2,-2 3.4,-3.4 1.25,-1.2 1.25,-1.3 3.35,-3.35 2,2 -2.95,3 m 4.6,4.6 0.65,-0.65 1.3,1.3 -4.6,4.6 -1.3,-1.3 0.65,-0.65 3.3,-3.3"
       id="path167" />
    <path
       stroke="none"
       fill="#000000"
       fill-opacity="0.101961"
       d="m 327.85,390.75 0.1,0.1 q 0.55,0.55 0.55,1.4 0,0.8 -0.55,1.4 l -0.05,0.1 -1.5,-1.5 1.45,-1.5 m 3.6,8.25 0.1,0.1 q 0.55,0.55 0.55,1.4 0,0.85 -0.55,1.45 l -4.6,4.6 q -0.6,0.55 -1.45,0.55 -0.85,0 -1.4,-0.55 l -1.3,-1.3 q -0.6,-0.6 -0.6,-1.45 l 0.05,-0.4 -2,-2 -1.6,1.55 q -0.6,0.55 -1.4,0.55 -0.85,0 -1.4,-0.55 l -2,-2 q -0.6,-0.6 -0.6,-1.45 0,-0.85 0.6,-1.4 l 0.1,-0.05 1.9,1.9 q 0.55,0.55 1.4,0.55 0.8,0 1.4,-0.55 l 1.6,-1.55 2,2 -0.05,0.4 q 0,0.85 0.6,1.45 l 1.3,1.3 q 0.55,0.55 1.4,0.55 0.85,0 1.45,-0.55 l 4.5,-4.55 m -17.8,-3.7 -11.65,-7.35 q -0.7,-0.4 -0.85,-1.15 l -3.05,-11.25 q -0.25,-0.75 0.1,-1.4 l 0.25,-0.35 2.7,10 q 0.15,0.75 0.85,1.15 l 13.45,8.5 -1.6,1.65 -0.2,0.2"
       id="path168" />
    <path
       stroke="none"
       fill="#e0e0e0"
       d="M 318.65,393.1 303.05,383.25 300,372 l 19.9,19.9 -1.25,1.2"
       id="path169" />
    <path
       stroke="none"
       fill="#666666"
       d="m 323.55,392.25 4.6,4.6 -3.3,3.3 -4.6,-4.6 3.3,-3.3"
       id="path170" />
    <path
       stroke="none"
       fill="#ffffff"
       d="m 300,372 11.25,3 9.9,15.6 -1.25,1.3 L 300,372"
       id="path171" />
  </g>
  <g
     id="g274"
     inkscape:export-filename="gold_sword.svg"
     inkscape:export-xdpi="96"
     inkscape:export-ydpi="96">
    <path
       stroke="none"
       fill="#9c7f0e"
       d="m 338.45,373.8 -0.35,-1.25 q -0.25,-0.75 0.1,-1.4 0.3,-0.65 0.95,-0.95 l 1.4,-0.1 11.25,3 q 0.75,0.15 1.15,0.85 l 8.55,13.45 -1.45,1.45 -8.8,-13.85 -11.25,-3 3.05,11.25 13.85,8.75 -1.45,1.45 -13.45,-8.5 q -0.7,-0.4 -0.85,-1.15 l -2.7,-10"
       id="path172" />
    <path
       stroke="none"
       fill="#000000"
       fill-opacity="0.101961"
       d="m 338.45,373.8 2.7,10 q 0.15,0.75 0.85,1.15 l 13.45,8.5 -1.6,1.65 -0.2,0.2 -11.65,-7.35 q -0.7,-0.4 -0.85,-1.15 l -3.05,-11.25 q -0.25,-0.75 0.1,-1.4 l 0.25,-0.35 m 29.4,16.95 0.1,0.1 q 0.55,0.55 0.55,1.4 0,0.8 -0.55,1.4 l -0.05,0.1 -1.5,-1.5 1.45,-1.5 m 3.6,8.25 0.1,0.1 q 0.55,0.55 0.55,1.4 0,0.85 -0.55,1.45 l -4.6,4.6 q -0.6,0.55 -1.45,0.55 -0.85,0 -1.4,-0.55 l -1.3,-1.3 q -0.6,-0.6 -0.6,-1.45 l 0.05,-0.4 -2,-2 -1.6,1.55 q -0.6,0.55 -1.4,0.55 -0.85,0 -1.4,-0.55 l -2,-2 q -0.6,-0.6 -0.6,-1.45 0,-0.85 0.6,-1.4 l 0.1,-0.05 1.9,1.9 q 0.55,0.55 1.4,0.55 0.8,0 1.4,-0.55 l 1.6,-1.55 2,2 -0.05,0.4 q 0,0.85 0.6,1.45 l 1.3,1.3 q 0.55,0.55 1.4,0.55 0.85,0 1.45,-0.55 l 4.5,-4.55"
       id="path173" />
    <path
       stroke="none"
       fill="#e2b712"
       d="M 356.9,392 343.05,383.25 340,372 l 19.9,19.9 -1.25,1.2 -1.75,-1.1"
       id="path174" />
    <path
       stroke="none"
       fill="#6b6b6b"
       d="m 356.9,392 1.75,1.1 -3.4,3.4 2,2 3,-2.95 4.6,4.6 -0.65,0.65 1.3,1.3 4.6,-4.6 -1.3,-1.3 -0.65,0.65 -4.6,-4.6 2.95,-3 -2,-2 -3.35,3.35 -1.1,-1.75 1.45,-1.45 1.6,-1.55 0.35,-0.3 q 0.45,-0.3 1.05,-0.3 0.6,0 1.1,0.3 l 0.35,0.3 2,2 q 0.55,0.55 0.55,1.4 0,0.8 -0.55,1.4 l -0.1,0.1 -1.45,1.5 1.5,1.5 0.5,0.5 0.4,-0.05 q 0.85,0 1.45,0.6 l 1.3,1.3 q 0.55,0.55 0.55,1.4 0,0.85 -0.55,1.45 l -0.1,0.05 -4.5,4.55 q -0.6,0.55 -1.45,0.55 -0.85,0 -1.4,-0.55 l -1.3,-1.3 q -0.6,-0.6 -0.6,-1.45 l 0.05,-0.4 -2,-2 -1.6,1.55 q -0.6,0.55 -1.4,0.55 -0.85,0 -1.4,-0.55 l -1.9,-1.9 -0.1,-0.1 q -0.6,-0.6 -0.6,-1.45 0,-0.7 0.4,-1.2 l 0.2,-0.2 1.6,-1.65 1.45,-1.45"
       id="path175" />
    <path
       stroke="none"
       fill="#a8a8a8"
       d="m 359.9,391.9 1.25,-1.3 3.35,-3.35 2,2 -2.95,3 -3.3,3.3 -3,2.95 -2,-2 3.4,-3.4 1.25,-1.2 m 8.25,4.95 0.65,-0.65 1.3,1.3 -4.6,4.6 -1.3,-1.3 0.65,-0.65 3.3,-3.3"
       id="path176" />
    <path
       stroke="none"
       fill="#666666"
       d="m 368.15,396.85 -3.3,3.3 -4.6,-4.6 3.3,-3.3 4.6,4.6"
       id="path177" />
    <path
       stroke="none"
       fill="#f5c614"
       d="m 340,372 11.25,3 8.8,13.85 1.1,1.75 -1.25,1.3 L 340,372"
       id="path178" />
  </g>
  <path
     stroke="none"
     fill="#707483"
     d="m 261.3,282.4 q -0.8,0.45 -1.1,1.35 l -0.1,0.2 q -0.3,1.05 0.25,2 l 4.15,7.2 q -1.15,-0.3 -2.2,0.25 -0.7,0.45 -1.05,1.1 l -0.15,0.35 -0.1,0.25 -0.05,0.1 q -0.3,1.15 0.3,2.15 0.6,1.05 1.8,1.3 l 5.5,1.55 0.65,1.05 q 0.85,1.5 3.4,1.35 2.5,-0.05 5.3,-1.65 2.8,-1.6 4.15,-3.8 1.3,-2.1 0.45,-3.6 l -4.7,-8.1 q -0.85,-1.45 -3.35,-1.4 -2.55,0.1 -5.35,1.7 l -1.6,1.1 -0.4,0.3 -2.2,-3.85 q -0.55,-0.95 -1.6,-1.2 -1.05,-0.25 -1.95,0.25 l -0.05,0.05 m -3,3.75 q -0.5,-1.35 -0.1,-2.75 0.45,-1.7 1.9,-2.6 l 0.3,-0.2 q 1.55,-0.9 3.4,-0.45 1.85,0.45 2.85,2.15 l 1.1,1.95 0.4,-0.25 -0.05,0.05 q 3.3,-1.9 6.3,-2 3.9,-0.05 5.15,2.4 l 4.7,8.1 v 0.05 q 1.1,1.65 0.4,3.75 l -0.9,1.85 q -1.55,2.6 -4.85,4.5 -3.25,1.85 -6.15,1.9 h -0.1 q -3.95,0.2 -5.2,-2.35 l -0.15,-0.3 -4.8,-1.35 h 0.15 q -2.1,-0.45 -3.1,-2.25 v 0.05 l -0.45,-0.95 q -0.45,-1.35 -0.05,-2.75 l 0.1,-0.4 q 0.3,-1 1,-1.7 0.45,-0.5 1.05,-0.85 l 0.15,-0.1 -2.7,-4.7 -0.35,-0.8"
     id="path179" />
  <path
     stroke="none"
     fill="#9b9dad"
     d="m 261.3,282.4 0.05,-0.05 q 0.9,-0.5 1.95,-0.25 1.05,0.25 1.6,1.2 l 2.2,3.85 0.4,-0.3 1.6,-1.1 q 2.8,-1.6 5.35,-1.7 2.5,-0.05 3.35,1.4 l 4.7,8.1 q 0.85,1.5 -0.45,3.6 -1.35,2.2 -4.15,3.8 -2.8,1.6 -5.3,1.65 -2.55,0.15 -3.4,-1.35 l -0.65,-1.05 -5.5,-1.55 q -1.2,-0.25 -1.8,-1.3 -0.6,-1 -0.3,-2.15 l 0.05,-0.1 0.1,-0.25 0.15,-0.35 q 0.35,-0.65 1.05,-1.1 1.05,-0.55 2.2,-0.25 l -4.15,-7.2 q -0.55,-0.95 -0.25,-2 l 0.1,-0.2 q 0.3,-0.9 1.1,-1.35"
     id="path180" />
  <path
     stroke="none"
     fill="#000000"
     fill-opacity="0.101961"
     d="m 284.65,296.35 q 0.85,2.1 -0.9,4.85 -1.55,2.6 -4.85,4.5 -3.25,1.85 -6.15,1.9 h -0.1 q -3.95,0.2 -5.2,-2.35 l -0.15,-0.3 -4.8,-1.35 h 0.15 q -2.1,-0.45 -3.1,-2.25 v 0.05 q -1.05,-1.75 -0.5,-3.7 l 0.05,-0.25 0.45,0.95 v -0.05 q 1,1.8 3.1,2.25 h -0.15 l 4.8,1.35 0.15,0.3 q 1.25,2.55 5.2,2.35 h 0.1 q 2.9,-0.05 6.15,-1.9 3.3,-1.9 4.85,-4.5 l 0.9,-1.85 m -24.5,-3.75 -1.5,-2.65 q -1,-1.7 -0.45,-3.55 l 0.1,-0.25 0.35,0.8 2.7,4.7 -0.15,0.1 q -0.6,0.35 -1.05,0.85"
     id="path181" />
  <path
     stroke="none"
     fill="#c6b897"
     d="m 298.3,286.15 q -0.5,-1.35 -0.1,-2.75 0.45,-1.7 1.9,-2.6 l 0.3,-0.2 q 1.55,-0.9 3.4,-0.45 1.85,0.45 2.85,2.15 l 1.1,1.95 0.4,-0.25 -0.05,0.05 q 3.3,-1.9 6.3,-2 3.9,-0.05 5.15,2.4 l 4.7,8.1 v 0.05 q 1.1,1.65 0.4,3.75 l -0.9,1.85 q -1.55,2.6 -4.85,4.5 -3.25,1.85 -6.15,1.9 h -0.1 q -3.95,0.2 -5.2,-2.35 l -0.15,-0.3 -4.8,-1.35 h 0.15 q -2.1,-0.45 -3.1,-2.25 v 0.05 l -0.45,-0.95 q -0.45,-1.35 -0.05,-2.75 l 0.1,-0.4 q 0.3,-1 1,-1.7 0.45,-0.5 1.05,-0.85 l 0.15,-0.1 -2.7,-4.7 -0.35,-0.8 m 1.9,-2.4 -0.1,0.2 q -0.3,1.05 0.25,2 l 4.15,7.2 q -1.15,-0.3 -2.2,0.25 -0.7,0.45 -1.05,1.1 l -0.15,0.35 -0.1,0.25 -0.05,0.1 q -0.3,1.15 0.3,2.15 0.6,1.05 1.8,1.3 l 5.5,1.55 0.65,1.05 q 0.85,1.5 3.4,1.35 2.5,-0.05 5.3,-1.65 2.8,-1.6 4.15,-3.8 1.3,-2.1 0.45,-3.6 l -4.7,-8.1 q -0.85,-1.45 -3.35,-1.4 -2.55,0.1 -5.35,1.7 -0.9,0.5 -1.6,1.1 l -0.4,0.3 -2.2,-3.85 q -0.55,-0.95 -1.6,-1.2 -1.05,-0.25 -1.95,0.25 l -0.05,0.05 q -0.8,0.45 -1.1,1.35"
     id="path182" />
  <path
     stroke="none"
     fill="#ece3ce"
     d="m 300.2,283.75 q 0.3,-0.9 1.1,-1.35 l 0.05,-0.05 q 0.9,-0.5 1.95,-0.25 1.05,0.25 1.6,1.2 l 2.2,3.85 0.4,-0.3 q 0.7,-0.6 1.6,-1.1 2.8,-1.6 5.35,-1.7 2.5,-0.05 3.35,1.4 l 4.7,8.1 q 0.85,1.5 -0.45,3.6 -1.35,2.2 -4.15,3.8 -2.8,1.6 -5.3,1.65 -2.55,0.15 -3.4,-1.35 l -0.65,-1.05 -5.5,-1.55 q -1.2,-0.25 -1.8,-1.3 -0.6,-1 -0.3,-2.15 l 0.05,-0.1 0.1,-0.25 0.15,-0.35 q 0.35,-0.65 1.05,-1.1 1.05,-0.55 2.2,-0.25 l -4.15,-7.2 q -0.55,-0.95 -0.25,-2 l 0.1,-0.2"
     id="path183" />
  <path
     stroke="none"
     fill="#000000"
     fill-opacity="0.101961"
     d="m 324.65,296.35 q 0.85,2.1 -0.9,4.85 -1.55,2.6 -4.85,4.5 -3.25,1.85 -6.15,1.9 h -0.1 q -3.95,0.2 -5.2,-2.35 l -0.15,-0.3 -4.8,-1.35 h 0.15 q -2.1,-0.45 -3.1,-2.25 v 0.05 q -1.05,-1.75 -0.5,-3.7 l 0.05,-0.25 0.45,0.95 v -0.05 q 1,1.8 3.1,2.25 h -0.15 l 4.8,1.35 0.15,0.3 q 1.25,2.55 5.2,2.35 h 0.1 q 2.9,-0.05 6.15,-1.9 3.3,-1.9 4.85,-4.5 l 0.9,-1.85 m -24.5,-3.75 -1.5,-2.65 q -1,-1.7 -0.45,-3.55 l 0.1,-0.25 0.35,0.8 2.7,4.7 -0.15,0.1 q -0.6,0.35 -1.05,0.85"
     id="path184" />
  <path
     stroke="none"
     fill="#a1a1a1"
     d="m 338.3,286.15 q -0.5,-1.35 -0.1,-2.75 0.45,-1.7 1.9,-2.6 l 0.3,-0.2 q 1.55,-0.9 3.4,-0.45 1.85,0.45 2.85,2.15 l 1.1,1.95 0.4,-0.25 -0.05,0.05 q 3.3,-1.9 6.3,-2 3.9,-0.05 5.15,2.4 l 4.7,8.1 v 0.05 q 1.1,1.65 0.4,3.75 l -0.9,1.85 q -1.55,2.6 -4.85,4.5 -3.25,1.85 -6.15,1.9 h -0.1 q -3.95,0.2 -5.2,-2.35 l -0.15,-0.3 -4.8,-1.35 h 0.15 q -2.1,-0.45 -3.1,-2.25 v 0.05 l -0.45,-0.95 q -0.45,-1.35 -0.05,-2.75 l 0.1,-0.4 q 0.3,-1 1,-1.7 l 1.05,-0.85 0.15,-0.1 -2.7,-4.7 -0.35,-0.8 m 3,-3.75 q -0.8,0.45 -1.1,1.35 l -0.1,0.2 q -0.3,1.05 0.25,2 l 4.15,7.2 q -1.15,-0.3 -2.2,0.25 -0.7,0.45 -1.05,1.1 l -0.15,0.35 -0.1,0.25 -0.05,0.1 q -0.3,1.15 0.3,2.15 0.6,1.05 1.8,1.3 l 5.5,1.55 0.65,1.05 q 0.85,1.5 3.4,1.35 2.5,-0.05 5.3,-1.65 2.8,-1.6 4.15,-3.8 1.3,-2.1 0.45,-3.6 l -4.7,-8.1 q -0.85,-1.45 -3.35,-1.4 -2.55,0.1 -5.35,1.7 l -1.6,1.1 -0.4,0.3 -2.2,-3.85 q -0.55,-0.95 -1.6,-1.2 -1.05,-0.25 -1.95,0.25 l -0.05,0.05"
     id="path185" />
  <path
     stroke="none"
     fill="#e5e5e5"
     d="m 341.3,282.4 0.05,-0.05 q 0.9,-0.5 1.95,-0.25 1.05,0.25 1.6,1.2 l 2.2,3.85 0.4,-0.3 1.6,-1.1 q 2.8,-1.6 5.35,-1.7 2.5,-0.05 3.35,1.4 l 4.7,8.1 q 0.85,1.5 -0.45,3.6 -1.35,2.2 -4.15,3.8 -2.8,1.6 -5.3,1.65 -2.55,0.15 -3.4,-1.35 l -0.65,-1.05 -5.5,-1.55 q -1.2,-0.25 -1.8,-1.3 -0.6,-1 -0.3,-2.15 l 0.05,-0.1 0.1,-0.25 0.15,-0.35 q 0.35,-0.65 1.05,-1.1 1.05,-0.55 2.2,-0.25 l -4.15,-7.2 q -0.55,-0.95 -0.25,-2 l 0.1,-0.2 q 0.3,-0.9 1.1,-1.35"
     id="path186" />
  <path
     stroke="none"
     fill="#000000"
     fill-opacity="0.101961"
     d="m 364.65,296.35 q 0.85,2.1 -0.9,4.85 -1.55,2.6 -4.85,4.5 -3.25,1.85 -6.15,1.9 h -0.1 q -3.95,0.2 -5.2,-2.35 l -0.15,-0.3 -4.8,-1.35 h 0.15 q -2.1,-0.45 -3.1,-2.25 v 0.05 q -1.05,-1.75 -0.5,-3.7 l 0.05,-0.25 0.45,0.95 v -0.05 q 1,1.8 3.1,2.25 h -0.15 l 4.8,1.35 0.15,0.3 q 1.25,2.55 5.2,2.35 h 0.1 q 2.9,-0.05 6.15,-1.9 3.3,-1.9 4.85,-4.5 l 0.9,-1.85 m -24.5,-3.75 -1.5,-2.65 q -1,-1.7 -0.45,-3.55 l 0.1,-0.25 0.35,0.8 2.7,4.7 -0.15,0.1 -1.05,0.85"
     id="path187" />
  <path
     stroke="none"
     fill="#727272"
     d="m 257.5,327.15 -0.2,-0.4 q -0.2,-0.65 0.05,-1.25 0.55,-2.05 3.65,-3.3 l -0.15,0.05 0.05,-0.05 q 0.45,-0.25 1,-0.2 l 0.95,0.3 q 1.9,1.15 3,2.3 4.7,-0.7 7.85,0.7 0.45,0.2 0.75,0.6 2.5,3.15 4.8,8.25 2.65,1.5 6.1,2.55 0.65,0.2 1.05,0.75 0.35,0.5 0.35,1.2 l -0.05,1.45 q -0.35,4.5 -2.45,6.9 -2.5,3.05 -7.45,2.9 h -0.2 q -3.5,-0.5 -5,-3.7 l -0.6,-1.35 q -8.85,-2.55 -13.65,-9.1 l -0.1,-0.2 q -0.35,-0.6 -0.25,-1.25 0.05,-0.8 0.7,-1.3 l 2,-1.65 0.05,-0.05 q 0.5,-0.35 1.1,-0.4 h 0.25 q -1.25,-1.75 -3.1,-3.15 l -0.5,-0.6 m 4.3,-3.15 -0.05,0.05 q -2.1,0.8 -2.55,2.1 4.45,3.4 5.8,8.45 -2,-0.3 -4.05,-1.7 l -2,1.65 q 4.7,6.35 13.5,8.6 l 0.95,2.2 q 1.05,2.25 3.45,2.55 7.8,0.2 7.9,-9.3 -4.05,-1.25 -7.1,-3.1 -2.25,-5.2 -4.75,-8.35 -1.5,-0.65 -3.35,-0.75 h -1.25 l -2.45,0.2 -0.85,0.15 q -0.9,-1.35 -3.2,-2.75"
     id="path188" />
  <path
     stroke="none"
     fill="#000000"
     fill-opacity="0.101961"
     d="m 286.7,340.1 0.05,0.55 q -0.05,5.6 -2.5,8.35 -2.5,3.05 -7.45,2.9 h -0.2 q -3.5,-0.5 -5,-3.7 l -0.6,-1.35 q -8.85,-2.55 -13.65,-9.1 -0.45,-0.65 -0.35,-1.45 0.05,-0.45 0.25,-0.75 l 0.1,0.2 q 4.8,6.55 13.65,9.1 l 0.6,1.35 q 1.5,3.2 5,3.7 h 0.2 q 4.95,0.15 7.45,-2.9 2.1,-2.4 2.45,-6.9 m -26.95,-8.8 -1.75,-1.55 q -0.55,-0.4 -0.7,-1 -0.2,-0.65 0.05,-1.25 l 0.15,-0.35 0.5,0.6 q 1.85,1.4 3.1,3.15 h -0.25 q -0.6,0.05 -1.1,0.4"
     id="path189" />
  <path
     stroke="none"
     fill="#a1a1a1"
     d="m 261.8,324 q 2.3,1.4 3.2,2.75 l 0.85,-0.15 2.45,-0.2 h 1.25 q 1.85,0.1 3.35,0.75 2.5,3.15 4.75,8.35 3.05,1.85 7.1,3.1 -0.1,9.5 -7.9,9.3 -2.4,-0.3 -3.45,-2.55 l -0.95,-2.2 q -8.8,-2.25 -13.5,-8.6 l 2,-1.65 q 2.05,1.4 4.05,1.7 -1.35,-5.05 -5.8,-8.45 0.45,-1.3 2.55,-2.1 L 261.8,324"
     id="path190" />
  <path
     stroke="none"
     fill="#87623f"
     d="m 326.7,340.1 q -0.2,2.35 -0.85,4.15 -0.6,1.6 -1.6,2.75 -2.5,3.05 -7.45,2.9 h -0.2 q -3.5,-0.5 -5,-3.7 l -0.6,-1.35 q -8.85,-2.55 -13.65,-9.1 l -0.1,-0.2 q -0.35,-0.6 -0.25,-1.25 0.05,-0.8 0.7,-1.3 l 2,-1.65 0.05,-0.05 q 0.5,-0.35 1.1,-0.4 h 0.25 q -1.25,-1.75 -3.1,-3.15 l -0.5,-0.6 -0.2,-0.4 q -0.2,-0.65 0.05,-1.25 0.55,-2.05 3.65,-3.3 l -0.15,0.05 0.05,-0.05 q 0.45,-0.25 1,-0.2 l 0.95,0.3 3,2.3 q 4.7,-0.7 7.85,0.7 0.45,0.2 0.75,0.6 2.5,3.15 4.8,8.25 2.65,1.5 6.1,2.55 l 0.5,0.25 0.55,0.5 q 0.35,0.5 0.35,1.2 l -0.05,1.45 m -24.95,-16.05 q -2.1,0.8 -2.55,2.1 4.45,3.4 5.8,8.45 -2,-0.3 -4.05,-1.7 l -2,1.65 q 4.7,6.35 13.5,8.6 l 0.95,2.2 q 1.05,2.25 3.45,2.55 7.8,0.2 7.9,-9.3 -4.05,-1.25 -7.1,-3.1 -2.25,-5.2 -4.75,-8.35 -1.5,-0.65 -3.35,-0.75 h -1.25 l -2.45,0.2 -0.85,0.15 q -0.9,-1.35 -3.2,-2.75 l -0.05,0.05"
     id="path191" />
  <path
     stroke="none"
     fill="#000000"
     fill-opacity="0.101961"
     d="m 297.25,335.55 0.1,0.2 q 4.8,6.55 13.65,9.1 l 0.6,1.35 q 1.5,3.2 5,3.7 h 0.2 q 4.95,0.15 7.45,-2.9 1,-1.15 1.6,-2.75 0.65,-1.8 0.85,-4.15 l 0.05,0.55 q -0.05,3.3 -0.9,5.65 -0.6,1.6 -1.6,2.7 -2.5,3.05 -7.45,2.9 h -0.2 q -3.5,-0.5 -5,-3.7 l -0.6,-1.35 q -8.85,-2.55 -13.65,-9.1 -0.45,-0.65 -0.35,-1.45 0.05,-0.45 0.25,-0.75 m 0.25,-8.4 0.5,0.6 q 1.85,1.4 3.1,3.15 h -0.25 q -0.6,0.05 -1.1,0.4 L 298,329.75 q -0.55,-0.4 -0.7,-1 -0.2,-0.65 0.05,-1.25 l 0.15,-0.35"
     id="path192" />
  <path
     stroke="none"
     fill="#c99869"
     d="M 301.75,324.05 301.8,324 q 2.3,1.4 3.2,2.75 l 0.85,-0.15 2.45,-0.2 h 1.25 q 1.85,0.1 3.35,0.75 2.5,3.15 4.75,8.35 3.05,1.85 7.1,3.1 -0.1,9.5 -7.9,9.3 -2.4,-0.3 -3.45,-2.55 l -0.95,-2.2 q -8.8,-2.25 -13.5,-8.6 l 2,-1.65 q 2.05,1.4 4.05,1.7 -1.35,-5.05 -5.8,-8.45 0.45,-1.3 2.55,-2.1"
     id="path193" />
  <path
     stroke="none"
     fill="#000000"
     fill-opacity="0.101961"
     d="m 366.7,340.1 0.05,0.55 q -0.05,5.6 -2.5,8.35 -2.5,3.05 -7.45,2.9 h -0.2 q -3.5,-0.5 -5,-3.7 l -0.6,-1.35 q -8.85,-2.55 -13.65,-9.1 -0.45,-0.65 -0.35,-1.45 0.05,-0.45 0.25,-0.75 l 0.1,0.2 q 4.8,6.55 13.65,9.1 l 0.6,1.35 q 1.5,3.2 5,3.7 h 0.2 q 4.95,0.15 7.45,-2.9 2.1,-2.4 2.45,-6.9 m -26.95,-8.8 q -0.8,-0.85 -1.75,-1.55 -0.55,-0.4 -0.7,-1 -0.2,-0.65 0.05,-1.25 l 0.15,-0.35 0.5,0.6 q 1.85,1.4 3.1,3.15 h -0.25 q -0.6,0.05 -1.1,0.4"
     id="path194" />
  <path
     stroke="none"
     fill="#a1a1a1"
     d="m 339.75,331.3 q 0.5,-0.35 1.1,-0.4 h 0.25 q -1.25,-1.75 -3.1,-3.15 l -0.5,-0.6 -0.2,-0.4 q -0.2,-0.65 0.05,-1.25 0.55,-2.05 3.65,-3.3 l -0.15,0.05 0.05,-0.05 q 0.45,-0.25 1,-0.2 l 0.95,0.3 q 1.9,1.15 3,2.3 4.7,-0.7 7.85,0.7 0.45,0.2 0.75,0.6 2.5,3.15 4.8,8.25 2.65,1.5 6.1,2.55 0.65,0.2 1.05,0.75 l 0.35,1.2 -0.05,1.45 q -0.35,4.5 -2.45,6.9 -2.5,3.05 -7.45,2.9 h -0.2 q -3.5,-0.5 -5,-3.7 l -0.6,-1.35 q -8.85,-2.55 -13.65,-9.1 l -0.1,-0.2 q -0.35,-0.6 -0.25,-1.25 0.05,-0.8 0.7,-1.3 l 2,-1.65 0.05,-0.05 m 2.05,-7.3 -0.05,0.05 q -2.1,0.8 -2.55,2.1 4.45,3.4 5.8,8.45 -2,-0.3 -4.05,-1.7 l -2,1.65 q 4.7,6.35 13.5,8.6 l 0.95,2.2 q 1.05,2.25 3.45,2.55 7.8,0.2 7.9,-9.3 -4.05,-1.25 -7.1,-3.1 -2.25,-5.2 -4.75,-8.35 -1.5,-0.65 -3.35,-0.75 h -1.25 l -2.45,0.2 -0.85,0.15 q -0.9,-1.35 -3.2,-2.75"
     id="path195" />
  <path
     stroke="none"
     fill="#e5e5e5"
     d="m 341.8,324 q 2.3,1.4 3.2,2.75 l 0.85,-0.15 2.45,-0.2 h 1.25 q 1.85,0.1 3.35,0.75 2.5,3.15 4.75,8.35 3.05,1.85 7.1,3.1 -0.1,9.5 -7.9,9.3 -2.4,-0.3 -3.45,-2.55 l -0.95,-2.2 q -8.8,-2.25 -13.5,-8.6 l 2,-1.65 q 2.05,1.4 4.05,1.7 -1.35,-5.05 -5.8,-8.45 0.45,-1.3 2.55,-2.1 L 341.8,324"
     id="path196" />
  <path
     stroke="none"
     fill="#727685"
     d="m 470.75,276.25 2.9,0.15 14,6.4 q 1.45,0.65 2.05,2.15 0.6,1.5 0,3 -0.6,1.5 -2.05,2.15 l -14,6.35 -2.9,0.15 h -0.05 q -1.5,-0.5 -2.2,-1.9 -0.75,-1.4 -0.35,-2.9 l 1.4,-5.35 -1.4,-5.4 q -0.4,-1.5 0.35,-2.9 0.75,-1.4 2.25,-1.9 m 2.1,2 -1.45,-0.1 q -0.75,0.25 -1.15,0.95 -0.4,0.7 -0.15,1.45 l 1.5,5.9 -1.5,5.85 q -0.2,0.75 0.15,1.45 0.35,0.7 1.1,0.95 l 1.5,-0.05 14,-6.35 q 0.7,-0.35 1,-1.1 0.3,-0.75 0,-1.5 -0.3,-0.75 -1,-1.05 l -14,-6.4"
     id="path197" />
  <path
     stroke="none"
     fill="#9b9dad"
     d="m 472.85,278.25 14,6.4 q 0.7,0.3 1,1.05 0.3,0.75 0,1.5 -0.3,0.75 -1,1.1 l -14,6.35 -1.5,0.05 q -0.75,-0.25 -1.1,-0.95 -0.35,-0.7 -0.15,-1.45 l 1.5,-5.85 -1.5,-5.9 q -0.25,-0.75 0.15,-1.45 0.4,-0.7 1.15,-0.95 l 1.45,0.1 M 472,292.8 486,286.45 H 473.65 L 472,292.8"
     id="path198" />
  <path
     stroke="none"
     fill="#838796"
     d="m 472,292.8 1.65,-6.35 H 486 l -14,6.35"
     id="path199" />
  <path
     stroke="none"
     fill="#886644"
     d="m 510.75,276.25 2.9,0.15 14,6.4 q 1.45,0.65 2.05,2.15 0.6,1.5 0,3 -0.6,1.5 -2.05,2.15 l -14,6.35 -2.9,0.15 h -0.05 q -1.5,-0.5 -2.2,-1.9 -0.75,-1.4 -0.35,-2.9 l 1.4,-5.35 -1.4,-5.4 q -0.4,-1.5 0.35,-2.9 0.75,-1.4 2.25,-1.9 m -0.5,2.85 q -0.4,0.7 -0.15,1.45 l 1.5,5.9 -1.5,5.85 q -0.2,0.75 0.15,1.45 0.35,0.7 1.1,0.95 l 1.5,-0.05 14,-6.35 q 0.7,-0.35 1,-1.1 0.3,-0.75 0,-1.5 -0.3,-0.75 -1,-1.05 l -14,-6.4 -1.45,-0.1 q -0.75,0.25 -1.15,0.95"
     id="path200" />
  <path
     stroke="none"
     fill="#b7916a"
     d="m 510.25,279.1 q 0.4,-0.7 1.15,-0.95 l 1.45,0.1 14,6.4 q 0.7,0.3 1,1.05 0.3,0.75 0,1.5 -0.3,0.75 -1,1.1 l -14,6.35 -1.5,0.05 q -0.75,-0.25 -1.1,-0.95 -0.35,-0.7 -0.15,-1.45 l 1.5,-5.85 -1.5,-5.9 q -0.25,-0.75 0.15,-1.45 m 1.75,13.7 14,-6.35 H 513.65 L 512,292.8"
     id="path201" />
  <path
     stroke="none"
     fill="#97714a"
     d="m 512,292.8 1.65,-6.35 H 526 l -14,6.35"
     id="path202" />
  <path
     stroke="none"
     fill="#9f8e67"
     d="m 567.85,287.2 q 0.3,-0.75 0,-1.5 -0.3,-0.75 -1,-1.05 l -14,-6.4 -1.45,-0.1 q -0.75,0.25 -1.15,0.95 -0.4,0.7 -0.15,1.45 l 1.5,5.9 -1.5,5.85 q -0.2,0.75 0.15,1.45 l 1.1,0.95 1.5,-0.05 14,-6.35 q 0.7,-0.35 1,-1.1 m 1.85,-2.25 q 0.6,1.5 0,3 -0.6,1.5 -2.05,2.15 l -14,6.35 -2.9,0.15 h -0.05 q -1.5,-0.5 -2.2,-1.9 -0.75,-1.4 -0.35,-2.9 l 1.4,-5.35 -1.4,-5.4 q -0.4,-1.5 0.35,-2.9 0.75,-1.4 2.25,-1.9 l 2.9,0.15 14,6.4 q 1.45,0.65 2.05,2.15"
     id="path203" />
  <path
     stroke="none"
     fill="#d9cdaf"
     d="m 567.85,287.2 q -0.3,0.75 -1,1.1 l -14,6.35 -1.5,0.05 -1.1,-0.95 q -0.35,-0.7 -0.15,-1.45 l 1.5,-5.85 -1.5,-5.9 q -0.25,-0.75 0.15,-1.45 0.4,-0.7 1.15,-0.95 l 1.45,0.1 14,6.4 q 0.7,0.3 1,1.05 0.3,0.75 0,1.5 m -15.85,5.6 14,-6.35 H 553.65 L 552,292.8"
     id="path204" />
  <path
     stroke="none"
     fill="#d3bf8f"
     d="m 552,292.8 1.65,-6.35 H 566 l -14,6.35"
     id="path205" />
  <path
     stroke="none"
     fill="#aaaaaa"
     d="m 593.65,276.4 14,6.4 q 1.45,0.65 2.05,2.15 0.6,1.5 0,3 -0.6,1.5 -2.05,2.15 l -14,6.35 -2.9,0.15 h -0.05 q -1.5,-0.5 -2.2,-1.9 -0.75,-1.4 -0.35,-2.9 l 1.4,-5.35 -1.4,-5.4 q -0.4,-1.5 0.35,-2.9 0.75,-1.4 2.25,-1.9 l 2.9,0.15 m -2.25,1.75 q -0.75,0.25 -1.15,0.95 -0.4,0.7 -0.15,1.45 l 1.5,5.9 -1.5,5.85 q -0.2,0.75 0.15,1.45 0.35,0.7 1.1,0.95 l 1.5,-0.05 14,-6.35 q 0.7,-0.35 1,-1.1 0.3,-0.75 0,-1.5 -0.3,-0.75 -1,-1.05 l -14,-6.4 -1.45,-0.1"
     id="path206" />
  <path
     stroke="none"
     fill="#e9e9e9"
     d="m 591.4,278.15 1.45,0.1 14,6.4 q 0.7,0.3 1,1.05 0.3,0.75 0,1.5 -0.3,0.75 -1,1.1 l -14,6.35 -1.5,0.05 q -0.75,-0.25 -1.1,-0.95 -0.35,-0.7 -0.15,-1.45 l 1.5,-5.85 -1.5,-5.9 q -0.25,-0.75 0.15,-1.45 0.4,-0.7 1.15,-0.95 m 0.6,14.65 14,-6.35 H 593.65 L 592,292.8"
     id="path207" />
  <path
     stroke="none"
     fill="#dbdbdb"
     d="m 592,292.8 1.65,-6.35 H 606 l -14,6.35"
     id="path208" />
  <path
     stroke="none"
     fill="#9b9dad"
     d="m 471.15,328.3 q -0.7,-0.35 -1,-1.1 -0.3,-0.75 0,-1.5 0.3,-0.75 1,-1.05 l 14,-6.4 1.45,-0.1 q 0.75,0.25 1.15,0.95 0.4,0.7 0.15,1.45 l -1.5,5.9 1.5,5.85 q 0.2,0.75 -0.15,1.45 l -1.1,0.95 -1.5,-0.05 -14,-6.35 m 13.2,-1.85 H 472 l 14,6.35 -1.65,-6.35"
     id="path209" />
  <path
     stroke="none"
     fill="#727685"
     d="m 471.15,328.3 14,6.35 1.5,0.05 1.1,-0.95 q 0.35,-0.7 0.15,-1.45 l -1.5,-5.85 1.5,-5.9 q 0.25,-0.75 -0.15,-1.45 -0.4,-0.7 -1.15,-0.95 l -1.45,0.1 -14,6.4 q -0.7,0.3 -1,1.05 -0.3,0.75 0,1.5 0.3,0.75 1,1.1 m -2.85,-3.35 q 0.6,-1.5 2.05,-2.15 l 14,-6.4 2.9,-0.15 q 1.5,0.5 2.25,1.9 0.75,1.4 0.35,2.9 l -1.4,5.4 1.4,5.35 q 0.4,1.5 -0.35,2.9 -0.7,1.4 -2.2,1.9 h -0.05 l -2.9,-0.15 -14,-6.35 q -1.45,-0.65 -2.05,-2.15 -0.6,-1.5 0,-3"
     id="path210" />
  <path
     stroke="none"
     fill="#838796"
     d="m 484.35,326.45 1.65,6.35 -14,-6.35 h 12.35"
     id="path211" />
  <path
     stroke="none"
     fill="#b7916a"
     d="m 527.75,319.1 q 0.4,0.7 0.15,1.45 l -1.5,5.9 1.5,5.85 q 0.2,0.75 -0.15,1.45 -0.35,0.7 -1.1,0.95 l -1.5,-0.05 -14,-6.35 q -0.7,-0.35 -1,-1.1 -0.3,-0.75 0,-1.5 0.3,-0.75 1,-1.05 l 14,-6.4 1.45,-0.1 q 0.75,0.25 1.15,0.95 m -1.75,13.7 -1.65,-6.35 H 512 l 14,6.35"
     id="path212" />
  <path
     stroke="none"
     fill="#886644"
     d="m 527.75,319.1 q -0.4,-0.7 -1.15,-0.95 l -1.45,0.1 -14,6.4 q -0.7,0.3 -1,1.05 -0.3,0.75 0,1.5 0.3,0.75 1,1.1 l 14,6.35 1.5,0.05 q 0.75,-0.25 1.1,-0.95 0.35,-0.7 0.15,-1.45 l -1.5,-5.85 1.5,-5.9 q 0.25,-0.75 -0.15,-1.45 m 1.75,-0.95 q 0.75,1.4 0.35,2.9 l -1.4,5.4 1.4,5.35 q 0.4,1.5 -0.35,2.9 -0.7,1.4 -2.2,1.9 h -0.05 l -2.9,-0.15 -14,-6.35 q -1.45,-0.65 -2.05,-2.15 -0.6,-1.5 0,-3 0.6,-1.5 2.05,-2.15 l 14,-6.4 2.9,-0.15 q 1.5,0.5 2.25,1.9"
     id="path213" />
  <path
     stroke="none"
     fill="#97714a"
     d="m 526,332.8 -14,-6.35 h 12.35 l 1.65,6.35"
     id="path214" />
  <path
     stroke="none"
     fill="#d9cdaf"
     d="m 565.15,318.25 1.45,-0.1 q 0.75,0.25 1.15,0.95 0.4,0.7 0.15,1.45 l -1.5,5.9 1.5,5.85 q 0.2,0.75 -0.15,1.45 -0.35,0.7 -1.1,0.95 l -1.5,-0.05 -14,-6.35 q -0.7,-0.35 -1,-1.1 -0.3,-0.75 0,-1.5 0.3,-0.75 1,-1.05 l 14,-6.4 m 0.85,14.55 -1.65,-6.35 H 552 l 14,6.35"
     id="path215" />
  <path
     stroke="none"
     fill="#9f8e67"
     d="m 565.15,318.25 -14,6.4 q -0.7,0.3 -1,1.05 -0.3,0.75 0,1.5 0.3,0.75 1,1.1 l 14,6.35 1.5,0.05 q 0.75,-0.25 1.1,-0.95 0.35,-0.7 0.15,-1.45 l -1.5,-5.85 1.5,-5.9 q 0.25,-0.75 -0.15,-1.45 -0.4,-0.7 -1.15,-0.95 l -1.45,0.1 m -16.85,9.7 q -0.6,-1.5 0,-3 0.6,-1.5 2.05,-2.15 l 14,-6.4 2.9,-0.15 q 1.5,0.5 2.25,1.9 0.75,1.4 0.35,2.9 l -1.4,5.4 1.4,5.35 q 0.4,1.5 -0.35,2.9 -0.7,1.4 -2.2,1.9 h -0.05 l -2.9,-0.15 -14,-6.35 q -1.45,-0.65 -2.05,-2.15"
     id="path216" />
  <path
     stroke="none"
     fill="#d3bf8f"
     d="m 566,332.8 -14,-6.35 h 12.35 l 1.65,6.35"
     id="path217" />
  <path
     stroke="none"
     fill="#e9e9e9"
     d="m 607.9,332.3 q 0.2,0.75 -0.15,1.45 -0.35,0.7 -1.1,0.95 l -1.5,-0.05 -14,-6.35 q -0.7,-0.35 -1,-1.1 -0.3,-0.75 0,-1.5 0.3,-0.75 1,-1.05 l 14,-6.4 1.45,-0.1 q 0.75,0.25 1.15,0.95 0.4,0.7 0.15,1.45 l -1.5,5.9 1.5,5.85 m -1.9,0.5 -1.65,-6.35 H 592 l 14,6.35"
     id="path218" />
  <path
     stroke="none"
     fill="#aaaaaa"
     d="m 609.85,321.05 -1.4,5.4 1.4,5.35 q 0.4,1.5 -0.35,2.9 -0.7,1.4 -2.2,1.9 h -0.05 l -2.9,-0.15 -14,-6.35 q -1.45,-0.65 -2.05,-2.15 -0.6,-1.5 0,-3 0.6,-1.5 2.05,-2.15 l 14,-6.4 2.9,-0.15 q 1.5,0.5 2.25,1.9 0.75,1.4 0.35,2.9 m -1.95,11.25 -1.5,-5.85 1.5,-5.9 q 0.25,-0.75 -0.15,-1.45 -0.4,-0.7 -1.15,-0.95 l -1.45,0.1 -14,6.4 q -0.7,0.3 -1,1.05 -0.3,0.75 0,1.5 0.3,0.75 1,1.1 l 14,6.35 1.5,0.05 q 0.75,-0.25 1.1,-0.95 0.35,-0.7 0.15,-1.45"
     id="path219" />
  <path
     stroke="none"
     fill="#dbdbdb"
     d="m 606,332.8 -14,-6.35 h 12.35 l 1.65,6.35"
     id="path220" />
  <g
     id="g291"
     inkscape:export-filename="grey_circle.svg"
     inkscape:export-xdpi="96"
     inkscape:export-ydpi="96">
    <path
       stroke="none"
       fill="#727685"
       d="m 258,446 v -0.5 q 0,-7.25 5.05,-12.4 l 0.05,-0.05 q 5.15,-5.05 12.4,-5.05 7.25,0 12.35,5.05 v 0.05 q 5.15,5.15 5.15,12.4 v 0.5 q -0.2,6.95 -5.15,11.85 -5.1,5.15 -12.35,5.15 -7.25,0 -12.4,-5.15 h -0.05 Q 258.2,452.95 258,446 m 17.5,-16.05 q -6.4,0 -11,4.55 -4.55,4.6 -4.55,11 0,6.45 4.55,11 4.55,4.5 11,4.5 6.4,0 10.95,-4.5 l 0.05,-0.05 q 4.5,-4.55 4.5,-10.95 0,-6.45 -4.5,-11 -4.55,-4.55 -11,-4.55"
       id="path221" />
    <path
       stroke="none"
       fill="#9b9dad"
       d="m 275.5,429.95 q 6.45,0 11,4.55 4.5,4.55 4.5,11 0,6.4 -4.5,10.95 l -0.05,0.05 q -4.55,4.5 -10.95,4.5 -6.45,0 -11,-4.5 -4.55,-4.55 -4.55,-11 0,-6.4 4.55,-11 4.6,-4.55 11,-4.55 m 0,2 q -5.65,0 -9.65,3.9 -3.9,4 -3.9,9.65 0,5.6 3.9,9.55 4,4 9.65,4 5.6,0 9.55,-4 4,-3.95 4,-9.55 0,-5.65 -4,-9.65 -3.95,-3.9 -9.55,-3.9"
       id="path222" />
    <path
       stroke="none"
       fill="#838796"
       d="m 275.5,431.95 q 5.6,0 9.55,3.9 4,4 4,9.65 0,5.6 -4,9.55 -3.95,4 -9.55,4 -5.65,0 -9.65,-4 -3.9,-3.95 -3.9,-9.55 0,-5.65 3.9,-9.65 4,-3.9 9.65,-3.9"
       id="path223" />
    <path
       stroke="none"
       fill="#000000"
       fill-opacity="0.101961"
       d="m 293,446 v 0.5 0.5 0.5 0.5 0.5 q 0,7.25 -5.15,12.35 -5.1,5.15 -12.35,5.15 -7.25,0 -12.4,-5.15 h -0.05 Q 258,455.75 258,448.5 V 448 447.5 447 446.5 446 q 0.2,6.95 5.05,11.85 h 0.05 q 5.15,5.15 12.4,5.15 7.25,0 12.35,-5.15 4.95,-4.9 5.15,-11.85"
       id="path224" />
  </g>
  <g
     id="g292"
     inkscape:export-filename="brown_circle.svg"
     inkscape:export-xdpi="96"
     inkscape:export-ydpi="96">
    <path
       stroke="none"
       fill="#886644"
       d="m 308,446 v -0.5 q 0,-7.25 5.05,-12.4 l 0.05,-0.05 q 5.15,-5.05 12.4,-5.05 7.25,0 12.35,5.05 v 0.05 q 5.15,5.15 5.15,12.4 v 0.5 q -0.2,6.95 -5.15,11.85 -5.1,5.15 -12.35,5.15 -7.25,0 -12.4,-5.15 h -0.05 Q 308.2,452.95 308,446 m 1.95,-0.5 q 0,6.45 4.55,11 4.55,4.5 11,4.5 6.4,0 10.95,-4.5 l 0.05,-0.05 q 4.5,-4.55 4.5,-10.95 0,-6.45 -4.5,-11 -4.55,-4.55 -11,-4.55 -6.4,0 -11,4.55 -4.55,4.6 -4.55,11"
       id="path225" />
    <path
       stroke="none"
       fill="#000000"
       fill-opacity="0.101961"
       d="m 343,446 v 0.5 0.5 0.5 0.5 0.5 q 0,7.25 -5.15,12.35 -5.1,5.15 -12.35,5.15 -7.25,0 -12.4,-5.15 h -0.05 Q 308,455.75 308,448.5 V 448 447.5 447 446.5 446 q 0.2,6.95 5.05,11.85 h 0.05 q 5.15,5.15 12.4,5.15 7.25,0 12.35,-5.15 4.95,-4.9 5.15,-11.85"
       id="path226" />
    <path
       stroke="none"
       fill="#b7916a"
       d="m 311.95,445.5 q 0,5.6 3.9,9.55 4,4 9.65,4 5.6,0 9.55,-4 4,-3.95 4,-9.55 0,-5.65 -4,-9.65 -3.95,-3.9 -9.55,-3.9 -5.65,0 -9.65,3.9 -3.9,4 -3.9,9.65 m -2,0 q 0,-6.4 4.55,-11 4.6,-4.55 11,-4.55 6.45,0 11,4.55 4.5,4.55 4.5,11 0,6.4 -4.5,10.95 l -0.05,0.05 q -4.55,4.5 -10.95,4.5 -6.45,0 -11,-4.5 -4.55,-4.55 -4.55,-11"
       id="path227" />
    <path
       stroke="none"
       fill="#97714a"
       d="m 311.95,445.5 q 0,-5.65 3.9,-9.65 4,-3.9 9.65,-3.9 5.6,0 9.55,3.9 4,4 4,9.65 0,5.6 -4,9.55 -3.95,4 -9.55,4 -5.65,0 -9.65,-4 -3.9,-3.95 -3.9,-9.55"
       id="path228" />
  </g>
  <g
     id="g293"
     inkscape:export-filename="biege_circle.svg"
     inkscape:export-xdpi="96"
     inkscape:export-ydpi="96">
    <path
       stroke="none"
       fill="#d9cdaf"
       d="m 386.5,434.5 q -4.55,-4.55 -11,-4.55 -6.4,0 -11,4.55 -4.55,4.6 -4.55,11 0,6.45 4.55,11 4.55,4.5 11,4.5 6.4,0 10.95,-4.5 l 0.05,-0.05 q 4.5,-4.55 4.5,-10.95 0,-6.45 -4.5,-11 M 358,446 v -0.5 q 0,-7.25 5.05,-12.4 l 0.05,-0.05 q 5.15,-5.05 12.4,-5.05 7.25,0 12.35,5.05 v 0.05 q 5.15,5.15 5.15,12.4 v 0.5 q -0.2,6.95 -5.15,11.85 -5.1,5.15 -12.35,5.15 -7.25,0 -12.4,-5.15 h -0.05 Q 358.2,452.95 358,446"
       id="path229" />
    <path
       stroke="none"
       fill="#b1a077"
       d="m 386.5,434.5 q 4.5,4.55 4.5,11 0,6.4 -4.5,10.95 l -0.05,0.05 q -4.55,4.5 -10.95,4.5 -6.45,0 -11,-4.5 -4.55,-4.55 -4.55,-11 0,-6.4 4.55,-11 4.6,-4.55 11,-4.55 6.45,0 11,4.55 m -1.45,1.35 q -3.95,-3.9 -9.55,-3.9 -5.65,0 -9.65,3.9 -3.9,4 -3.9,9.65 0,5.6 3.9,9.55 4,4 9.65,4 5.6,0 9.55,-4 4,-3.95 4,-9.55 0,-5.65 -4,-9.65"
       id="path230" />
    <path
       stroke="none"
       fill="#d3bf8f"
       d="m 385.05,435.85 q 4,4 4,9.65 0,5.6 -4,9.55 -3.95,4 -9.55,4 -5.65,0 -9.65,-4 -3.9,-3.95 -3.9,-9.55 0,-5.65 3.9,-9.65 4,-3.9 9.65,-3.9 5.6,0 9.55,3.9"
       id="path231" />
    <path
       stroke="none"
       fill="#000000"
       fill-opacity="0.101961"
       d="m 393,446 v 0.5 0.5 0.5 0.5 0.5 q 0,7.25 -5.15,12.35 -5.1,5.15 -12.35,5.15 -7.25,0 -12.4,-5.15 h -0.05 Q 358,455.75 358,448.5 V 448 447.5 447 446.5 446 q 0.2,6.95 5.05,11.85 h 0.05 q 5.15,5.15 12.4,5.15 7.25,0 12.35,-5.15 4.95,-4.9 5.15,-11.85"
       id="path232" />
  </g>
  <g
     id="g294"
     inkscape:export-filename="white_circle.svg"
     inkscape:export-xdpi="96"
     inkscape:export-ydpi="96">
    <path
       stroke="none"
       fill="#cbcbcb"
       d="m 425.5,429.95 q 6.45,0 11,4.55 4.5,4.55 4.5,11 0,6.4 -4.5,10.95 l -0.05,0.05 q -4.55,4.5 -10.95,4.5 -6.45,0 -11,-4.5 -4.55,-4.55 -4.55,-11 0,-6.4 4.55,-11 4.6,-4.55 11,-4.55 m 0,2 q -5.65,0 -9.65,3.9 -3.9,4 -3.9,9.65 0,5.6 3.9,9.55 4,4 9.65,4 5.6,0 9.55,-4 4,-3.95 4,-9.55 0,-5.65 -4,-9.65 -3.95,-3.9 -9.55,-3.9"
       id="path233" />
    <path
       stroke="none"
       fill="#e5e5e5"
       d="m 425.5,431.95 q 5.6,0 9.55,3.9 4,4 4,9.65 0,5.6 -4,9.55 -3.95,4 -9.55,4 -5.65,0 -9.65,-4 -3.9,-3.95 -3.9,-9.55 0,-5.65 3.9,-9.65 4,-3.9 9.65,-3.9"
       id="path234" />
    <path
       stroke="none"
       fill="#e9e9e9"
       d="m 408,446 v -0.5 q 0,-7.25 5.05,-12.4 l 0.05,-0.05 q 5.15,-5.05 12.4,-5.05 7.25,0 12.35,5.05 v 0.05 q 5.15,5.15 5.15,12.4 v 0.5 q -0.2,6.95 -5.15,11.85 -5.1,5.15 -12.35,5.15 -7.25,0 -12.4,-5.15 h -0.05 Q 408.2,452.95 408,446 m 17.5,-16.05 q -6.4,0 -11,4.55 -4.55,4.6 -4.55,11 0,6.45 4.55,11 4.55,4.5 11,4.5 6.4,0 10.95,-4.5 l 0.05,-0.05 q 4.5,-4.55 4.5,-10.95 0,-6.45 -4.5,-11 -4.55,-4.55 -11,-4.55"
       id="path235" />
    <path
       stroke="none"
       fill="#000000"
       fill-opacity="0.101961"
       d="m 443,446 v 0.5 0.5 0.5 0.5 0.5 q 0,7.25 -5.15,12.35 -5.1,5.15 -12.35,5.15 -7.25,0 -12.4,-5.15 h -0.05 Q 408,455.75 408,448.5 V 448 447.5 447 446.5 446 q 0.2,6.95 5.05,11.85 h 0.05 q 5.15,5.15 12.4,5.15 7.25,0 12.35,-5.15 4.95,-4.9 5.15,-11.85"
       id="path236" />
  </g>
  <path
     stroke="none"
     fill="#989898"
     d="m 420.75,488.15 q 0.25,-0.3 0.6,0 l 4.15,4.2 4.2,-4.2 q 0.35,-0.3 0.65,0 l 2.5,2.55 q 0.35,0.35 0,0.65 l -4.15,4.2 4.15,4.15 q 0.35,0.3 0,0.65 l -2.5,2.5 q -0.3,0.3 -0.65,0 l -4.15,-4.2 -4.2,4.2 q -0.35,0.3 -0.65,0 l -2.5,-2.5 q -0.35,-0.35 0,-0.65 l 4.2,-4.15 -4.2,-4.2 q -0.3,-0.3 0,-0.65 l 2.55,-2.55"
     id="path237" />
  <path
     stroke="none"
     fill="#989898"
     d="m 429.4,518 0.15,0.05 4.1,2.7 0.1,0.15 -0.05,0.2 -9.25,11.8 -0.1,0.1 -0.15,-0.05 -0.15,-0.05 -6,-8.45 -0.05,-0.2 0.1,-0.15 4.1,-2.25 0.25,-0.05 0.15,0.1 1.7,2.5 4.9,-6.3 0.2,-0.1"
     id="path238" />
  <path
     stroke="none"
     fill="#989898"
     d="m 433.65,555.5 q 0,3.35 -2.4,5.7 -2.4,2.4 -5.75,2.4 -3.4,0 -5.8,-2.4 -2.35,-2.35 -2.35,-5.7 0,-3.4 2.35,-5.8 2.4,-2.35 5.8,-2.35 3.35,0 5.75,2.35 2.4,2.4 2.4,5.8"
     id="path239" />
  <path
     stroke="none"
     fill="#e9e0c7"
     d="m 369.7,549.7 q 2.4,-2.35 5.8,-2.35 3.35,0 5.75,2.35 2.4,2.4 2.4,5.8 0,3.35 -2.4,5.7 -2.4,2.4 -5.75,2.4 -3.4,0 -5.8,-2.4 -2.35,-2.35 -2.35,-5.7 0,-3.4 2.35,-5.8"
     id="path240" />
  <path
     stroke="none"
     fill="#e9e0c7"
     d="m 379.55,518.05 4.1,2.7 0.1,0.15 -0.05,0.2 -9.25,11.8 -0.1,0.1 -0.15,-0.05 -0.15,-0.05 -6,-8.45 -0.05,-0.2 0.1,-0.15 4.1,-2.25 0.25,-0.05 0.15,0.1 1.7,2.5 4.9,-6.3 0.2,-0.1 0.15,0.05"
     id="path241" />
  <path
     stroke="none"
     fill="#e9e0c7"
     d="m 370.75,488.15 q 0.25,-0.3 0.6,0 l 4.15,4.2 4.2,-4.2 q 0.35,-0.3 0.65,0 l 2.5,2.55 q 0.35,0.35 0,0.65 l -4.15,4.2 4.15,4.15 q 0.35,0.3 0,0.65 l -2.5,2.5 q -0.3,0.3 -0.65,0 l -4.15,-4.2 -4.2,4.2 q -0.35,0.3 -0.65,0 l -2.5,-2.5 q -0.35,-0.35 0,-0.65 l 4.2,-4.15 -4.2,-4.2 q -0.3,-0.3 0,-0.65 l 2.55,-2.55"
     id="path242" />
  <path
     stroke="none"
     fill="#c9a37d"
     d="m 318,524.25 0.1,-0.15 4.1,-2.25 0.25,-0.05 0.15,0.1 1.7,2.5 4.9,-6.3 0.2,-0.1 0.15,0.05 4.1,2.7 0.1,0.15 -0.05,0.2 -9.25,11.8 -0.1,0.1 -0.15,-0.05 -0.15,-0.05 -6,-8.45 -0.05,-0.2"
     id="path243" />
  <path
     stroke="none"
     fill="#c9a37d"
     d="m 318.2,490.7 2.55,-2.55 q 0.25,-0.3 0.6,0 l 4.15,4.2 4.2,-4.2 q 0.35,-0.3 0.65,0 l 2.5,2.55 q 0.35,0.35 0,0.65 l -4.15,4.2 4.15,4.15 q 0.35,0.3 0,0.65 l -2.5,2.5 q -0.3,0.3 -0.65,0 l -4.15,-4.2 -4.2,4.2 q -0.35,0.3 -0.65,0 l -2.5,-2.5 q -0.35,-0.35 0,-0.65 l 4.2,-4.15 -4.2,-4.2 q -0.3,-0.3 0,-0.65"
     id="path244" />
  <path
     stroke="none"
     fill="#c9a37d"
     d="m 317.35,555.5 q 0,-3.4 2.35,-5.8 2.4,-2.35 5.8,-2.35 3.35,0 5.75,2.35 2.4,2.4 2.4,5.8 0,3.35 -2.4,5.7 -2.4,2.4 -5.75,2.4 -3.4,0 -5.8,-2.4 -2.35,-2.35 -2.35,-5.7"
     id="path245" />
  <path
     stroke="none"
     fill="#d2d8e7"
     d="m 275.5,547.35 q 3.35,0 5.75,2.35 2.4,2.4 2.4,5.8 0,3.35 -2.4,5.7 -2.4,2.4 -5.75,2.4 -3.4,0 -5.8,-2.4 -2.35,-2.35 -2.35,-5.7 0,-3.4 2.35,-5.8 2.4,-2.35 5.8,-2.35"
     id="path246" />
  <path
     stroke="none"
     fill="#d2d8e7"
     d="m 283.7,521.1 -9.25,11.8 -0.1,0.1 -0.15,-0.05 -0.15,-0.05 -6,-8.45 -0.05,-0.2 0.1,-0.15 4.1,-2.25 0.25,-0.05 0.15,0.1 1.7,2.5 4.9,-6.3 0.2,-0.1 0.15,0.05 4.1,2.7 0.1,0.15 -0.05,0.2"
     id="path247" />
  <path
     stroke="none"
     fill="#d2d8e7"
     d="m 270.75,488.15 q 0.25,-0.3 0.6,0 l 4.15,4.2 4.2,-4.2 q 0.35,-0.3 0.65,0 l 2.5,2.55 q 0.35,0.35 0,0.65 l -4.15,4.2 4.15,4.15 q 0.35,0.3 0,0.65 l -2.5,2.5 q -0.3,0.3 -0.65,0 l -4.15,-4.2 -4.2,4.2 q -0.35,0.3 -0.65,0 l -2.5,-2.5 q -0.35,-0.35 0,-0.65 l 4.2,-4.15 -4.2,-4.2 q -0.3,-0.3 0,-0.65 l 2.55,-2.55"
     id="path248" />
</svg>
