<?xml version="1.0" encoding="UTF-8" standalone="no"?>
<svg
   version="1.1"
   id="svg248"
   width="45"
   height="49"
   xmlns="http://www.w3.org/2000/svg"
   xmlns:svg="http://www.w3.org/2000/svg">
  <defs
     id="defs1" />
  <g
     id="g283"
     transform="translate(-808,-211)">
    <path
       stroke="none"
       fill="#e9e9e9"
       d="M 808,250.25 V 217 q 0,-6 6,-6 h 33 q 6,0 6,6 v 33.25 q -0.15,5.75 -6,5.75 h -33 q -5.85,0 -6,-5.75 m 42.95,-34.2 Q 850.5,213 847,213 h -33 q -3.5,0 -3.9,3.05 L 810,217 v 33 q 0,4 4,4 h 33 q 4,0 4,-4 v -33 l -0.05,-0.95"
       id="path111" />
    <path
       stroke="none"
       fill="#e5e5e5"
       d="m 849,217 v 5.3 l -2.4,2.4 2.4,2.4 V 250 q 0,2 -2,2 h -33 q -2,0 -2,-2 v -3.6 l 2.75,-2.75 L 812,240.9 V 217 l 0.05,-0.5 0.05,-0.2 q 0.25,-1.3 1.9,-1.3 h 33 q 1.65,0 2,1.35 l -0.05,-0.05 0.05,0.7"
       id="path112" />
    <path
       stroke="none"
       fill="#cbcbcb"
       d="m 849,217 -0.05,-0.7 0.05,0.05 Q 848.65,215 847,215 h -33 q -1.65,0 -1.9,1.3 l -0.05,0.2 -0.05,0.5 v 23.9 l 2.75,2.75 -2.75,2.75 v 3.6 q 0,2 2,2 h 33 q 2,0 2,-2 v -22.9 l -2.4,-2.4 2.4,-2.4 V 217 m 1.95,-0.95 0.05,0.95 v 33 q 0,4 -4,4 h -33 q -4,0 -4,-4 v -33 l 0.1,-0.95 Q 810.5,213 814,213 h 33 q 3.5,0 3.95,3.05"
       id="path113" />
    <path
       stroke="none"
       fill="#c2c2c2"
       d="M 853,250.25 V 254 q 0,6 -6,6 h -33 q -6,0 -6,-6 v -3.75 q 0.15,5.75 6,5.75 h 33 q 5.85,0 6,-5.75"
       id="path114" />
  </g>
</svg>
