<?xml version="1.0" encoding="UTF-8" standalone="no"?>
<svg
   version="1.1"
   id="svg248"
   width="45"
   height="45"
   xmlns="http://www.w3.org/2000/svg"
   xmlns:svg="http://www.w3.org/2000/svg">
  <defs
     id="defs1" />
  <g
     id="g284"
     transform="translate(-868,-215)">
    <path
       stroke="none"
       fill="#cbcbcb"
       d="M 910.95,220.05 911,221 v 33 l -0.05,1 q -0.45,3 -3.95,3 h -33 q -3.5,0 -3.9,-3 l -0.1,-1 v -33 l 0.1,-0.95 Q 870.5,217 874,217 h 33 q 3.5,0 3.95,3.05 M 907,219 h -33 q -1.65,0 -1.9,1.3 l -0.05,0.2 -0.05,0.5 v 23.9 l 2.75,2.75 -2.75,2.75 v 3.6 q 0,1.95 1.9,2 h 33.25 q 1.85,-0.05 1.85,-2 v -22.9 l -2.4,-2.4 2.4,-2.4 V 221 l -0.05,-0.7 0.05,0.05 Q 908.65,219 907,219"
       id="path136" />
    <path
       stroke="none"
       fill="#e9e9e9"
       d="M 910.95,220.05 Q 910.5,217 907,217 h -33 q -3.5,0 -3.9,3.05 L 870,221 v 33 l 0.1,1 q 0.4,3 3.9,3 h 33 q 3.5,0 3.95,-3 l 0.05,-1 v -33 l -0.05,-0.95 M 913,221 v 33 0.25 q -0.15,5.75 -6,5.75 h -33 -0.25 -0.15 -0.2 -0.1 -0.1 -0.1 q -4.7,-0.4 -5.05,-5.15 L 868,254.25 V 254 221 q 0,-6 6,-6 h 33 q 6,0 6,6"
       id="path137" />
    <path
       stroke="none"
       fill="#e5e5e5"
       d="m 907,219 q 1.65,0 2,1.35 l -0.05,-0.05 0.05,0.7 v 5.3 l -2.4,2.4 2.4,2.4 V 254 q 0,1.95 -1.85,2 H 873.9 q -1.9,-0.05 -1.9,-2 v -3.6 l 2.75,-2.75 L 872,244.9 V 221 l 0.05,-0.5 0.05,-0.2 q 0.25,-1.3 1.9,-1.3 h 33"
       id="path138" />
  </g>
</svg>
