<?xml version="1.0" encoding="UTF-8" standalone="no"?>
<svg
   version="1.1"
   id="svg248"
   width="34.104187"
   height="37"
   xmlns="http://www.w3.org/2000/svg"
   xmlns:svg="http://www.w3.org/2000/svg">
  <defs
     id="defs1" />
  <g
     id="g273"
     transform="translate(-297.99582,-370.10001)">
    <path
       stroke="none"
       fill="#6b6b6b"
       d="m 298.45,373.8 -0.35,-1.25 q -0.25,-0.75 0.1,-1.4 0.3,-0.65 0.95,-0.95 l 1.4,-0.1 11.25,3 q 0.75,0.15 1.15,0.85 l 8.55,13.45 1.6,-1.55 0.35,-0.3 q 0.45,-0.3 1.05,-0.3 0.6,0 1.1,0.3 l 0.35,0.3 2,2 q 0.55,0.55 0.55,1.4 0,0.8 -0.55,1.4 l -0.1,0.1 -1.45,1.5 1.5,1.5 0.5,0.5 0.4,-0.05 q 0.85,0 1.45,0.6 l 1.3,1.3 q 0.55,0.55 0.55,1.4 0,0.85 -0.55,1.45 l -0.1,0.05 -4.5,4.55 q -0.6,0.55 -1.45,0.55 -0.85,0 -1.4,-0.55 l -1.3,-1.3 q -0.6,-0.6 -0.6,-1.45 l 0.05,-0.4 -2,-2 -1.6,1.55 q -0.6,0.55 -1.4,0.55 -0.85,0 -1.4,-0.55 l -1.9,-1.9 -0.1,-0.1 q -0.6,-0.6 -0.6,-1.45 0,-0.7 0.4,-1.2 l 0.2,-0.2 1.6,-1.65 -13.45,-8.5 q -0.7,-0.4 -0.85,-1.15 l -2.7,-10 m 25.1,18.45 2.95,-3 -2,-2 -3.35,3.35 -9.9,-15.6 -11.25,-3 3.05,11.25 15.6,9.85 -3.4,3.4 2,2 3,-2.95 4.6,4.6 -0.65,0.65 1.3,1.3 4.6,-4.6 -1.3,-1.3 -0.65,0.65 -4.6,-4.6"
       id="path166" />
    <path
       stroke="none"
       fill="#a8a8a8"
       d="m 323.55,392.25 -3.3,3.3 -3,2.95 -2,-2 3.4,-3.4 1.25,-1.2 1.25,-1.3 3.35,-3.35 2,2 -2.95,3 m 4.6,4.6 0.65,-0.65 1.3,1.3 -4.6,4.6 -1.3,-1.3 0.65,-0.65 3.3,-3.3"
       id="path167" />
    <path
       stroke="none"
       fill="#000000"
       fill-opacity="0.101961"
       d="m 327.85,390.75 0.1,0.1 q 0.55,0.55 0.55,1.4 0,0.8 -0.55,1.4 l -0.05,0.1 -1.5,-1.5 1.45,-1.5 m 3.6,8.25 0.1,0.1 q 0.55,0.55 0.55,1.4 0,0.85 -0.55,1.45 l -4.6,4.6 q -0.6,0.55 -1.45,0.55 -0.85,0 -1.4,-0.55 l -1.3,-1.3 q -0.6,-0.6 -0.6,-1.45 l 0.05,-0.4 -2,-2 -1.6,1.55 q -0.6,0.55 -1.4,0.55 -0.85,0 -1.4,-0.55 l -2,-2 q -0.6,-0.6 -0.6,-1.45 0,-0.85 0.6,-1.4 l 0.1,-0.05 1.9,1.9 q 0.55,0.55 1.4,0.55 0.8,0 1.4,-0.55 l 1.6,-1.55 2,2 -0.05,0.4 q 0,0.85 0.6,1.45 l 1.3,1.3 q 0.55,0.55 1.4,0.55 0.85,0 1.45,-0.55 l 4.5,-4.55 m -17.8,-3.7 -11.65,-7.35 q -0.7,-0.4 -0.85,-1.15 l -3.05,-11.25 q -0.25,-0.75 0.1,-1.4 l 0.25,-0.35 2.7,10 q 0.15,0.75 0.85,1.15 l 13.45,8.5 -1.6,1.65 -0.2,0.2"
       id="path168" />
    <path
       stroke="none"
       fill="#e0e0e0"
       d="M 318.65,393.1 303.05,383.25 300,372 l 19.9,19.9 -1.25,1.2"
       id="path169" />
    <path
       stroke="none"
       fill="#666666"
       d="m 323.55,392.25 4.6,4.6 -3.3,3.3 -4.6,-4.6 3.3,-3.3"
       id="path170" />
    <path
       stroke="none"
       fill="#ffffff"
       d="m 300,372 11.25,3 9.9,15.6 -1.25,1.3 L 300,372"
       id="path171" />
  </g>
</svg>
